<?xml version="1.0" encoding="UTF-8"?>
<svg version="1.1" xmlns="http://www.w3.org/2000/svg" width="512" height="512">
<path d="M0 0 C14.89412597 11.86834906 22.59080366 27.00537096 25.24316406 45.71582031 C26.99243386 61.77076233 21.51301196 78.39035338 11.76660156 91.07128906 C0.56210363 104.58555981 -14.8076681 112.340142 -32.13574219 114.46582031 C-41.93835181 115.14259163 -50.47852488 113.70211697 -59.75683594 110.71582031 C-59.76314861 115.02963002 -59.70316484 119.3401508 -59.63183594 123.65332031 C-59.63570313 125.47186523 -59.63570313 125.47186523 -59.63964844 127.32714844 C-59.45924208 135.6483916 -57.918749 140.26767471 -52.75683594 146.71582031 C-48.60291612 156.01268848 -49.16876391 166.45627826 -52.53808594 175.90722656 C-56.86259222 185.43232445 -64.1809021 191.91755059 -73.69433594 195.96582031 C-77.68815411 196.94389823 -81.66499329 197.37028693 -85.75683594 197.71582031 C-85.88638672 198.68068359 -85.88638672 198.68068359 -86.01855469 199.66503906 C-88.3878842 214.90265362 -94.88716563 229.04283626 -105.91772461 239.92749023 C-106.63699631 240.63943039 -107.35626801 241.35137054 -108.09733582 242.08488464 C-108.64497086 242.62309341 -109.1926059 243.16130219 -109.75683594 243.71582031 C-109.18578125 243.71946594 -108.61472656 243.72311157 -108.02636719 243.72686768 C-102.05574578 243.76884119 -96.08588249 243.83828984 -90.11572266 243.92333984 C-87.89086508 243.95147803 -85.66590887 243.97272796 -83.44091797 243.98681641 C-80.23321291 244.00834463 -77.02668491 244.05504709 -73.81933594 244.10644531 C-72.33916992 244.10828827 -72.33916992 244.10828827 -70.82910156 244.11016846 C-64.70288206 244.23862907 -59.83748482 245.11836086 -54.75683594 248.71582031 C-51.50999837 252.90528815 -50.62797413 256.90280633 -50.64331055 262.1171875 C-50.64338608 262.97777771 -50.64346161 263.83836792 -50.64353943 264.72503662 C-50.64870071 265.64496399 -50.653862 266.56489136 -50.65917969 267.51269531 C-50.66130211 268.93585052 -50.66130211 268.93585052 -50.66346741 270.38775635 C-50.66905852 273.41380993 -50.68160941 276.43978914 -50.69433594 279.46582031 C-50.69935209 281.51920466 -50.70391479 283.57259017 -50.70800781 285.62597656 C-50.71902505 290.65595307 -50.73628361 295.68587409 -50.75683594 300.71582031 C-48.85998047 300.94543457 -48.85998047 300.94543457 -46.92480469 301.1796875 C-36.2442454 302.47256866 -26.81017184 306.49576444 -19.46264648 314.53662109 C-11.58273001 324.60333563 -11.70703965 336.92918678 -11.13183594 349.09082031 C-11.02204617 351.07807066 -10.91026587 353.06521191 -10.79663086 355.05224609 C-10.5566994 359.31325229 -10.3298687 363.57468328 -10.11279297 367.83691406 C-9.73918859 375.14190108 -9.32588449 382.44443288 -8.90917969 389.74707031 C-8.17083545 402.7355424 -7.45621549 415.72519533 -6.75683594 428.71582031 C-5.84308197 428.70471725 -4.929328 428.6936142 -3.98788452 428.68217468 C4.63382484 428.58188643 13.2553376 428.50581152 21.87749672 428.45675945 C26.31002358 428.43069304 30.74206748 428.39534978 35.17431641 428.33862305 C39.45373641 428.28419662 43.73269263 428.25437754 48.0124321 428.2414341 C49.64312413 428.23221317 51.27379147 428.21420633 52.90428543 428.18717003 C55.19309075 428.15073578 57.47999316 428.14588058 59.76904297 428.14819336 C61.72096054 428.13153877 61.72096054 428.13153877 63.71231079 428.11454773 C68.35923062 428.90587642 69.93398545 430.41711635 73.24316406 433.71582031 C75.63767658 437.80788349 75.57717271 442.02035708 75.55566406 446.65332031 C75.57177734 447.34361328 75.58789062 448.03390625 75.60449219 448.74511719 C75.61012753 454.69040753 74.31930937 458.62566921 70.11750787 462.8558163 C66.51389471 465.1877346 63.61389115 465.27411976 59.46069431 465.22197819 C58.68007078 465.22809155 57.89944724 465.23420491 57.09516844 465.24050352 C54.46943717 465.25615125 51.84462327 465.24321842 49.21888733 465.23048401 C47.32143454 465.23580714 45.42398596 465.24287148 43.52654546 465.25153106 C38.30461181 465.27021619 33.08296062 465.26383321 27.86101496 465.25337803 C22.23241658 465.24640266 16.6038772 465.26237131 10.97529602 465.27537537 C-0.05448269 465.29704853 -11.08415836 465.29687996 -22.11395138 465.28874982 C-31.07641579 465.28245702 -40.03885008 465.28358024 -49.00131416 465.2900219 C-50.27557055 465.29092355 -51.54982693 465.29182521 -52.86269714 465.29275418 C-55.45111509 465.29460533 -58.03953304 465.29646789 -60.62795097 465.29834174 C-78.0140662 465.31021723 -95.40016198 465.31461388 -112.78627682 465.30340672 C-113.80632831 465.30274976 -113.80632831 465.30274976 -114.84698691 465.30207953 C-120.36955905 465.2984726 -125.89213103 465.29463788 -131.41470301 465.2907886 C-152.95840043 465.27594024 -174.50197108 465.28472051 -196.0456543 465.31274414 C-220.24395873 465.34416058 -244.44216602 465.35907778 -268.64049727 465.34894413 C-271.21984548 465.34792155 -273.79919371 465.34692694 -276.37854195 465.34596062 C-277.64771346 465.34548423 -278.91688497 465.34500784 -280.22451622 465.34451701 C-289.17808727 465.34235018 -298.13159942 465.3521713 -307.08515739 465.36673164 C-317.9939972 465.38422376 -328.90266468 465.38418248 -339.81149762 465.36137999 C-345.37983896 465.35020945 -350.94787635 465.34713898 -356.51620483 465.36568069 C-361.61073613 465.38242676 -366.704697 465.37621418 -371.79919095 465.35146391 C-373.64502852 465.34656087 -375.49091159 465.3501497 -377.33671128 465.36295135 C-379.84134166 465.3790727 -382.34398509 465.36454592 -384.84852505 465.3422327 C-385.56933263 465.35422438 -386.29014021 465.36621606 -387.03279045 465.37857112 C-392.65753136 465.27587662 -394.94124079 463.55377076 -398.75683594 459.71582031 C-401.15134845 455.62375714 -401.09084459 451.41128354 -401.06933594 446.77832031 C-401.08544922 446.08802734 -401.1015625 445.39773438 -401.11816406 444.68652344 C-401.12388441 438.65155736 -399.61630808 434.93104945 -395.77636719 430.35644531 C-391.11410787 427.82326431 -386.65356216 428.29251272 -381.44433594 428.46582031 C-380.41759766 428.48386719 -379.39085937 428.50191406 -378.33300781 428.52050781 C-375.80665708 428.56750969 -373.28223125 428.63319759 -370.75683594 428.71582031 C-370.81484375 427.58144531 -370.87285156 426.44707031 -370.93261719 425.27832031 C-371.465089 410.54551116 -371.465089 410.54551116 -367.25292969 405.22363281 C-362.63416545 400.56869027 -358.52032067 396.66566681 -351.72265625 396.48876953 C-350.09339016 396.48908486 -348.4641018 396.50030566 -346.83496094 396.52050781 C-345.97497498 396.52333771 -345.11498901 396.5261676 -344.22894287 396.52908325 C-341.48809773 396.54025881 -338.74758195 396.56535852 -336.00683594 396.59082031 C-334.14616358 396.60085351 -332.28548609 396.60997877 -330.42480469 396.61816406 C-325.86868862 396.64018956 -321.31281808 396.67470134 -316.75683594 396.71582031 C-316.72147232 396.0261467 -316.6861087 395.33647308 -316.64967346 394.62590027 C-316.31366738 388.08052866 -315.97556564 381.53526891 -315.63519382 374.9901228 C-315.46033788 371.6263661 -315.28625185 368.26257347 -315.11401367 364.89868164 C-314.9149435 361.01860991 -314.71309774 357.13869067 -314.51074219 353.25878906 C-314.45028214 352.06875778 -314.38982208 350.8787265 -314.32752991 349.65263367 C-312.77935647 320.22174363 -312.77935647 320.22174363 -301.06933594 309.55175781 C-293.69216195 303.69487982 -284.16144459 300.71582031 -274.75683594 300.71582031 C-274.77254639 299.45511719 -274.78825684 298.19441406 -274.80444336 296.89550781 C-274.85898718 292.19163471 -274.8932747 287.48778924 -274.92163086 282.78369141 C-274.93666193 280.75271901 -274.9570924 278.72177877 -274.9831543 276.69091797 C-275.01978826 273.76163773 -275.03661945 270.83278888 -275.04980469 267.90332031 C-275.06528854 267.00403809 -275.0807724 266.10475586 -275.09672546 265.17822266 C-275.09826355 259.33868845 -274.27333999 255.01604824 -271.75683594 249.71582031 C-267.34791881 246.13357514 -263.72443699 244.61601658 -258.10180664 244.51049805 C-257.16105789 244.49055283 -256.22030914 244.4706076 -255.25105286 244.45005798 C-253.7321772 244.42498924 -253.7321772 244.42498924 -252.18261719 244.39941406 C-251.14364792 244.37863297 -250.10467865 244.35785187 -249.03422546 244.33644104 C-245.71266341 244.27101376 -242.39102178 244.21209211 -239.06933594 244.15332031 C-236.81867664 244.11012862 -234.56802541 244.06651412 -232.31738281 244.02246094 C-226.79728484 243.91533933 -221.27710756 243.81356015 -215.75683594 243.71582031 C-216.65849487 242.84679077 -216.65849487 242.84679077 -217.57836914 241.96020508 C-226.2030582 233.51848245 -231.90555631 224.62083545 -236.19433594 213.40332031 C-236.56498169 212.43543579 -236.56498169 212.43543579 -236.94311523 211.44799805 C-238.59387983 206.84880899 -239.290508 202.54526252 -239.75683594 197.71582031 C-240.91699219 197.56886719 -240.91699219 197.56886719 -242.10058594 197.41894531 C-253.44860731 195.78977393 -262.15969051 192.04170433 -269.29980469 182.69628906 C-274.84063903 174.19817657 -276.81009144 164.70702075 -275.13183594 154.65332031 C-273.76595916 148.86680182 -271.54857232 141.85215735 -266.69775391 138.14013672 C-263.78880031 134.50668902 -264.22767477 131.22512101 -264.28808594 126.70019531 C-264.28103638 125.81156799 -264.27398682 124.92294067 -264.26672363 124.00738525 C-264.23741419 120.22058892 -264.2536479 116.4343125 -264.26611328 112.64746094 C-264.28839396 87.17618433 -258.17970638 65.82911814 -240.50683594 46.90332031 C-225.55256462 32.71525724 -205.51603978 24.62300731 -184.99121094 24.51269531 C-184.15777161 24.50699524 -183.32433228 24.50129517 -182.46563721 24.49542236 C-180.70741022 24.48601085 -178.94916589 24.47945376 -177.19091797 24.47558594 C-174.52897649 24.46590087 -171.86781473 24.43484958 -169.20605469 24.40332031 C-152.56713206 24.29830991 -152.56713206 24.29830991 -144.75683594 27.71582031 C-143.73332031 28.1528125 -142.70980469 28.58980469 -141.65527344 29.04003906 C-136.79337665 31.66666751 -133.44486818 33.91752617 -130.00683594 38.27832031 C-128.20548475 40.44325104 -128.20548475 40.44325104 -125.75683594 41.71582031 C-121.82681489 41.5347744 -118.25110946 40.69965913 -114.47949219 39.66503906 C-109.80766447 38.47379653 -105.53709035 38.41213356 -100.75683594 38.71582031 C-100.54929687 37.91660156 -100.34175781 37.11738281 -100.12792969 36.29394531 C-95.24406117 18.88366927 -85.310156 5.08890956 -69.67089844 -4.09667969 C-47.39374433 -16.1113246 -20.66475591 -15.10514398 0 0 Z M-358.13183594 412.15332031 C-361.65996576 417.71690965 -360.75683594 421.76896876 -360.75683594 428.71582031 C-342.93683594 428.71582031 -325.11683594 428.71582031 -306.75683594 428.71582031 C-306.45078492 419.37291679 -306.45078492 419.37291679 -309.75683594 411.71582031 C-316.12746861 405.5085372 -323.02837121 406.49964873 -331.49145508 406.47558594 C-333.55233435 406.46590022 -335.6122068 406.43485954 -337.67285156 406.40332031 C-348.98992015 406.21345546 -348.98992015 406.21345546 -358.13183594 412.15332031 Z " fill="#010101" transform="translate(418.7568359375,47.2841796875)"/>
<path d="M0 0 C0.7745947 0.00223072 1.5491894 0.00446144 2.34725666 0.00675976 C3.16411599 0.00519977 3.98097532 0.00363978 4.82258797 0.00203252 C7.58107294 -0.00198091 10.33950363 0.00121348 13.09798908 0.00434887 C15.06693269 0.00299498 17.03587605 0.00121512 19.00481892 -0.00096118 C24.36829844 -0.00553699 29.73175881 -0.00374536 35.09523869 -0.0005821 C40.69487022 0.00194075 46.29450006 -0.00039582 51.89413166 -0.00196826 C61.29965225 -0.00379018 70.705165 -0.00138307 80.11068439 0.00337231 C91.0016696 0.00881497 101.89263608 0.00705233 112.78362083 0.00154591 C122.11606507 -0.00298459 131.44850366 -0.00363608 140.78094864 -0.00101542 C146.36283837 0.0005477 151.94471929 0.00074016 157.52660847 -0.00255191 C162.77303288 -0.00542971 168.01943305 -0.00345662 173.26585484 0.00234234 C175.19727888 0.00367043 177.12870495 0.003275 179.06012821 0.00107968 C181.68499985 -0.00162992 184.30979248 0.00174694 186.934659 0.00675976 C187.7092537 0.00452904 188.4838484 0.00229832 189.28191566 0 C194.52680799 0.01959356 194.52680799 0.01959356 195.64095783 1.13374341 C195.74187589 3.01473916 195.77172895 4.89956557 195.7746706 6.78326428 C195.78106808 8.62369053 195.78106808 8.62369053 195.7875948 10.50129712 C195.78724523 11.87348953 195.78678367 13.24568192 195.7862215 14.61787426 C195.78921141 16.05318298 195.79261354 17.48849089 195.79639912 18.92379773 C195.80526053 22.83284332 195.80757812 26.74186704 195.8082149 30.6509217 C195.80916223 33.90905107 195.81283849 37.16717529 195.816387 40.42530268 C195.8245397 48.10928751 195.82697049 55.79326061 195.82626057 63.47724926 C195.82565955 71.41557902 195.83621423 79.35384086 195.85200423 87.29215342 C195.86506006 94.09724731 195.87044529 100.90231896 195.86980516 107.7074253 C195.86954959 111.77638904 195.87243284 115.84529249 195.88298321 119.91424382 C195.89263137 123.73993754 195.8927661 127.5655129 195.88546658 131.39121068 C195.88441662 132.79813572 195.88680778 134.205068 195.89282703 135.61198056 C195.90049188 137.52705195 195.89472791 139.4421633 195.88819599 141.35723889 C195.88874076 142.43075069 195.88928553 143.50426249 195.8898468 144.61030495 C195.64095783 147.13374341 195.64095783 147.13374341 193.64095783 149.13374341 C191.02480158 149.33131013 188.5144105 149.40301059 185.89706135 149.38771069 C185.08822026 149.39083067 184.27937918 149.39395065 183.44602776 149.39716518 C180.72056695 149.40517812 177.99532677 149.39880878 175.26986408 149.39253247 C173.32209867 149.39524087 171.37433428 149.39880095 169.42657185 149.40315259 C164.12504679 149.41229681 158.82359927 149.40872397 153.52207279 149.40239441 C147.98430637 149.39734492 142.44654677 149.40202293 136.9087801 149.40516675 C127.60757977 149.40880947 118.30641116 149.40399928 109.00521564 149.39448559 C98.23861016 149.38360047 87.47208041 149.38712583 76.70547676 149.3981384 C67.47575098 149.40720258 58.24604806 149.40850082 49.01631927 149.40326107 C43.49756026 149.40013657 37.97883689 149.39974513 32.46008015 149.40633404 C27.27270796 149.41209426 22.0854338 149.40813499 16.89807224 149.39654553 C14.98964444 149.39389183 13.08120844 149.39467605 11.17278385 149.39907086 C8.57669442 149.40449987 5.98092323 149.39772463 3.38485432 149.38771069 C2.62163648 149.39217213 1.85841864 149.39663358 1.07207298 149.40123022 C-4.13074204 149.36204353 -4.13074204 149.36204353 -6.35904217 147.13374341 C-6.60793114 144.61030495 -6.60793114 144.61030495 -6.60628033 141.35723889 C-6.61257206 139.5125829 -6.61257206 139.5125829 -6.6189909 137.63066113 C-6.61350704 136.26051264 -6.60782405 134.89036494 -6.60196209 133.52021801 C-6.60303454 132.0831393 -6.60497268 130.646061 -6.60771465 129.20898449 C-6.61257161 125.30002703 -6.60489709 121.39118331 -6.59476161 117.4822396 C-6.58599637 113.3987547 -6.58773825 109.31527352 -6.58812237 105.23178113 C-6.58718512 98.3744568 -6.57849251 91.51717666 -6.56485271 84.65986645 C-6.5491203 76.72094495 -6.54385479 68.78207185 -6.54458827 60.84313589 C-6.54519768 53.2185226 -6.54010061 45.59392514 -6.53179646 37.9693166 C-6.52825722 34.7185257 -6.5264323 31.46774041 -6.52590275 28.21694767 C-6.52490145 24.39290532 -6.51882237 20.56890393 -6.50873661 16.74487507 C-6.50580497 15.33753344 -6.50458758 13.93018709 -6.50516415 12.52284253 C-6.50565153 10.60964537 -6.49940533 8.69644994 -6.49275494 6.78326428 C-6.49107909 5.7101295 -6.48940325 4.63699473 -6.48767662 3.53134072 C-6.24728037 -0.94936724 -3.92478193 0.01466197 0 0 Z " fill="#ECF3FB" transform="translate(161.35904216766357,302.8662565946579)"/>
<path d="M0 0 C3.73732951 1.35720553 6.7803354 3.07983599 10.0625 5.3125 C21.66211291 12.78159479 34.01685695 16.52143885 47.73071289 17.53613281 C49.49059288 17.66752655 49.49059288 17.66752655 51.286026 17.80157471 C52.18163742 17.86705505 53.07724884 17.9325354 54 18 C54.09338604 27.24161812 54.16410821 36.48306956 54.20724869 45.72505951 C54.22797188 50.01821259 54.25600356 54.31103884 54.30175781 58.60400391 C54.34576913 62.76026032 54.3692513 66.91620584 54.37950897 71.07267761 C54.38680266 72.64484033 54.40103956 74.21698936 54.42292023 75.78901672 C54.68682541 95.56707001 50.25573732 114.12474842 36.27929688 128.85961914 C23.20189728 142.0606874 23.20189728 142.0606874 13.88891602 142.24047852 C12.60320206 142.26622452 11.3174881 142.29197052 9.99281311 142.3184967 C4.08047582 142.40828635 -1.83205125 142.46863497 -7.74487305 142.51489258 C-10.85790915 142.54153433 -13.96939245 142.5901106 -17.08178711 142.65844727 C-20.85146687 142.74099258 -24.61968045 142.78316801 -28.39021492 142.79795647 C-29.81872059 142.81011099 -31.24718524 142.83592605 -32.67516899 142.87640572 C-43.23565548 143.16053751 -49.21942066 141.16269975 -57 134 C-58.25743263 132.87284325 -58.25743263 132.87284325 -59.54026794 131.72291565 C-71.78937728 120.44008669 -79.32038385 104.24096938 -80.17469788 87.59635925 C-80.23035083 83.66482088 -80.22553956 79.73624009 -80.1953125 75.8046875 C-80.19157392 74.36166583 -80.18873095 72.91864159 -80.18673706 71.47561646 C-80.179167 67.7109453 -80.15957702 63.94643293 -80.1373291 60.18182373 C-80.11672635 56.32696682 -80.10770475 52.47208381 -80.09765625 48.6171875 C-80.07632358 41.07805327 -80.04226967 33.53904904 -80 26 C-78.76878418 26.16008545 -77.53756836 26.3201709 -76.26904297 26.48510742 C-54.13339563 29.24437925 -31.41675008 25.08789712 -13 12 C-8.45407136 8.21929188 -4.15318898 4.2066062 0 0 Z " fill="#F7CFB3" transform="translate(269,151)"/>
<path d="M0 0 C0.72008743 -0.00807175 1.44017487 -0.01614349 2.18208313 -0.02445984 C3.70071053 -0.03822551 5.21936789 -0.04898091 6.73803711 -0.05688477 C8.27100883 -0.06837437 9.80394151 -0.0887784 11.33666992 -0.1184082 C24.70574277 -0.37614262 35.73749074 1.51069021 46.36328125 10.23828125 C49.09629543 12.99431029 51.62053454 15.75278783 53.36328125 19.23828125 C57.82641307 19.61812226 60.45663299 19.34921403 64.42578125 17.23828125 C70.47677034 14.25480746 76.77531416 14.90091736 83.36328125 15.23828125 C83.44964844 16.24246094 83.53601563 17.24664062 83.625 18.28125 C85.37070712 36.11992054 91.94960315 51.91756951 105.36328125 64.23828125 C106.11520752 64.62709473 106.86713379 65.0159082 107.6418457 65.41650391 C110.30151137 66.82608742 112.28412389 68.05077534 114.36328125 70.23828125 C115.47673965 74.57352609 115.21890065 78.67390029 114.92578125 83.11328125 C114.88517578 84.27859375 114.84457031 85.44390625 114.80273438 86.64453125 C114.69691555 89.51339727 114.54927363 92.37368067 114.36328125 95.23828125 C113.7607251 95.10115723 113.15816895 94.9640332 112.53735352 94.82275391 C111.73869873 94.64276855 110.94004395 94.4627832 110.1171875 94.27734375 C109.32900635 94.09896973 108.5408252 93.9205957 107.72875977 93.73681641 C104.61859846 93.08133603 101.5154265 92.64068277 98.36328125 92.23828125 C98.32460938 91.33335937 98.32460938 91.33335937 98.28515625 90.41015625 C98.2284375 89.6109375 98.17171875 88.81171875 98.11328125 87.98828125 C98.066875 87.199375 98.02046875 86.41046875 97.97265625 85.59765625 C97.1337156 82.34945016 96.08420701 81.20605476 93.36328125 79.23828125 C90.67442701 78.7222089 88.25941787 78.41434415 85.55078125 78.23828125 C69.9322388 76.78289801 56.11531666 72.53882825 43.55078125 62.86328125 C39.38731848 59.62521767 39.38731848 59.62521767 34.36328125 58.67578125 C31.32786979 59.17454062 31.32786979 59.17454062 28.36328125 60.23828125 C27.66191593 61.55369332 26.9997697 62.890281 26.36328125 64.23828125 C15.94723461 76.89939057 -0.52827551 85.0637508 -16.63671875 87.23828125 C-20.43452017 87.47006883 -24.20822815 87.47494201 -28.01171875 87.42578125 C-28.98238281 87.42513672 -29.95304687 87.42449219 -30.953125 87.42382812 C-35.03836181 87.39847148 -38.68544262 87.33226899 -42.63671875 86.23828125 C-46.81021246 85.7410486 -49.65474893 85.48291985 -53.07421875 88.11328125 C-54.66089316 90.14533671 -54.66089316 90.14533671 -55.63671875 92.23828125 C-57.97416169 92.7063477 -60.33410954 93.06497919 -62.69921875 93.36328125 C-63.98957031 93.53085938 -65.27992188 93.6984375 -66.609375 93.87109375 C-67.60839844 93.99226563 -68.60742188 94.1134375 -69.63671875 94.23828125 C-69.73734834 89.81328839 -69.80899375 85.38894222 -69.85644531 80.96313477 C-69.87627373 79.46496957 -69.9033453 77.96687862 -69.93847656 76.46899414 C-70.40555958 56.00663669 -64.89868377 37.5393694 -50.63671875 22.23828125 C-37.1121804 8.14727009 -19.58848922 0.21334675 0 0 Z " fill="#744D33" transform="translate(234.63671875,81.76171875)"/>
<path d="M0 0 C10.63388715 8.80767397 17.18673128 21.34004228 19 35 C19.99072119 50.90869611 16.26068307 64.97654145 5.8125 77.3125 C-4.63566339 88.23398623 -17.60881637 93.77590699 -32.5625 94.25 C-48.03081788 94.05664603 -60.50057365 89.08973509 -71.7109375 78.484375 C-82.78362143 66.46692282 -86.43120713 52.92377372 -86.2734375 36.91015625 C-85.34431895 23.62376098 -78.9050056 10.79231734 -69.16015625 1.7421875 C-48.40759529 -14.99495932 -21.46224834 -15.57209442 0 0 Z " fill="#B0DF6B" transform="translate(414,57)"/>
<path d="M0 0 C0.72225128 0.00234117 1.44450256 0.00468233 2.18864024 0.00709444 C2.95263939 0.005641 3.71663854 0.00418756 4.50378919 0.00269008 C7.09672135 -0.00099652 9.68959571 0.00252871 12.28252757 0.00595194 C14.147088 0.00480117 16.01164822 0.00321395 17.87620795 0.0012247 C23.02553544 -0.00297469 28.17484455 -0.0008752 33.32417214 0.00221092 C38.86751238 0.00446233 44.41084934 0.0009867 49.95418894 -0.00176901 C60.82372445 -0.00622848 71.69325307 -0.00524945 82.56278884 -0.00235637 C91.39237315 -0.00010302 100.22195551 0.00021049 109.05154002 -0.00088018 C110.93259862 -0.00111003 110.93259862 -0.00111003 112.8516584 -0.00134452 C115.39877514 -0.00166423 117.94589188 -0.00198844 120.49300861 -0.00231712 C143.72577552 -0.00509094 166.95853838 -0.00220859 190.19130443 0.00302548 C211.41873564 0.0077714 232.64616086 0.00734679 253.87359202 0.00256449 C277.70006895 -0.00278535 301.52654257 -0.00489773 325.35302031 -0.00182325 C327.89105634 -0.00150468 330.42909237 -0.00119031 332.9671284 -0.00088018 C334.21607054 -0.00072591 335.46501268 -0.00057163 336.75180155 -0.00041268 C345.57640594 0.00045274 354.40100822 -0.00101094 363.22561228 -0.00335974 C373.97177479 -0.00615696 384.71792999 -0.00542112 395.46409166 -0.00007899 C400.95269879 0.00255908 406.44129371 0.00356132 411.92990077 0.00027186 C416.94580143 -0.00268895 421.96167847 -0.00110192 426.97757697 0.00424941 C428.80056739 0.00537452 430.62355976 0.00478036 432.44654894 0.00237362 C434.90773784 -0.00062859 437.36884376 0.00241226 439.83002818 0.00709444 C440.55227945 0.00475328 441.27453073 0.00241211 442.01866841 0 C446.89518386 0.01878524 446.89518386 0.01878524 448.00933421 1.13293558 C448.10842723 3.46453613 448.13903925 5.799235 448.13433421 8.13293558 C448.13691233 9.41168558 448.13949046 10.69043558 448.14214671 12.00793558 C448.00933421 15.13293558 448.00933421 15.13293558 447.00933421 16.13293558 C444.60684976 16.23261152 442.2330745 16.26656616 439.83002818 16.25877672 C438.68402945 16.26095689 438.68402945 16.26095689 437.51487923 16.26318109 C434.92194706 16.26686769 432.32907271 16.26334245 429.73614085 16.25991923 C427.87158041 16.26107 426.0070202 16.26265722 424.14246047 16.26464647 C418.99313297 16.26884586 413.84382386 16.26674637 408.69449627 16.26366025 C403.15115603 16.26140884 397.60781907 16.26488447 392.06447947 16.26764017 C381.19494397 16.27209965 370.32541535 16.27112062 359.45587957 16.26822753 C350.62629527 16.26597419 341.7967129 16.26566067 332.9671284 16.26675135 C331.08606979 16.2669812 331.08606979 16.2669812 329.16701001 16.26721569 C326.61989327 16.2675354 324.07277654 16.26785961 321.5256598 16.26818828 C298.29289289 16.27096211 275.06013003 16.26807976 251.82736398 16.26284569 C230.59993277 16.25809977 209.37250755 16.25852438 188.14507639 16.26330668 C164.31859946 16.26865651 140.49212584 16.2707689 116.6656481 16.26769441 C114.12761207 16.26737585 111.58957605 16.26706148 109.05154002 16.26675135 C107.80259788 16.26659707 106.55365574 16.2664428 105.26686686 16.26628385 C96.44226247 16.26541843 87.6176602 16.2668821 78.79305613 16.2692309 C68.04689362 16.27202813 57.30073842 16.27129229 46.55457675 16.26595016 C41.06596962 16.26331209 35.5773747 16.26230985 30.08876765 16.26559931 C25.07286698 16.26856012 20.05698994 16.26697309 15.04109144 16.26162176 C13.21810103 16.26049664 11.39510865 16.26109081 9.57211947 16.26349755 C7.11093057 16.26649976 4.64982466 16.26345891 2.18864024 16.25877672 C1.46638896 16.26111789 0.74413768 16.26345906 0 16.26587117 C-4.87651545 16.24708593 -4.87651545 16.24708593 -5.99066579 15.13293558 C-6.08975882 12.80133503 -6.12037083 10.46663617 -6.11566579 8.13293558 C-6.11824392 6.85418558 -6.12082204 5.57543558 -6.12347829 4.25793558 C-5.9125035 -0.70617713 -4.53299254 0.01746193 0 0 Z " fill="#518FDA" transform="translate(34.990665793418884,485.86706441640854)"/>
<path d="M0 0 C73.26 0 146.52 0 222 0 C220.8156682 8.29032258 220.8156682 8.29032258 217 12 C212.67761228 14.27933946 208.50776998 14.28660354 203.73243713 14.26742554 C202.90343728 14.27195665 202.07443742 14.27648776 201.22031635 14.28115618 C198.44442821 14.29380942 195.66873604 14.29217923 192.89282227 14.29052734 C190.90184273 14.29651194 188.91086552 14.30331733 186.91989136 14.31088257 C181.51291982 14.3285549 176.10601157 14.33323842 170.69901395 14.33451414 C166.1859657 14.33641318 161.67293221 14.34377061 157.15988964 14.35085833 C146.51373067 14.36714392 135.86760554 14.37202706 125.22143555 14.37060547 C114.2360966 14.36940338 103.25095391 14.39051824 92.26566464 14.4220928 C82.83539008 14.44823281 73.40517971 14.45897375 63.97486919 14.45769465 C58.34195141 14.45718443 52.70920809 14.46290116 47.07632637 14.48405075 C41.77966509 14.50339521 36.48334544 14.50358351 31.18667221 14.48901749 C29.24282648 14.48692371 27.29895958 14.49166402 25.35515022 14.5037384 C22.70121268 14.51915624 20.04845825 14.50990602 17.39454651 14.49447632 C16.62557165 14.50476344 15.8565968 14.51505057 15.06431967 14.52564943 C9.90461233 14.45936814 6.95478092 13.28978531 3 10 C0.65487387 6.24779819 0 4.47038145 0 0 Z " fill="#D9E5F0" transform="translate(145,462)"/>
<path d="M0 0 C4.23301121 2.82200747 7.17159664 5.95228992 8.8125 10.875 C9.26284535 16.84207586 8.33798175 20.83770513 4.45391846 25.50891113 C2.7906885 27.2920971 1.08451217 29.01887259 -0.6484375 30.734375 C-1.27601959 31.36482727 -1.90360168 31.99527954 -2.55020142 32.64483643 C-3.87288197 33.9695502 -5.19932559 35.2905162 -6.52929688 36.60791016 C-8.55956688 38.62209012 -10.57330469 40.65180704 -12.5859375 42.68359375 C-13.87664316 43.97231737 -15.16827891 45.26011028 -16.4609375 46.546875 C-17.35962051 47.45466705 -17.35962051 47.45466705 -18.27645874 48.38079834 C-22.44788156 52.48308156 -25.60990607 54.58860067 -31.5625 55.25 C-40.19311389 54.35717787 -45.63787194 47.88519634 -51.4375 42 C-52.23929687 41.20980469 -53.04109375 40.41960937 -53.8671875 39.60546875 C-58.98496396 34.46201783 -62.79657316 30.39334158 -63.625 22.9375 C-63.36771188 17.08699182 -60.77477106 13.3848432 -56.625 9.4375 C-51.75586499 7.22425681 -47.45231945 7.08920605 -42.1875 7.875 C-38.8125 9.625 -38.8125 9.625 -36.1875 11.875 C-34.52369327 13.21190042 -32.85743096 14.5457573 -31.1875 15.875 C-30.79481934 15.46660889 -30.40213867 15.05821777 -29.99755859 14.63745117 C-28.19399567 12.77108419 -26.37844919 10.91681431 -24.5625 9.0625 C-23.94503906 8.41990234 -23.32757813 7.77730469 -22.69140625 7.11523438 C-15.89410691 0.21060925 -9.5315101 -3.36406239 0 0 Z " fill="#040503" transform="translate(407.1875,75.125)"/>
<path d="M0 0 C0 26.4 0 52.8 0 80 C-10.56 80 -21.12 80 -32 80 C-32 65.91852728 -32 65.91852728 -31.24499512 60.08102417 C-30.82617522 56.52350704 -30.75263896 52.95687538 -30.640625 49.37890625 C-30.57673113 47.76752968 -30.51158861 46.15620222 -30.4453125 44.54492188 C-30.3443416 42.05275429 -30.2499637 39.56126384 -30.17675781 37.06811523 C-29.81943932 25.3009676 -29.03465024 16.02342221 -20.5 7.125 C-14.93086291 2.62070748 -7.15602825 0 0 0 Z " fill="#6ED2F5" transform="translate(145,358)"/>
<path d="M0 0 C19.84014131 4.40892029 19.84014131 4.40892029 26 14 C28.63546953 19.30043904 29.49697493 23.58052675 29.6953125 29.4609375 C29.73308807 30.25094147 29.77086365 31.04094543 29.80978394 31.85488892 C29.92733325 34.36121605 30.02689808 36.86784347 30.125 39.375 C30.23387313 41.87472713 30.34654196 44.37423976 30.4616394 46.87368774 C30.53174656 48.4218137 30.59774626 49.97013374 30.65872192 51.51864624 C30.81072969 55.12017389 31.06448853 58.65737423 31.52685547 62.23291016 C32.11199686 68.12840593 32 74.07553709 32 80 C21.44 80 10.88 80 0 80 C0 53.6 0 27.2 0 0 Z " fill="#6ED3F5" transform="translate(367,358)"/>
<path d="M0 0 C0 16.5 0 33 0 50 C-9.02225536 48.99752718 -13.57537198 47.80142116 -19.60546875 41.2578125 C-24.73468651 34.48905007 -26.09064914 27.37300431 -25 19 C-22.27688932 10.52674937 -17.3606819 5.72542619 -10 1.125 C-7 0 -7 0 0 0 Z " fill="#F2CAAF" transform="translate(179,184)"/>
<path d="M0 0 C8.73729191 0.97081021 13.00010144 1.60986743 18.76171875 7.93359375 C24.27260765 14.99233522 25.99353779 21.05815993 25 30 C23.15680791 36.3864115 19.79579001 42.45314735 14.18359375 46.21875 C9.16289105 48.96981997 6.19363408 49.22579574 0 50 C0 33.5 0 17 0 0 Z " fill="#F3CBB0" transform="translate(333,184)"/>
<path d="M0 0 C2 2 2 2 2.49462891 4.20947266 C1.7361128 8.48876143 -0.89877034 10.65268563 -3.9140625 13.6484375 C-4.52132172 14.26522369 -5.12858093 14.88200989 -5.75424194 15.51748657 C-7.04091531 16.81631528 -8.33412146 18.10870019 -9.63330078 19.39501953 C-11.61828075 21.36832029 -13.56916814 23.37145454 -15.51953125 25.37890625 C-16.77409777 26.63735756 -18.03054813 27.89393424 -19.2890625 29.1484375 C-19.87056061 29.75037933 -20.45205872 30.35232117 -21.05117798 30.97250366 C-25.16945221 34.97600911 -25.16945221 34.97600911 -29.15258789 35.09106445 C-32.24256736 33.90705363 -33.9280889 32.71639399 -36.26953125 30.39453125 C-37.01267578 29.65783203 -37.75582031 28.92113281 -38.52148438 28.16210938 C-39.27751953 27.38673828 -40.03355469 26.61136719 -40.8125 25.8125 C-41.58787109 25.05646484 -42.36324219 24.30042969 -43.16210938 23.52148438 C-46.34410234 20.31165245 -48.67586947 17.95902537 -50.13671875 13.63671875 C-50 11 -50 11 -48 8 C-44.6953125 7.5 -44.6953125 7.5 -41 8 C-38.3046875 10.1875 -38.3046875 10.1875 -35.875 13 C-32.8739621 16.75453346 -32.8739621 16.75453346 -28.62036133 18.38061523 C-25.15509209 17.87727463 -24.04805186 16.61056317 -21.64453125 14.09765625 C-20.85755859 13.29005859 -20.07058594 12.48246094 -19.25976562 11.65039062 C-18.45216797 10.79638672 -17.64457031 9.94238281 -16.8125 9.0625 C-15.19592378 7.38487291 -13.57752497 5.70899956 -11.95703125 4.03515625 C-11.24522705 3.2862915 -10.53342285 2.53742676 -9.80004883 1.76586914 C-6.44503977 -1.52543433 -4.45175331 -1.02019347 0 0 Z " fill="#E6EDF5" transform="translate(404,85)"/>
<path d="M0 0 C10.89 0 21.78 0 33 0 C34 14 34 14 34 28 C24.76 28 15.52 28 6 28 C6.99 25.69 7.98 23.38 9 21 C9.77397023 16.18883372 9.72167201 12.28297246 7.3125 8 C4.93593772 5.94459479 2.9912103 4.91398092 0 4 C0 2.68 0 1.36 0 0 Z " fill="#F5CCB1" transform="translate(367,448)"/>
<path d="M0 0 C2 2 2 2 2.1953125 3.9453125 C2.13020833 5.96354167 2.06510417 7.98177083 2 10 C2.62648438 10.04898437 3.25296875 10.09796875 3.8984375 10.1484375 C4.71570313 10.22320312 5.53296875 10.29796875 6.375 10.375 C7.18710937 10.44460938 7.99921875 10.51421875 8.8359375 10.5859375 C11 11 11 11 13 13 C13.54794521 19.90410959 13.54794521 19.90410959 12 23 C8.72032242 24.63983879 5.62861311 24.17845638 2 24 C2.061875 25.258125 2.12375 26.51625 2.1875 27.8125 C2.16934383 30.37705844 2.1515987 31.71463773 0.9375 34 C-2.13215135 35.58433618 -4.61681143 35.36248449 -8 35 C-9.9375 34 -9.9375 34 -11 32 C-11.23595284 29.28117977 -11.13477523 26.74042978 -11 24 C-12.258125 24.061875 -13.51625 24.12375 -14.8125 24.1875 C-17.37705844 24.16934383 -18.71463773 24.1515987 -21 22.9375 C-22.58433618 19.86784865 -22.36248449 17.38318857 -22 14 C-20.45737187 11.89641619 -19.31891683 11.15945841 -17 10 C-15.00039988 9.960008 -12.99952758 9.95653201 -11 10 C-11.04125 8.906875 -11.0825 7.81375 -11.125 6.6875 C-11 3 -11 3 -9 0 C-5.47955362 -1.17348213 -3.57539179 -0.83679382 0 0 Z " fill="#FC647D" transform="translate(447,332)"/>
<path d="M0 0 C3.92809458 0.62492414 5.82700585 2.82546267 8.75 5.4375 C14.04508191 8.85406061 20.72658116 8.11647913 26.75 7.4375 C30.80997989 5.81229972 33.68475952 3.50274048 36.75 0.4375 C39.25 0.1875 39.25 0.1875 41.75 0.4375 C43.75 2.4375 43.75 2.4375 44.375 5.125 C43.39188278 10.33552128 39.98589566 12.52532173 35.75 15.4375 C28.74282784 19.87954664 19.70978663 19.15597973 11.75 18.4375 C5.68313073 16.93352821 -0.34353902 13.39382237 -4.25 8.4375 C-4.8125 5.1875 -4.8125 5.1875 -4.25 2.4375 C-2.25 0.4375 -2.25 0.4375 0 0 Z " fill="#060504" transform="translate(238.25,245.5625)"/>
<path d="M0 0 C2.65575068 1.32787534 2.71586616 2.51045246 3.75 5.25 C6.35323401 11.30179862 9.8237094 14.159712 15.875 16.8125 C16.90625 17.204375 17.9375 17.59625 19 18 C19 18.66 19 19.32 19 20 C18.41992188 20.20753906 17.83984375 20.41507813 17.2421875 20.62890625 C8.85818897 23.93546673 4.61825024 28.75843 1 37 C0.34 37 -0.32 37 -1 37 C-1.21914062 36.40832031 -1.43828125 35.81664062 -1.6640625 35.20703125 C-5.19728415 26.40270249 -10.62132609 22.90041717 -19 19 C-16.79444226 16.79444226 -15.03659824 16.09665232 -12.1875 14.875 C-6.82838094 12.26890603 -4.522467 9.28667043 -2 4 C-1.62875 3.25878906 -1.2575 2.51757812 -0.875 1.75390625 C-0.58625 1.17511719 -0.2975 0.59632813 0 0 Z " fill="#F5C84B" transform="translate(103,128)"/>
<path d="M0 0 C10.56 0 21.12 0 32 0 C32 1.32 32 2.64 32 4 C31.2575 4.226875 30.515 4.45375 29.75 4.6875 C26.23320731 6.36596924 24.92130653 7.58434395 23 11 C21.96346486 17.79506368 23.21149297 21.4934836 26 28 C20.39 28 14.78 28 9 28 C8.9175 25.69 8.835 23.38 8.75 21 C8.42390489 14.74490298 7.28978848 10.34590628 4 5 C3.67 4.01 3.34 3.02 3 2 C2.01 1.67 1.02 1.34 0 1 C0 0.67 0 0.34 0 0 Z " fill="#F5CDB1" transform="translate(113,448)"/>
<path d="M0 0 C0.69891357 -0.00287018 1.39782715 -0.00574036 2.11791992 -0.00869751 C3.59392101 -0.01073675 5.06994921 -0.00521653 6.54589844 0.00732422 C8.80465138 0.0233817 11.06161518 0.0074728 13.3203125 -0.01171875 C14.75521228 -0.00973629 16.19011095 -0.00589256 17.625 0 C18.93082031 0.00338379 20.23664063 0.00676758 21.58203125 0.01025391 C24.8125 0.3984375 24.8125 0.3984375 26.7421875 1.76318359 C28.25835326 4.07962481 28.15956785 5.69130825 27.8125 8.3984375 C25.32399326 10.88694424 23.8503994 10.6445608 20.45336914 10.67633057 C19.72625732 10.6722821 18.99914551 10.66823364 18.25 10.6640625 C17.12936157 10.66693268 17.12936157 10.66693268 15.98608398 10.66986084 C14.40575829 10.67122248 12.82542142 10.6675275 11.24511719 10.65917969 C8.82201078 10.6484795 6.39964577 10.65907529 3.9765625 10.671875 C2.44270669 10.6705534 0.90885135 10.667991 -0.625 10.6640625 C-1.35211182 10.66811096 -2.07922363 10.67215942 -2.82836914 10.67633057 C-7.95757639 10.62836111 -7.95757639 10.62836111 -10.1875 8.3984375 C-10.53456785 5.69130825 -10.63335326 4.07962481 -9.1171875 1.76318359 C-6.15773801 -0.32984812 -3.58552414 0.00929122 0 0 Z " fill="#070707" transform="translate(247.1875,371.6015625)"/>
<path d="M0 0 C3.5060303 0.86943897 4.94966563 2.56083702 6.9375 5.48046875 C7.62901325 9.78321784 7.45307405 11.68992187 5.0625 15.35546875 C2.55083682 17.86713193 1.64365837 18.40200671 -1.875 18.79296875 C-5.7932645 18.40882517 -7.27543267 17.18790558 -10.0625 14.48046875 C-11.63185594 11.34175687 -11.41451103 8.94191053 -11.0625 5.48046875 C-8.01136975 0.99912119 -5.26455839 -0.36891792 0 0 Z " fill="#060504" transform="translate(290.0625,203.51953125)"/>
<path d="M0 0 C3.5060303 0.86943897 4.94966563 2.56083702 6.9375 5.48046875 C7.62901325 9.78321784 7.45307405 11.68992187 5.0625 15.35546875 C2.55083682 17.86713193 1.64365837 18.40200671 -1.875 18.79296875 C-5.7932645 18.40882517 -7.27543267 17.18790558 -10.0625 14.48046875 C-11.63185594 11.34175687 -11.41451103 8.94191053 -11.0625 5.48046875 C-8.01136975 0.99912119 -5.26455839 -0.36891792 0 0 Z " fill="#060504" transform="translate(228.0625,203.51953125)"/>
<path d="M0 0 C3 1 3 1 4.6875 4.3125 C7.02343781 8.76452265 10.45500204 10.2239207 15 12 C14 14 14 14 11.1875 15.3125 C6.51300872 17.78723068 4.12070939 21.22840388 2 26 C0 25 0 25 -1.25 22.1875 C-3.77394329 17.59031757 -7.09277091 15.63574303 -12 14 C-12 13.34 -12 12.68 -12 12 C-9.0173094 10.47551369 -6.181798 9.06059933 -3 8 C-1.81608777 5.62374655 -1.81608777 5.62374655 -1 3 C-0.67 2.01 -0.34 1.02 0 0 Z " fill="#6ED6F9" transform="translate(325,0)"/>
<path d="M0 0 C2 1.625 2 1.625 3 4 C2.93439072 7.739729 2.76345433 10.0603639 0.375 13 C-3.14974145 14.48410166 -5.36810976 14.05654989 -9 13 C-11.58094937 10.17708663 -12.01389559 8.69477972 -11.9375 4.875 C-11 2 -11 2 -9.375 0.0625 C-5.88680246 -1.49800943 -3.63567102 -0.99154664 0 0 Z " fill="#F5C84B" transform="translate(434,405)"/>
<path d="M0 0 C2 1.625 2 1.625 3 4 C2.93439072 7.739729 2.76345433 10.0603639 0.375 13 C-3.14974145 14.48410166 -5.36810976 14.05654989 -9 13 C-11.58094937 10.17708663 -12.01389559 8.69477972 -11.9375 4.875 C-11 2 -11 2 -9.375 0.0625 C-5.88680246 -1.49800943 -3.63567102 -0.99154664 0 0 Z " fill="#87D146" transform="translate(138,87)"/>
</svg>
