<?xml version="1.0" encoding="UTF-8"?>
<svg version="1.1" xmlns="http://www.w3.org/2000/svg" width="512" height="512">
<path d="M0 0 C0.77450255 -0.00453111 1.54900509 -0.00906223 2.34697741 -0.01373065 C4.93854775 -0.02637656 7.52990799 -0.02475416 10.12150574 -0.02310181 C11.98116323 -0.02908696 13.84081823 -0.03589248 15.70046997 -0.04345703 C20.75015006 -0.0611261 25.79976237 -0.06581281 30.84947038 -0.0670886 C34.00528242 -0.06851031 37.16107723 -0.07278028 40.31688499 -0.07808304 C51.32924366 -0.09658668 62.34155391 -0.10475328 73.35392761 -0.10317993 C83.61441715 -0.10197861 93.87469631 -0.1230783 104.13513261 -0.15466726 C112.94803443 -0.18083149 121.76086754 -0.19154716 130.5738079 -0.19026911 C135.83567588 -0.1897595 141.09735692 -0.19544229 146.35918617 -0.21662521 C151.30949381 -0.23600985 156.25943622 -0.23613043 161.20975685 -0.22159195 C163.02375828 -0.219503 164.83778258 -0.22420986 166.65174484 -0.23631287 C169.13422338 -0.25179982 171.61544795 -0.24243529 174.09790039 -0.22705078 C175.16675066 -0.24248147 175.16675066 -0.24248147 176.25719386 -0.25822389 C182.6496288 -0.17108016 187.72519172 2.06418569 192.48161316 6.23226929 C193.02044128 6.88324585 193.55926941 7.53422241 194.11442566 8.20492554 C194.66872253 8.85332397 195.22301941 9.50172241 195.79411316 10.16976929 C199.21784456 15.13880648 199.53023354 19.73537945 199.5068512 25.63542175 C199.51138231 26.47526114 199.51591342 27.31510052 199.52058184 28.18038958 C199.5332367 30.99306761 199.53160477 33.80555228 199.529953 36.61825562 C199.53593759 38.63554636 199.54274297 40.65283481 199.55030823 42.67012024 C199.56798292 48.14953764 199.57266424 53.62889258 199.5739398 59.10833573 C199.57583906 63.68332857 199.58319695 68.25830686 199.59028399 72.83329409 C199.60657127 83.62815855 199.61145265 94.42298965 199.61003113 105.21786499 C199.60882971 116.35085282 199.62993084 127.48364678 199.66151845 138.61658555 C199.68767657 148.17682647 199.69839861 157.73700406 199.69712031 167.29728049 C199.69661052 173.0062734 199.70230295 178.71509404 199.72347641 184.42405128 C199.74285072 189.794587 199.7429886 195.16478599 199.72844315 200.53533363 C199.72635294 202.50414014 199.73106856 204.47296767 199.74316406 206.44173813 C199.75863261 209.13437926 199.74929794 211.82586167 199.73390198 214.51847839 C199.7441891 215.29330041 199.75447623 216.06812243 199.76507509 216.8664239 C199.68257974 223.4177708 197.60275251 228.57050782 193.27458191 233.50961304 C192.62360535 234.04844116 191.97262878 234.58726929 191.30192566 235.14242554 C190.65352722 235.69672241 190.00512878 236.25101929 189.33708191 236.82211304 C183.99571673 240.50238327 179.22595083 240.54631752 172.95109558 240.49447632 C172.02377625 240.49476837 171.09645691 240.49506042 170.14103699 240.49536133 C167.08389342 240.49397089 164.02699527 240.47842303 160.96989441 240.46273804 C158.84711846 240.45900689 156.72434079 240.4561604 154.6015625 240.4541626 C149.02023038 240.44653414 143.43900271 240.42689233 137.85771179 240.40475464 C132.16009433 240.3842793 126.46245995 240.37515726 120.76481628 240.36508179 C109.58963286 240.34364575 98.41455429 240.30846994 87.23942566 240.26742554 C87.73442566 252.14742554 87.73442566 252.14742554 88.23942566 264.26742554 C90.38442566 264.18492554 92.52942566 264.10242554 94.73942566 264.01742554 C102.28618514 264.04782537 106.72749519 264.98184997 112.23942566 270.13851929 C115.64561038 273.77132516 117.54885131 276.24109325 118.23942566 281.26742554 C118.89942566 280.93742554 119.55942566 280.60742554 120.23942566 280.26742554 C128.13948991 279.6350057 135.79912691 279.10656114 142.23942566 284.26742554 C146.49407359 288.24784811 149.4281404 291.36250117 150.23942566 297.26742554 C150.89942566 296.93742554 151.55942566 296.60742554 152.23942566 296.26742554 C160.13310073 295.63551716 167.80698305 295.1013251 174.23942566 300.26742554 C180.92132776 306.63050925 183.41605863 311.72885159 183.65489197 320.93208313 C183.67126709 321.95330765 183.68764221 322.97453217 183.70451355 324.02670288 C183.72889999 325.1121489 183.75328644 326.19759491 183.77841187 327.31593323 C183.98847397 337.36538075 184.10015947 347.41755284 184.18087101 357.46881676 C184.2358589 364.20537658 184.31887104 370.93875545 184.48088074 377.67367554 C184.63541417 384.20920925 184.71351675 390.74174688 184.74046135 397.27901077 C184.76287385 399.75002825 184.81076858 402.22097124 184.88650703 404.69092941 C185.39187344 422.07181076 182.21628439 432.55446738 171.61738586 446.45368958 C167.07636625 452.48799207 166.31642652 457.43703836 167.05192566 464.95492554 C167.15771604 467.04141766 167.24826765 469.12875437 167.32145691 471.21664429 C167.39598083 472.09667114 167.47050476 472.976698 167.54728699 473.88339233 C167.11910049 477.19920611 165.7893688 478.17450319 163.23942566 480.26742554 C160.88432312 480.7707901 160.88432312 480.7707901 158.22966003 480.77536011 C156.71553528 480.79227905 156.71553528 480.79227905 155.17082214 480.80953979 C154.0693988 480.80144287 152.96797546 480.79334595 151.83317566 480.78500366 C150.08629456 480.79551758 150.08629456 480.79551758 148.30412292 480.8062439 C144.44898232 480.82386986 140.59457392 480.81218394 136.73942566 480.79867554 C134.06428613 480.80136911 131.38916897 480.80524407 128.71403503 480.81027222 C123.10523016 480.81754751 117.49663603 480.80796425 111.88786316 480.78890991 C105.40524659 480.76714111 98.92313324 480.77419258 92.44052887 480.79621553 C86.87265976 480.81437313 81.30494207 480.81692619 75.73705292 480.80646086 C72.41246896 480.80022776 69.08817314 480.80095752 65.76359558 480.81260681 C62.05727409 480.82274302 58.35192459 480.80731038 54.64567566 480.78500366 C53.54425232 480.79310059 52.44282898 480.80119751 51.30802917 480.80953979 C50.29861267 480.7982605 49.28919617 480.7869812 48.24919128 480.77536011 C47.37315247 480.77385201 46.49711365 480.7723439 45.5945282 480.7707901 C42.46176445 480.1012132 41.25412882 478.69814972 39.23942566 476.26742554 C38.1664965 473.44015942 38.15655565 470.88964368 38.23942566 467.88851929 C38.30322166 458.04108267 38.16649681 451.26070709 30.98161316 443.88070679 C30.07669128 443.01832397 29.17176941 442.15594116 28.23942566 441.26742554 C26.12245733 439.08511868 24.08499325 436.84016397 22.05192566 434.57992554 C21.56554626 434.08830933 21.07916687 433.59669312 20.57804871 433.09017944 C17.01506378 429.18083503 15.1754332 424.90472574 13.39640808 419.97885132 C13.13716553 419.27380431 12.87792297 418.56875731 12.61082458 417.84234524 C9.91846841 410.47820801 7.36309826 403.06748942 4.83317566 395.64633179 C4.34068518 394.20769137 3.84796316 392.76913021 3.35502625 391.3306427 C2.07310815 387.58812162 0.79379879 383.84471476 -0.48475647 380.1010437 C-2.52531159 374.12755177 -4.56983703 368.15541807 -6.61455917 362.18335152 C-7.34711443 360.04240331 -8.07841759 357.90103052 -8.80955505 355.75959778 C-10.76878368 350.02740905 -12.73330624 344.29866952 -14.79328918 338.60165405 C-15.07909851 337.81004379 -15.36490784 337.01843353 -15.65937805 336.20283508 C-16.36279763 334.26940715 -17.07643929 332.33970559 -17.79133606 330.41049194 C-19.73964339 324.09247972 -19.99698713 318.78604418 -17.07307434 312.82992554 C-11.02038526 306.1228917 -4.8226488 303.87610059 4.11833191 302.97836304 C12.3653924 302.72601904 18.4395416 304.3054764 24.77433777 309.73544312 C27.36613092 312.44557509 28.80975446 315.63937454 30.36442566 319.01742554 C30.68540222 319.68258179 31.00637878 320.34773804 31.33708191 321.03305054 C33.7461157 326.06396448 35.97360122 331.16932055 38.23942566 336.26742554 C38.56942566 304.58742554 38.89942566 272.90742554 39.23942566 240.26742554 C23.72942566 240.26742554 8.21942566 240.26742554 -7.76057434 240.26742554 C-16.81125002 235.7420877 -16.81125002 235.7420877 -19.63557434 232.32992554 C-20.18987122 231.6815271 -20.74416809 231.03312866 -21.31526184 230.36508179 C-24.73899324 225.39604459 -25.05138222 220.79947162 -25.02799988 214.89942932 C-25.03253099 214.05958994 -25.0370621 213.21975055 -25.04173052 212.35446149 C-25.05438538 209.54178346 -25.05275345 206.7292988 -25.05110168 203.91659546 C-25.05708627 201.89930472 -25.06389165 199.88201627 -25.07145691 197.86473083 C-25.0891316 192.38531343 -25.09381292 186.90595849 -25.09508848 181.42651534 C-25.09698775 176.85152251 -25.10434563 172.27654422 -25.11143267 167.70155698 C-25.12771996 156.90669252 -25.13260133 146.11186142 -25.13117981 135.31698608 C-25.12997839 124.18399825 -25.15107952 113.05120429 -25.18266714 101.91826552 C-25.20882525 92.3580246 -25.21954729 82.79784702 -25.21826899 73.23757058 C-25.21775921 67.52857768 -25.22345163 61.81975703 -25.24462509 56.11079979 C-25.2639994 50.74026407 -25.26413728 45.37006508 -25.24959183 39.99951744 C-25.24750162 38.03071094 -25.25221724 36.0618834 -25.26431274 34.09311295 C-25.27978129 31.40047181 -25.27044662 28.7089894 -25.25505066 26.01637268 C-25.26533779 25.24155066 -25.27562491 24.46672864 -25.28622377 23.66842717 C-25.20372842 17.11708028 -23.12390119 11.96434326 -18.79573059 7.02523804 C-18.14475403 6.48640991 -17.49377747 5.94758179 -16.82307434 5.39242554 C-16.1746759 4.83812866 -15.52627747 4.28383179 -14.85823059 3.71273804 C-10.07458287 0.4167424 -5.68824464 -0.02449417 0 0 Z " fill="#231F20" transform="translate(296.7605743408203,15.732574462890625)"/>
<path d="M0 0 C0.77450255 -0.00453111 1.54900509 -0.00906223 2.34697741 -0.01373065 C4.93854775 -0.02637656 7.52990799 -0.02475416 10.12150574 -0.02310181 C11.98116323 -0.02908696 13.84081823 -0.03589248 15.70046997 -0.04345703 C20.75015006 -0.0611261 25.79976237 -0.06581281 30.84947038 -0.0670886 C34.00528242 -0.06851031 37.16107723 -0.07278028 40.31688499 -0.07808304 C51.32924366 -0.09658668 62.34155391 -0.10475328 73.35392761 -0.10317993 C83.61441715 -0.10197861 93.87469631 -0.1230783 104.13513261 -0.15466726 C112.94803443 -0.18083149 121.76086754 -0.19154716 130.5738079 -0.19026911 C135.83567588 -0.1897595 141.09735692 -0.19544229 146.35918617 -0.21662521 C151.30949381 -0.23600985 156.25943622 -0.23613043 161.20975685 -0.22159195 C163.02375828 -0.219503 164.83778258 -0.22420986 166.65174484 -0.23631287 C169.13422338 -0.25179982 171.61544795 -0.24243529 174.09790039 -0.22705078 C175.16675066 -0.24248147 175.16675066 -0.24248147 176.25719386 -0.25822389 C182.6496288 -0.17108016 187.72519172 2.06418569 192.48161316 6.23226929 C193.02044128 6.88324585 193.55926941 7.53422241 194.11442566 8.20492554 C194.66872253 8.85332397 195.22301941 9.50172241 195.79411316 10.16976929 C199.21784456 15.13880648 199.53023354 19.73537945 199.5068512 25.63542175 C199.51138231 26.47526114 199.51591342 27.31510052 199.52058184 28.18038958 C199.5332367 30.99306761 199.53160477 33.80555228 199.529953 36.61825562 C199.53593759 38.63554636 199.54274297 40.65283481 199.55030823 42.67012024 C199.56798292 48.14953764 199.57266424 53.62889258 199.5739398 59.10833573 C199.57583906 63.68332857 199.58319695 68.25830686 199.59028399 72.83329409 C199.60657127 83.62815855 199.61145265 94.42298965 199.61003113 105.21786499 C199.60882971 116.35085282 199.62993084 127.48364678 199.66151845 138.61658555 C199.68767657 148.17682647 199.69839861 157.73700406 199.69712031 167.29728049 C199.69661052 173.0062734 199.70230295 178.71509404 199.72347641 184.42405128 C199.74285072 189.794587 199.7429886 195.16478599 199.72844315 200.53533363 C199.72635294 202.50414014 199.73106856 204.47296767 199.74316406 206.44173813 C199.75863261 209.13437926 199.74929794 211.82586167 199.73390198 214.51847839 C199.7441891 215.29330041 199.75447623 216.06812243 199.76507509 216.8664239 C199.68257974 223.4177708 197.60275251 228.57050782 193.27458191 233.50961304 C192.62360535 234.04844116 191.97262878 234.58726929 191.30192566 235.14242554 C190.65352722 235.69672241 190.00512878 236.25101929 189.33708191 236.82211304 C184.55343419 240.11810867 180.16709596 240.55934525 174.47885132 240.53485107 C173.70434877 240.53938219 172.92984623 240.5439133 172.13187391 240.54858172 C169.54030357 240.56122764 166.94894333 240.55960523 164.35734558 240.55795288 C162.49768809 240.56393803 160.63803308 240.57074355 158.77838135 240.57830811 C153.72870126 240.59597718 148.67908895 240.60066389 143.62938094 240.60193968 C140.4735689 240.60336138 137.31777409 240.60763136 134.16196632 240.61293411 C123.14960766 240.63143776 112.13729741 240.63960435 101.12492371 240.63803101 C90.86443417 240.63682968 80.60415501 240.65792937 70.34371871 240.68951833 C61.53081689 240.71568257 52.71798378 240.72639823 43.90504342 240.72512019 C38.64317544 240.72461058 33.3814944 240.73029336 28.11966515 240.75147629 C23.16935751 240.77086093 18.21941509 240.77098151 13.26909447 240.75644302 C11.45509304 240.75435408 9.64106873 240.75906094 7.82710648 240.77116394 C5.34462794 240.78665089 2.86340337 240.77728637 0.38095093 240.76190186 C-0.33161592 240.77218898 -1.04418276 240.78247611 -1.77834255 240.79307497 C-8.17077749 240.70593124 -13.2463404 238.47066538 -18.00276184 234.30258179 C-18.81100403 233.32611694 -18.81100403 233.32611694 -19.63557434 232.32992554 C-20.18987122 231.6815271 -20.74416809 231.03312866 -21.31526184 230.36508179 C-24.73899324 225.39604459 -25.05138222 220.79947162 -25.02799988 214.89942932 C-25.03253099 214.05958994 -25.0370621 213.21975055 -25.04173052 212.35446149 C-25.05438538 209.54178346 -25.05275345 206.7292988 -25.05110168 203.91659546 C-25.05708627 201.89930472 -25.06389165 199.88201627 -25.07145691 197.86473083 C-25.0891316 192.38531343 -25.09381292 186.90595849 -25.09508848 181.42651534 C-25.09698775 176.85152251 -25.10434563 172.27654422 -25.11143267 167.70155698 C-25.12771996 156.90669252 -25.13260133 146.11186142 -25.13117981 135.31698608 C-25.12997839 124.18399825 -25.15107952 113.05120429 -25.18266714 101.91826552 C-25.20882525 92.3580246 -25.21954729 82.79784702 -25.21826899 73.23757058 C-25.21775921 67.52857768 -25.22345163 61.81975703 -25.24462509 56.11079979 C-25.2639994 50.74026407 -25.26413728 45.37006508 -25.24959183 39.99951744 C-25.24750162 38.03071094 -25.25221724 36.0618834 -25.26431274 34.09311295 C-25.27978129 31.40047181 -25.27044662 28.7089894 -25.25505066 26.01637268 C-25.26533779 25.24155066 -25.27562491 24.46672864 -25.28622377 23.66842717 C-25.20372842 17.11708028 -23.12390119 11.96434326 -18.79573059 7.02523804 C-18.14475403 6.48640991 -17.49377747 5.94758179 -16.82307434 5.39242554 C-16.1746759 4.83812866 -15.52627747 4.28383179 -14.85823059 3.71273804 C-10.07458287 0.4167424 -5.68824464 -0.02449417 0 0 Z " fill="#56A3FE" transform="translate(40.76057434082031,15.732574462890625)"/>
<path d="M0 0 C0.77450255 -0.00453111 1.54900509 -0.00906223 2.34697741 -0.01373065 C4.93854775 -0.02637656 7.52990799 -0.02475416 10.12150574 -0.02310181 C11.98116323 -0.02908696 13.84081823 -0.03589248 15.70046997 -0.04345703 C20.75015006 -0.0611261 25.79976237 -0.06581281 30.84947038 -0.0670886 C34.00528242 -0.06851031 37.16107723 -0.07278028 40.31688499 -0.07808304 C51.32924366 -0.09658668 62.34155391 -0.10475328 73.35392761 -0.10317993 C83.61441715 -0.10197861 93.87469631 -0.1230783 104.13513261 -0.15466726 C112.94803443 -0.18083149 121.76086754 -0.19154716 130.5738079 -0.19026911 C135.83567588 -0.1897595 141.09735692 -0.19544229 146.35918617 -0.21662521 C151.30949381 -0.23600985 156.25943622 -0.23613043 161.20975685 -0.22159195 C163.02375828 -0.219503 164.83778258 -0.22420986 166.65174484 -0.23631287 C169.13422338 -0.25179982 171.61544795 -0.24243529 174.09790039 -0.22705078 C175.16675066 -0.24248147 175.16675066 -0.24248147 176.25719386 -0.25822389 C182.6496288 -0.17108016 187.72519172 2.06418569 192.48161316 6.23226929 C193.02044128 6.88324585 193.55926941 7.53422241 194.11442566 8.20492554 C194.66872253 8.85332397 195.22301941 9.50172241 195.79411316 10.16976929 C199.09010879 14.953417 199.53134537 19.33975524 199.5068512 25.02799988 C199.51138231 25.80250242 199.51591342 26.57700497 199.52058184 27.37497729 C199.53322776 29.96654763 199.53160535 32.55790786 199.529953 35.14950562 C199.53593816 37.00916311 199.54274367 38.86881811 199.55030823 40.72846985 C199.5679773 45.77814994 199.57266401 50.82776224 199.5739398 55.87747025 C199.5753615 59.0332823 199.57963148 62.18907711 199.58493423 65.34488487 C199.60343788 76.35724354 199.61160447 87.36955379 199.61003113 98.38192749 C199.60882981 108.64241703 199.6299295 118.90269618 199.66151845 129.16313249 C199.68768269 137.97603431 199.69839835 146.78886742 199.69712031 155.60180777 C199.6966107 160.86367576 199.70229348 166.1253568 199.72347641 171.38718605 C199.74286105 176.33749369 199.74298163 181.2874361 199.72844315 186.23775673 C199.7263542 188.05175816 199.73106106 189.86578246 199.74316406 191.67974472 C199.75865101 194.16222326 199.74928649 196.64344783 199.73390198 199.12590027 C199.7441891 199.83846711 199.75447623 200.55103396 199.76507509 201.28519374 C199.67793136 207.67762868 197.44266551 212.7531916 193.27458191 217.50961304 C192.62360535 218.04844116 191.97262878 218.58726929 191.30192566 219.14242554 C190.65352722 219.69672241 190.00512878 220.25101929 189.33708191 220.82211304 C184.55343419 224.11810867 180.16709596 224.55934525 174.47885132 224.53485107 C173.70434877 224.53938219 172.92984623 224.5439133 172.13187391 224.54858172 C169.54030357 224.56122764 166.94894333 224.55960523 164.35734558 224.55795288 C162.49768809 224.56393803 160.63803308 224.57074355 158.77838135 224.57830811 C153.72870126 224.59597718 148.67908895 224.60066389 143.62938094 224.60193968 C140.4735689 224.60336138 137.31777409 224.60763136 134.16196632 224.61293411 C123.14960766 224.63143776 112.13729741 224.63960435 101.12492371 224.63803101 C90.86443417 224.63682968 80.60415501 224.65792937 70.34371871 224.68951833 C61.53081689 224.71568257 52.71798378 224.72639823 43.90504342 224.72512019 C38.64317544 224.72461058 33.3814944 224.73029336 28.11966515 224.75147629 C23.16935751 224.77086093 18.21941509 224.77098151 13.26909447 224.75644302 C11.45509304 224.75435408 9.64106873 224.75906094 7.82710648 224.77116394 C5.34462794 224.78665089 2.86340337 224.77728637 0.38095093 224.76190186 C-0.33161592 224.77218898 -1.04418276 224.78247611 -1.77834255 224.79307497 C-8.17077749 224.70593124 -13.2463404 222.47066538 -18.00276184 218.30258179 C-18.81100403 217.32611694 -18.81100403 217.32611694 -19.63557434 216.32992554 C-20.18987122 215.6815271 -20.74416809 215.03312866 -21.31526184 214.36508179 C-24.61125747 209.58143407 -25.05249405 205.19509583 -25.02799988 199.5068512 C-25.03253099 198.73234865 -25.0370621 197.9578461 -25.04173052 197.15987378 C-25.05437644 194.56830345 -25.05275403 191.97694321 -25.05110168 189.38534546 C-25.05708684 187.52568797 -25.06389235 185.66603296 -25.07145691 183.80638123 C-25.08912598 178.75670114 -25.09381269 173.70708883 -25.09508848 168.65738082 C-25.09651019 165.50156878 -25.10078016 162.34577396 -25.10608292 159.1899662 C-25.12458656 148.17760753 -25.13275315 137.16529728 -25.13117981 126.15292358 C-25.12997849 115.89243404 -25.15107818 105.63215489 -25.18266714 95.37171859 C-25.20883137 86.55881677 -25.21954703 77.74598366 -25.21826899 68.9330433 C-25.21775938 63.67117532 -25.22344217 58.40949428 -25.24462509 53.14766502 C-25.26400973 48.19735739 -25.26413031 43.24741497 -25.24959183 38.29709435 C-25.24750288 36.48309291 -25.25220974 34.66906861 -25.26431274 32.85510635 C-25.2797997 30.37262782 -25.27043517 27.89140325 -25.25505066 25.40895081 C-25.26533779 24.69638396 -25.27562491 23.98381711 -25.28622377 23.24965733 C-25.19908004 16.85722239 -22.96381419 11.78165948 -18.79573059 7.02523804 C-18.14475403 6.48640991 -17.49377747 5.94758179 -16.82307434 5.39242554 C-16.1746759 4.83812866 -15.52627747 4.28383179 -14.85823059 3.71273804 C-10.07458287 0.4167424 -5.68824464 -0.02449417 0 0 Z " fill="#56A3FE" transform="translate(40.76057434082031,271.7325744628906)"/>
<path d="M0 0 C0.73986727 -0.00638882 1.47973454 -0.01277764 2.24202204 -0.01936007 C4.716711 -0.03459874 7.18979597 -0.01415803 9.66442871 0.00622559 C11.44028758 0.00272403 13.21614331 -0.00293495 14.99198914 -0.0105896 C19.81233119 -0.02484227 24.63210312 -0.00777134 29.45239067 0.01569557 C34.49625313 0.03579624 39.54009172 0.02992542 44.58398438 0.02758789 C53.05441699 0.02764147 61.5246266 0.04740347 69.99499512 0.07946777 C79.78860712 0.11636091 89.58192696 0.1251434 99.37559938 0.11817026 C108.79586515 0.1118655 118.2160307 0.12261908 127.63627625 0.14213562 C131.64574104 0.1503114 135.65515464 0.15301883 139.66462708 0.15144348 C144.38592849 0.15056468 149.10695217 0.16477968 153.82818031 0.19067001 C155.56118231 0.19783351 157.29421386 0.19991455 159.0272274 0.19655228 C161.39239519 0.19283876 163.75675188 0.20757984 166.12182617 0.22705078 C166.80811301 0.22172286 167.49439984 0.21639493 168.20148325 0.21090555 C172.47091411 0.27157191 175.15680272 1.02426432 178.56091309 3.62145996 C180.09947178 6.69857735 179.70521873 9.93039776 179.70135498 13.3072052 C179.7043261 14.10984604 179.70729722 14.91248687 179.71035838 15.73945016 C179.71906872 18.44402698 179.7205556 21.14855966 179.7220459 23.85314941 C179.72667243 25.78619482 179.73169686 27.7192393 179.73709106 29.65228271 C179.75023315 34.91472852 179.75666357 40.17716155 179.76110172 45.43962121 C179.76402959 48.72520829 179.76813385 52.01079186 179.7726059 55.29637718 C179.78628571 65.5698426 179.79594994 75.84330001 179.79980779 86.1167739 C179.80428961 97.98775047 179.82184127 109.85861195 179.85080838 121.72955352 C179.87240497 130.89732676 179.88251099 140.06506757 179.88384891 149.23286599 C179.8848984 154.71207007 179.89083692 160.19116604 179.90866852 165.6703434 C179.92511418 170.82409456 179.92732176 175.97765595 179.91852951 181.13142395 C179.91775725 183.02408544 179.92212666 184.91675698 179.93198776 186.80939293 C179.94465272 189.39141081 179.93886033 191.97275104 179.92840576 194.55476379 C179.94049037 195.68064635 179.94049037 195.68064635 179.95281911 196.829274 C179.91093273 201.24652158 179.36653122 204.15208048 176.56091309 207.62145996 C172.67715593 208.91604568 169.00531191 208.75249777 164.95861816 208.73498535 C164.08035873 208.73513138 163.2020993 208.7352774 162.29722595 208.73542786 C159.39160704 208.73473068 156.48605207 208.72694735 153.58044434 208.71911621 C151.56691015 208.71725134 149.5533755 208.71582776 147.5398407 208.71482849 C142.23799387 208.71100876 136.93617439 208.70118308 131.63433838 208.69012451 C126.22510142 208.67989873 120.81586005 208.67532836 115.40661621 208.67028809 C104.79136981 208.65956035 94.17614372 208.64249042 83.56091309 208.62145996 C83.50250244 207.72797852 83.4440918 206.83449707 83.38391113 205.91394043 C83.30181396 204.74234375 83.2197168 203.57074707 83.13513184 202.36364746 C83.05609619 201.20204102 82.97706055 200.04043457 82.89562988 198.84362793 C82.15528031 191.71661578 78.75294633 186.47406246 73.56091309 181.62145996 C67.2068375 177.80901461 60.89845182 176.67468077 53.56091309 177.62145996 C46.83362778 180.08317951 42.01713952 184.02893574 38.63122559 190.35974121 C36.8361832 194.48833871 36.31261436 198.41781123 35.98278809 202.89489746 C35.90125488 203.96916992 35.81972168 205.04344238 35.73571777 206.15026855 C35.67803223 206.96576172 35.62034668 207.78125488 35.56091309 208.62145996 C29.51032189 208.69562801 23.45999543 208.75007083 17.40905762 208.78625488 C15.3507425 208.80133946 13.29245951 208.82180984 11.23425293 208.84777832 C8.27535065 208.88417582 5.31687341 208.90118962 2.35778809 208.91442871 C0.97789703 208.9376545 0.97789703 208.9376545 -0.42987061 208.96134949 C-6.78465997 208.9630227 -6.78465997 208.9630227 -9.9888916 207.29064941 C-13.14252259 203.6607883 -12.58999794 199.34557876 -12.59298706 194.81546021 C-12.59736931 194.01196494 -12.60175157 193.20846968 -12.60626662 192.38062608 C-12.61965728 189.67916341 -12.62583402 186.97773335 -12.63195801 184.27624512 C-12.63985859 182.34305168 -12.64812752 180.40985972 -12.65673828 178.47666931 C-12.68295752 172.12130136 -12.69826314 165.76592681 -12.71252441 159.41052246 C-12.71788362 157.22423676 -12.72326113 155.03795111 -12.72865677 152.8516655 C-12.75028294 143.76021458 -12.76902138 134.66876544 -12.78027916 125.5772953 C-12.79653077 112.53806629 -12.82974105 99.49913468 -12.88668001 86.4600178 C-12.92533497 77.29647297 -12.94490643 68.13300784 -12.95019972 58.9693836 C-12.9538585 53.49345773 -12.96593615 48.01784906 -12.99830246 42.54201126 C-13.02830577 37.39226112 -13.03472256 32.24302141 -13.0229187 27.09320259 C-13.02269734 25.20213865 -13.03105424 23.31105155 -13.04857254 21.42006874 C-13.07117661 18.83990259 -13.06301109 16.26160127 -13.04708862 13.681427 C-13.06097071 12.93152075 -13.0748528 12.18161451 -13.08915555 11.40898383 C-13.03230805 7.67540674 -12.52171712 5.73963849 -10.36602974 2.65655327 C-6.82186867 0.19231023 -4.17065109 -0.07607253 0 0 Z " fill="#9AC8FE" transform="translate(300.4390869140625,31.3785400390625)"/>
<path d="M0 0 C3.08670421 0.64306338 4.7856568 1.45187234 6.95054054 3.75480461 C9.38452826 8.09230672 8.67428921 13.50900251 8.62768555 18.33813477 C8.63495667 19.62966461 8.64222778 20.92119446 8.64971924 22.25186157 C8.66526383 25.05558454 8.66512576 27.85870955 8.65271568 30.66244698 C8.63315885 35.09578322 8.64838001 39.52858868 8.66816711 43.9618988 C8.6953025 50.97292834 8.69881044 57.98374123 8.69239408 64.99481291 C8.68144922 77.5534574 8.70604332 90.11203685 8.74614173 102.67061466 C8.75921714 107.07764716 8.76046938 111.48448136 8.7520088 115.89152348 C8.74925757 117.9719831 8.75089199 120.05238526 8.75439453 122.13284302 C8.7583557 124.66939762 8.75506735 127.20597781 8.74324036 129.74250793 C8.74717804 130.85986328 8.75111572 131.97721863 8.75517273 133.12843323 C8.75420939 134.0990397 8.75324606 135.06964617 8.75225353 136.06966496 C9.01231966 138.75206885 9.54448234 140.37034816 11 142.625 C13.77100394 144.01050197 15.9334706 143.8127467 19 143.625 C22.24849977 141.90273504 22.24849977 141.90273504 23 138.625 C23.09200196 136.6731025 23.12512411 134.7182245 23.12597656 132.76416016 C23.12978333 131.55925934 23.13359009 130.35435852 23.13751221 129.11294556 C23.13853943 127.80981415 23.13956665 126.50668274 23.140625 125.1640625 C23.15255313 123.12000049 23.16791972 121.07598078 23.18333054 119.03194237 C23.22131201 113.98773388 23.25261521 108.943782 23.25048828 103.89941406 C23.24970028 100.38779891 23.27309831 96.87705945 23.3123703 93.36567307 C23.32788568 91.38215766 23.31749626 89.39849422 23.30670166 87.41494751 C23.44248453 77.39625401 23.44248453 77.39625401 26.35449219 74.30615234 C29.64752908 72.21351188 31.17246495 71.82759686 35 72.625 C37.59225617 74.27309648 38.57342876 74.99631557 40 77.625 C40.75319866 82.18209411 40.67302532 86.7065821 40.63671875 91.31640625 C40.64476412 92.66732934 40.65528527 94.01823974 40.66816711 95.36912537 C40.6966663 98.91706639 40.69729979 102.46442265 40.69030762 106.01245117 C40.68297357 111.6941082 40.71436453 117.37557725 40.75275612 123.05708122 C40.76159168 125.03791782 40.75550032 127.0188028 40.74919128 128.99964905 C40.75292252 130.20447433 40.75665375 131.40929962 40.76049805 132.65063477 C40.75874069 133.71032974 40.75698334 134.77002472 40.75517273 135.86183167 C41.0030497 138.65941953 41.46638164 140.29133742 43 142.625 C45.77100394 144.01050197 47.9334706 143.8127467 51 143.625 C54.24849977 141.90273504 54.24849977 141.90273504 55 138.625 C55.08946855 137.16310315 55.12510409 135.69754194 55.12597656 134.23291016 C55.12978333 133.34834137 55.13359009 132.46377258 55.13751221 131.55239868 C55.13853943 130.59924774 55.13956665 129.6460968 55.140625 128.6640625 C55.15894989 126.64582202 55.1785199 124.62759253 55.19921875 122.609375 C55.22820997 119.42721981 55.25000065 116.24577251 55.25048828 113.06347656 C55.25382145 109.99219947 55.28835986 106.92255607 55.328125 103.8515625 C55.3210553 102.90246002 55.3139856 101.95335754 55.30670166 100.97549438 C55.39136646 96.38068874 55.50254332 94.27998806 58.35449219 90.52490234 C61 88.625 61 88.625 64 88 C68.17147085 88.86905643 69.42327675 90.23153438 72 93.625 C72.72267023 97.02226399 72.67408238 100.35353363 72.63671875 103.81640625 C72.64709671 104.79866684 72.65747467 105.78092743 72.66816711 106.79295349 C72.69783004 109.92482617 72.69447547 113.05551231 72.6875 116.1875 C72.69639391 119.32272505 72.71234848 122.45763304 72.7389679 125.59275818 C72.75387726 127.54148546 72.75768961 129.49033639 72.74919128 131.43910217 C72.75292252 132.32359543 72.75665375 133.20808868 72.76049805 134.11938477 C72.75874069 134.89484146 72.75698334 135.67029816 72.75517273 136.46925354 C73.03495796 138.93281089 73.69220476 140.52681443 75 142.625 C77.77100394 144.01050197 79.9334706 143.8127467 83 143.625 C86.24849977 141.90273504 86.24849977 141.90273504 87 138.625 C87.09274376 136.47284149 87.13170518 134.31819993 87.140625 132.1640625 C87.15996094 130.88789063 87.17929687 129.61171875 87.19921875 128.296875 C87.22816663 126.27346725 87.24999972 124.25116729 87.25048828 122.22753906 C87.25383425 120.26871211 87.29061397 118.31003311 87.328125 116.3515625 C87.34214355 114.59706787 87.34214355 114.59706787 87.35644531 112.80712891 C88.18569544 108.70680788 89.7755256 107.20731717 93 104.625 C96 104 96 104 99 104.625 C101.76629251 106.64320204 103.67804965 108.27095404 104.4923172 111.69556808 C104.72332263 114.29531754 104.78993904 116.85625211 104.80566406 119.46630859 C104.84290085 120.94817406 104.84290085 120.94817406 104.88088989 122.4599762 C104.95393157 125.73130855 104.98801687 129.00142317 105.015625 132.2734375 C105.03683033 133.96112684 105.03683033 133.96112684 105.05846405 135.68291092 C105.1334599 141.65520331 105.17956096 147.62689266 105.20117188 153.59960938 C105.22299837 158.50289072 105.2920152 163.40172309 105.40625 168.30371094 C106.48575193 215.44671095 106.48575193 215.44671095 96.484375 228.2890625 C95.10176319 229.73439028 93.71865099 231.1792396 92.33496094 232.62353516 C87.29343888 239.26280339 87.29343888 239.26280339 88 256.625 C56.32 256.625 24.64 256.625 -8 256.625 C-8.33 251.015 -8.66 245.405 -9 239.625 C-10.96777742 236.06172738 -12.24755014 234.39300042 -15 231.625 C-16.4911006 229.90972604 -17.95398875 228.17217098 -19.41870117 226.43432617 C-20.93323291 224.641534 -22.46276799 222.86318573 -24 221.08984375 C-24.69731735 220.27451675 -24.69731735 220.27451675 -25.40872192 219.44271851 C-26.40257693 218.30743696 -27.4206951 217.19243984 -28.47267151 216.11079407 C-32.91604235 211.39168124 -34.8296318 206.63254396 -36.77734375 200.515625 C-37.10594391 199.53121429 -37.43454407 198.54680359 -37.77310181 197.53256226 C-38.84288688 194.31811986 -39.89012302 191.09680552 -40.9375 187.875 C-42.05105649 184.50874395 -43.17019541 181.14437625 -44.28959656 177.78005981 C-45.05266653 175.48534519 -45.8138113 173.18998951 -46.57307434 170.89401245 C-49.12139315 163.2013296 -51.74902487 155.54045935 -54.4453125 147.8984375 C-54.97104607 146.40703247 -54.97104607 146.40703247 -55.50740051 144.88549805 C-56.85351191 141.07255292 -58.20223922 137.26058621 -59.56002808 133.45178223 C-60.48407816 130.85770215 -61.40080774 128.26113508 -62.31640625 125.6640625 C-62.72761215 124.52219986 -62.72761215 124.52219986 -63.14712524 123.35726929 C-64.36697728 119.88212624 -65 117.35443006 -65 113.625 C-62.14606838 112.8336826 -59.46008427 112.38178457 -56.5 112.25 C-55.7471875 112.20101562 -54.994375 112.15203125 -54.21875 112.1015625 C-50.89587467 112.88548027 -49.96646341 114.9007345 -48 117.625 C-47.01296601 119.46981553 -46.0894924 121.34965429 -45.22265625 123.25390625 C-44.71524902 124.35879395 -44.2078418 125.46368164 -43.68505859 126.60205078 C-43.14961426 127.78524902 -42.61416992 128.96844727 -42.0625 130.1875 C-41.49643468 131.42209277 -40.92952611 132.65629923 -40.36181641 133.89013672 C-37.95130424 139.13508742 -35.56086232 144.38912818 -33.17431641 149.64501953 C-31.69799904 152.89569365 -30.21394274 156.14274518 -28.72555542 159.38790894 C-27.8857941 161.22636887 -27.05620784 163.06920172 -26.22680664 164.91235352 C-25.46098267 166.58382446 -25.46098267 166.58382446 -24.6796875 168.2890625 C-24.23351074 169.27342285 -23.78733398 170.2577832 -23.32763672 171.27197266 C-22.07936697 173.89859028 -22.07936697 173.89859028 -19 175.625 C-14.92509248 175.96457563 -13.46998729 175.93832486 -10 173.625 C-8.86436172 170.21808516 -8.87530362 167.62733787 -8.87542725 164.03384399 C-8.87331202 163.02461162 -8.87331202 163.02461162 -8.87115407 161.99499071 C-8.867498 159.73573462 -8.87083891 157.47654117 -8.87402344 155.21728516 C-8.8726288 153.59935965 -8.87072957 151.98143451 -8.86836243 150.36351013 C-8.86386363 146.87677339 -8.8620093 143.39004843 -8.86190033 139.90330887 C-8.86076088 134.39045472 -8.84792945 128.87766767 -8.83233643 123.36483765 C-8.82976357 122.43480034 -8.82719072 121.50476302 -8.8245399 120.54654276 C-8.81927332 118.64467234 -8.81398784 116.74280197 -8.80868387 114.84093165 C-8.77355758 102.00494662 -8.74702375 89.16904489 -8.74951172 76.33300781 C-8.75109939 67.67652761 -8.73508684 59.02027597 -8.69880509 50.36386907 C-8.68032918 45.7822225 -8.67101639 41.20095762 -8.68328094 36.61928177 C-8.69470484 32.30989505 -8.68304455 28.00119211 -8.65364647 23.69189644 C-8.64699782 22.11047541 -8.64888657 20.52899194 -8.65994453 18.9475956 C-8.67379501 16.78761877 -8.6569517 14.62995739 -8.63250732 12.47012329 C-8.63104076 11.26186197 -8.6295742 10.05360065 -8.6280632 8.80872536 C-7.64569175 3.82897033 -4.97244897 1.03592687 0 0 Z " fill="#FEBBAA" transform="translate(360,223.375)"/>
<path d="M0 0 C1.25335648 -0.0112088 2.50671295 -0.0224176 3.79804993 -0.03396606 C5.17929541 -0.0210561 6.56053626 -0.00764202 7.94177246 0.00622559 C9.40236556 0.00272308 10.86295485 -0.00293697 12.3235321 -0.0105896 C16.28444302 -0.02482899 20.24465901 -0.00778496 24.20550346 0.01569557 C28.35249436 0.03581408 32.49945667 0.0299245 36.64648438 0.02758789 C43.61042735 0.02764145 50.5740989 0.04739183 57.53796387 0.07946777 C65.58658225 0.11636019 73.63484511 0.12514323 81.68353701 0.11817026 C89.4293882 0.11186269 97.1751176 0.12262425 104.92094421 0.14213562 C108.21589393 0.15030552 111.51078136 0.15301992 114.80574036 0.15144348 C118.68659242 0.15056384 122.56710719 0.16480184 126.44787025 0.19067001 C127.87125831 0.19782561 129.29468227 0.19991834 130.71808434 0.19655228 C132.6625838 0.19283137 134.60709037 0.20944302 136.55151367 0.22705078 C138.18302494 0.23264385 138.18302494 0.23264385 139.84749603 0.23834991 C143.1860126 0.67513452 145.07926517 1.63601755 147.77575684 3.62145996 C148.91128594 5.89251817 148.90601279 7.14082386 148.91619873 9.66267395 C148.92190887 10.50802704 148.92761902 11.35338013 148.9335022 12.22434998 C148.93517899 13.6184182 148.93517899 13.6184182 148.93688965 15.04064941 C148.94185455 16.01802063 148.94681946 16.99539185 148.95193481 18.00238037 C148.9665797 21.24650773 148.97336251 24.49058618 148.97888184 27.73474121 C148.98463162 29.98434959 148.99038937 32.23395795 148.99615479 34.48356628 C149.00667157 39.20555856 149.01250972 43.92753378 149.01599121 48.64953613 C149.02147562 54.70250032 149.04549984 60.75523951 149.07396317 66.80813313 C149.09258048 71.45695149 149.09779468 76.1057156 149.09932709 80.7545681 C149.10235647 82.98610857 149.11039457 85.21764802 149.12351227 87.44915199 C149.14055262 90.57097132 149.1386972 93.69224005 149.13220215 96.81408691 C149.14141693 97.73739304 149.15063171 98.66069916 149.16012573 99.61198425 C149.12898835 104.38568805 149.02060041 107.82259767 145.77575684 111.62145996 C142.53888557 112.70041705 140.19070441 112.75261528 136.78529358 112.76190186 C135.53324127 112.767612 134.28118896 112.77332214 132.99119568 112.77920532 C131.60110484 112.78045065 130.21101388 112.78157575 128.82092285 112.78259277 C127.35900751 112.78722134 125.89709339 112.79224605 124.43518066 112.79763794 C120.46207641 112.81075818 116.48898905 112.81720588 112.51586652 112.8216486 C110.03449542 112.82457925 107.55312895 112.828684 105.07176018 112.83315277 C97.31046907 112.84682522 89.54918852 112.85649375 81.7878862 112.86035466 C72.8237996 112.86483831 63.85986526 112.88240141 54.89582497 112.91135526 C47.96921683 112.93295311 41.04265159 112.94305789 34.11601013 112.94439578 C29.97767182 112.94544495 25.83947669 112.95137675 21.70117378 112.96921539 C17.80974702 112.98566393 13.91857158 112.9878674 10.0271225 112.97907639 C8.59845495 112.97830434 7.16977407 112.98267077 5.74114037 112.99253464 C3.79186897 113.00520472 1.84249711 112.99760365 -0.10679626 112.98895264 C-1.19798987 112.9904192 -2.28918348 112.99188576 -3.41344357 112.99339676 C-6.60097484 112.57160924 -7.95555636 111.86904477 -10.22424316 109.62145996 C-11.13373812 106.89297508 -11.35686305 105.26900801 -11.37814331 102.45999146 C-11.38674377 101.6132637 -11.39534424 100.76653595 -11.40420532 99.89414978 C-11.40846527 98.96836624 -11.41272522 98.0425827 -11.41711426 97.08874512 C-11.42529175 96.11122787 -11.43346924 95.13371063 -11.44189453 94.12657166 C-11.46673215 90.88789483 -11.4832584 87.64926172 -11.49768066 84.41052246 C-11.50300434 83.30522564 -11.50832802 82.19992882 -11.51381302 81.06113815 C-11.54053458 75.21341393 -11.55991468 69.36571102 -11.57434082 63.51794434 C-11.59100697 57.47270479 -11.63580453 51.42800846 -11.68671227 45.38297462 C-11.72032932 40.73844765 -11.73191206 36.09405067 -11.7375679 31.4494133 C-11.7442932 29.22063407 -11.75954823 26.99186378 -11.78345871 24.76320267 C-11.81500001 21.64600208 -11.81516354 18.53028145 -11.80773926 15.41296387 C-11.82414459 14.49122879 -11.84054993 13.56949371 -11.85745239 12.61982727 C-11.84913391 11.76745987 -11.84081543 10.91509247 -11.83224487 10.03689575 C-11.83555502 9.30059244 -11.83886517 8.56428913 -11.84227562 7.8056736 C-10.13999255 1.78956576 -5.7828433 -0.0037882 0 0 Z " fill="#231F20" transform="translate(59.2242431640625,327.3785400390625)"/>
<path d="M0 0 C1.77650452 1.2878418 1.77650452 1.2878418 3.67211914 3.01171875 C4.37539337 3.64964355 5.0786676 4.28756836 5.80325317 4.94482422 C11.95156674 10.69690498 17.94712761 16.60044225 23.92944336 22.52441406 C25.60784074 24.18108198 27.29248095 25.83144786 28.9831543 27.47558594 C31.43957442 29.86520512 33.87581969 32.27384027 36.30859375 34.6875 C37.06579208 35.41686768 37.82299042 36.14623535 38.60313416 36.89770508 C44.34210517 42.65959155 44.34210517 42.65959155 45.03955078 46.89819336 C44.99601121 50.31282464 44.80290887 51.19709113 42.4375 53.5625 C41.80070312 54.2225 41.16390625 54.8825 40.5078125 55.5625 C39.26644531 56.7690625 39.26644531 56.7690625 38 58 C36.22736025 59.73371532 34.45796546 61.47050398 32.69360352 63.21264648 C31.46371025 64.42210803 30.22490693 65.62259237 28.97631836 66.81274414 C22.7623992 72.86203346 19.38184899 78.38925347 18.91015625 87.23046875 C19.14716453 94.53650649 21.91739958 99.94632309 26.921875 105.203125 C32.69254874 110.1928053 38.88721939 112.88545043 46.56640625 112.40625 C57.06111368 110.65432452 64.05771949 103.30077667 71.01953125 95.74609375 C71.53604248 95.19759766 72.05255371 94.64910156 72.5847168 94.08398438 C73.58873681 93.01073806 74.57451583 91.92004042 75.53833008 90.81054688 C78.10953269 88.06578921 79.85514808 87.02912361 83.55419922 86.28540039 C90.01294125 86.50817752 93.93555561 91.79648861 98.1875 96.125 C99.138973 97.0710774 100.09163032 98.01596507 101.04541016 98.9597168 C103.03524454 100.93778696 105.00996897 102.92952174 106.97509766 104.93212891 C109.4880896 107.49070616 112.03531147 110.01166691 114.59498596 112.5234375 C116.56734527 114.46680647 118.5201524 116.42893224 120.46768188 118.39715576 C121.85073759 119.78809922 123.24984361 121.16302402 124.64916992 122.53759766 C131.54816161 129.64492359 131.54816161 129.64492359 131.67138672 134.47314453 C130.90822065 138.48212525 129.98711622 140.01288378 127.125 142.875 C125.88363281 144.13957031 125.88363281 144.13957031 124.6171875 145.4296875 C123.75351563 146.27789062 122.88984375 147.12609375 122 148 C121.21882812 148.82757813 120.43765625 149.65515625 119.6328125 150.5078125 C104.18288034 166.66692187 85.62118508 177.58331416 62.8215332 178.42236328 C39.62988167 178.59709683 20.8140819 167.96372472 4.58102417 152.04916382 C3.74733307 151.21567413 2.91364197 150.38218445 2.0546875 149.5234375 C1.1593631 148.63572662 0.2640387 147.74801575 -0.65841675 146.83340454 C-3.01155192 144.49371512 -5.35682376 142.14645287 -7.70031738 139.79711914 C-9.12115795 138.37883514 -10.54951101 136.96860946 -11.98095703 135.56103516 C-24.47028699 123.26527153 -36.20467428 111.6899333 -42.5 95 C-42.9640625 93.80375 -43.428125 92.6075 -43.90625 91.375 C-48.94062514 75.84035672 -47.97613101 55.68852915 -41 41 C-40.54238281 40.01257813 -40.08476563 39.02515625 -39.61328125 38.0078125 C-34.09849662 27.09911524 -25.75723726 18.44239836 -17.125 9.9375 C-16.27164063 9.08478516 -15.41828125 8.23207031 -14.5390625 7.35351562 C-6.20670634 -0.91951205 -6.20670634 -0.91951205 0 0 Z " fill="#242021" transform="translate(86,42)"/>
<path d="M0 0 C0.77450255 -0.00453111 1.54900509 -0.00906223 2.34697741 -0.01373065 C4.93854775 -0.02637656 7.52990799 -0.02475416 10.12150574 -0.02310181 C11.98116323 -0.02908696 13.84081823 -0.03589248 15.70046997 -0.04345703 C20.75015006 -0.0611261 25.79976237 -0.06581281 30.84947038 -0.0670886 C34.00528242 -0.06851031 37.16107723 -0.07278028 40.31688499 -0.07808304 C51.32924366 -0.09658668 62.34155391 -0.10475328 73.35392761 -0.10317993 C83.61441715 -0.10197861 93.87469631 -0.1230783 104.13513261 -0.15466726 C112.94803443 -0.18083149 121.76086754 -0.19154716 130.5738079 -0.19026911 C135.83567588 -0.1897595 141.09735692 -0.19544229 146.35918617 -0.21662521 C151.30949381 -0.23600985 156.25943622 -0.23613043 161.20975685 -0.22159195 C163.02375828 -0.219503 164.83778258 -0.22420986 166.65174484 -0.23631287 C169.13422338 -0.25179982 171.61544795 -0.24243529 174.09790039 -0.22705078 C175.16675066 -0.24248147 175.16675066 -0.24248147 176.25719386 -0.25822389 C182.6496288 -0.17108016 187.72519172 2.06418569 192.48161316 6.23226929 C193.02044128 6.88324585 193.55926941 7.53422241 194.11442566 8.20492554 C194.66872253 8.85332397 195.22301941 9.50172241 195.79411316 10.16976929 C199.21784456 15.13880648 199.53023354 19.73537945 199.5068512 25.63542175 C199.51138231 26.47526114 199.51591342 27.31510052 199.52058184 28.18038958 C199.5332367 30.99306761 199.53160477 33.80555228 199.529953 36.61825562 C199.53593759 38.63554636 199.54274297 40.65283481 199.55030823 42.67012024 C199.56798292 48.14953764 199.57266424 53.62889258 199.5739398 59.10833573 C199.57583906 63.68332857 199.58319695 68.25830686 199.59028399 72.83329409 C199.60657127 83.62815855 199.61145265 94.42298965 199.61003113 105.21786499 C199.60882971 116.35085282 199.62993084 127.48364678 199.66151845 138.61658555 C199.68767657 148.17682647 199.69839861 157.73700406 199.69712031 167.29728049 C199.69661052 173.0062734 199.70230295 178.71509404 199.72347641 184.42405128 C199.74285072 189.794587 199.7429886 195.16478599 199.72844315 200.53533363 C199.72635294 202.50414014 199.73106856 204.47296767 199.74316406 206.44173813 C199.75863261 209.13437926 199.74929794 211.82586167 199.73390198 214.51847839 C199.7441891 215.29330041 199.75447623 216.06812243 199.76507509 216.8664239 C199.68257974 223.4177708 197.60275251 228.57050782 193.27458191 233.50961304 C192.62360535 234.04844116 191.97262878 234.58726929 191.30192566 235.14242554 C190.65352722 235.69672241 190.00512878 236.25101929 189.33708191 236.82211304 C184.55343419 240.11810867 180.16709596 240.55934525 174.47885132 240.53485107 C173.70434877 240.53938219 172.92984623 240.5439133 172.13187391 240.54858172 C169.54030357 240.56122764 166.94894333 240.55960523 164.35734558 240.55795288 C162.49768809 240.56393803 160.63803308 240.57074355 158.77838135 240.57830811 C153.72870126 240.59597718 148.67908895 240.60066389 143.62938094 240.60193968 C140.4735689 240.60336138 137.31777409 240.60763136 134.16196632 240.61293411 C123.14960766 240.63143776 112.13729741 240.63960435 101.12492371 240.63803101 C90.86443417 240.63682968 80.60415501 240.65792937 70.34371871 240.68951833 C61.53081689 240.71568257 52.71798378 240.72639823 43.90504342 240.72512019 C38.64317544 240.72461058 33.3814944 240.73029336 28.11966515 240.75147629 C23.16935751 240.77086093 18.21941509 240.77098151 13.26909447 240.75644302 C11.45509304 240.75435408 9.64106873 240.75906094 7.82710648 240.77116394 C5.34462794 240.78665089 2.86340337 240.77728637 0.38095093 240.76190186 C-0.33161592 240.77218898 -1.04418276 240.78247611 -1.77834255 240.79307497 C-8.17077749 240.70593124 -13.2463404 238.47066538 -18.00276184 234.30258179 C-18.81100403 233.32611694 -18.81100403 233.32611694 -19.63557434 232.32992554 C-20.18987122 231.6815271 -20.74416809 231.03312866 -21.31526184 230.36508179 C-24.73899324 225.39604459 -25.05138222 220.79947162 -25.02799988 214.89942932 C-25.03253099 214.05958994 -25.0370621 213.21975055 -25.04173052 212.35446149 C-25.05438538 209.54178346 -25.05275345 206.7292988 -25.05110168 203.91659546 C-25.05708627 201.89930472 -25.06389165 199.88201627 -25.07145691 197.86473083 C-25.0891316 192.38531343 -25.09381292 186.90595849 -25.09508848 181.42651534 C-25.09698775 176.85152251 -25.10434563 172.27654422 -25.11143267 167.70155698 C-25.12771996 156.90669252 -25.13260133 146.11186142 -25.13117981 135.31698608 C-25.12997839 124.18399825 -25.15107952 113.05120429 -25.18266714 101.91826552 C-25.20882525 92.3580246 -25.21954729 82.79784702 -25.21826899 73.23757058 C-25.21775921 67.52857768 -25.22345163 61.81975703 -25.24462509 56.11079979 C-25.2639994 50.74026407 -25.26413728 45.37006508 -25.24959183 39.99951744 C-25.24750162 38.03071094 -25.25221724 36.0618834 -25.26431274 34.09311295 C-25.27978129 31.40047181 -25.27044662 28.7089894 -25.25505066 26.01637268 C-25.26533779 25.24155066 -25.27562491 24.46672864 -25.28622377 23.66842717 C-25.20372842 17.11708028 -23.12390119 11.96434326 -18.79573059 7.02523804 C-18.14475403 6.48640991 -17.49377747 5.94758179 -16.82307434 5.39242554 C-16.1746759 4.83812866 -15.52627747 4.28383179 -14.85823059 3.71273804 C-10.07458287 0.4167424 -5.68824464 -0.02449417 0 0 Z M-8.76057434 21.26742554 C-9.24930359 24.14978547 -9.43012604 26.43814579 -9.3820343 29.31393433 C-9.38842312 30.11913844 -9.39481194 30.92434255 -9.40139437 31.75394678 C-9.41664437 34.44970194 -9.39618383 37.14398738 -9.37580872 39.83969116 C-9.37930992 41.77318305 -9.38496848 43.70667207 -9.3926239 45.64015198 C-9.4068816 50.89021523 -9.38980053 56.13975535 -9.36633873 61.3897686 C-9.3462448 66.88206674 -9.35210853 72.37434285 -9.35444641 77.8666687 C-9.35439282 87.09034869 -9.33462645 96.31382393 -9.30256653 105.53744507 C-9.26567311 116.20355594 -9.25689084 126.86939855 -9.26386404 137.5355649 C-9.27016775 147.79303901 -9.25941717 158.05042105 -9.23989868 168.30787659 C-9.23172068 172.67459931 -9.22901588 177.04127501 -9.23059082 181.40800476 C-9.23146931 186.54953391 -9.217263 191.69080784 -9.19136429 196.83226967 C-9.18419781 198.72007828 -9.18212118 200.60791404 -9.18548203 202.49573326 C-9.18919253 205.07107195 -9.17446446 207.6456641 -9.15498352 210.22091675 C-9.16031145 210.96945876 -9.16563937 211.71800076 -9.17112875 212.48922586 C-9.11336126 216.9101466 -8.49157763 219.75272073 -5.76057434 223.26742554 C-2.83337536 224.73102503 0.10909626 224.41186763 3.31774902 224.40786743 C4.42370502 224.41232412 4.42370502 224.41232412 5.55200356 224.41687083 C8.03546875 224.4255785 10.51888585 224.42706782 13.00236511 224.42855835 C14.77777714 224.43318508 16.55318816 224.43820954 18.32859802 224.44360352 C23.16130543 224.45674387 27.99399894 224.4631757 32.82672143 224.46761417 C35.84429312 224.47054237 38.861861 224.4746467 41.87943077 224.47911835 C51.31568456 224.49279782 60.75192964 224.50246217 70.18819267 224.50632024 C81.09020498 224.51080172 91.99209196 224.52835194 102.89406615 224.55732083 C111.31449972 224.57892092 119.73489799 224.58902363 128.15535897 224.59036136 C133.18743622 224.59141062 138.21939572 224.59734415 143.25144386 224.61518097 C147.98496291 224.63163265 152.71827534 224.6338313 157.45181274 224.62504196 C159.18966919 224.62427002 160.92753661 224.62863498 162.66536522 224.63850021 C165.03720795 224.65117539 167.40831405 224.64536744 169.78015137 224.63491821 C170.46848456 224.64297462 171.15681776 224.65103102 171.86600953 224.65933156 C176.13586248 224.61531256 178.87566561 223.93836846 182.23942566 221.26742554 C183.45723194 217.6140067 183.38423265 214.2584312 183.37986755 210.45469666 C183.38283868 209.65049583 183.3858098 208.846295 183.38887095 208.01772445 C183.39756593 205.3139197 183.39906686 202.61015919 183.40055847 199.90634155 C183.405186 197.97152613 183.41021057 196.03671163 183.41560364 194.10189819 C183.428734 188.83957874 183.43517358 183.57727206 183.4396143 178.31493878 C183.44254336 175.02952162 183.4466478 171.74410796 183.45111847 168.45869255 C183.46479367 158.18576656 183.47446081 147.91284856 183.47832036 137.6399141 C183.48280449 125.76893759 183.50036877 113.89807603 183.52932096 102.02713448 C183.55090887 92.85850746 183.56102306 83.68991285 183.56236148 74.52126068 C183.56341137 69.04154447 183.56935857 63.56193631 183.58718109 58.08224678 C183.60361234 52.93012699 183.60584142 47.77819707 183.59704208 42.62606049 C183.59626911 40.73297811 183.60064851 38.83988574 183.61050034 36.94682884 C183.62314265 34.36670331 183.61738546 31.78725813 183.60691833 29.20713806 C183.61497474 28.45431897 183.62303114 27.70149988 183.63133168 26.92586809 C183.60157719 23.79979769 183.42132965 21.5989239 181.90395737 18.8336935 C178.49566703 15.62660772 174.42912446 16.11668138 170.04084778 16.11352539 C169.30268936 16.10914314 168.56453093 16.10476088 167.80400407 16.10024583 C165.32365375 16.08686139 162.84333894 16.08067984 160.36296082 16.07455444 C158.58740071 16.06665336 156.81184221 16.05838441 155.0362854 16.04977417 C149.20036858 16.0235606 143.36444459 16.00824987 137.52848816 15.99398804 C135.52050649 15.98862859 133.51252487 15.98325108 131.5045433 15.97785568 C123.15426315 15.95623034 114.80398492 15.93749207 106.45368385 15.92623329 C94.47945275 15.90998266 82.50554555 15.87677389 70.53143656 15.81983244 C62.11523161 15.78117131 53.69911345 15.7616053 45.28282201 15.75631273 C40.25401492 15.75265479 35.22555333 15.74058614 30.19684219 15.70820999 C25.46731621 15.6781957 20.73834602 15.6717937 16.00874519 15.68359375 C14.27248503 15.68381502 12.53619957 15.6754655 10.80002785 15.65793991 C8.43000283 15.63531695 6.06200513 15.64350903 3.69197083 15.65942383 C2.66049421 15.6386007 2.66049421 15.6386007 1.60817969 15.6173569 C-3.51642501 15.7021941 -5.84230163 17.09368331 -8.76057434 21.26742554 Z " fill="#231F20" transform="translate(40.76057434082031,15.732574462890625)"/>
<path d="M0 0 C0.77450255 -0.00453111 1.54900509 -0.00906223 2.34697741 -0.01373065 C4.93854775 -0.02637656 7.52990799 -0.02475416 10.12150574 -0.02310181 C11.98116323 -0.02908696 13.84081823 -0.03589248 15.70046997 -0.04345703 C20.75015006 -0.0611261 25.79976237 -0.06581281 30.84947038 -0.0670886 C34.00528242 -0.06851031 37.16107723 -0.07278028 40.31688499 -0.07808304 C51.32924366 -0.09658668 62.34155391 -0.10475328 73.35392761 -0.10317993 C83.61441715 -0.10197861 93.87469631 -0.1230783 104.13513261 -0.15466726 C112.94803443 -0.18083149 121.76086754 -0.19154716 130.5738079 -0.19026911 C135.83567588 -0.1897595 141.09735692 -0.19544229 146.35918617 -0.21662521 C151.30949381 -0.23600985 156.25943622 -0.23613043 161.20975685 -0.22159195 C163.02375828 -0.219503 164.83778258 -0.22420986 166.65174484 -0.23631287 C169.13422338 -0.25179982 171.61544795 -0.24243529 174.09790039 -0.22705078 C175.16675066 -0.24248147 175.16675066 -0.24248147 176.25719386 -0.25822389 C182.6496288 -0.17108016 187.72519172 2.06418569 192.48161316 6.23226929 C193.02044128 6.88324585 193.55926941 7.53422241 194.11442566 8.20492554 C194.66872253 8.85332397 195.22301941 9.50172241 195.79411316 10.16976929 C199.09010879 14.953417 199.53134537 19.33975524 199.5068512 25.02799988 C199.51138231 25.80250242 199.51591342 26.57700497 199.52058184 27.37497729 C199.53322776 29.96654763 199.53160535 32.55790786 199.529953 35.14950562 C199.53593816 37.00916311 199.54274367 38.86881811 199.55030823 40.72846985 C199.5679773 45.77814994 199.57266401 50.82776224 199.5739398 55.87747025 C199.5753615 59.0332823 199.57963148 62.18907711 199.58493423 65.34488487 C199.60343788 76.35724354 199.61160447 87.36955379 199.61003113 98.38192749 C199.60882981 108.64241703 199.6299295 118.90269618 199.66151845 129.16313249 C199.68768269 137.97603431 199.69839835 146.78886742 199.69712031 155.60180777 C199.6966107 160.86367576 199.70229348 166.1253568 199.72347641 171.38718605 C199.74286105 176.33749369 199.74298163 181.2874361 199.72844315 186.23775673 C199.7263542 188.05175816 199.73106106 189.86578246 199.74316406 191.67974472 C199.75865101 194.16222326 199.74928649 196.64344783 199.73390198 199.12590027 C199.7441891 199.83846711 199.75447623 200.55103396 199.76507509 201.28519374 C199.67793136 207.67762868 197.44266551 212.7531916 193.27458191 217.50961304 C192.62360535 218.04844116 191.97262878 218.58726929 191.30192566 219.14242554 C190.65352722 219.69672241 190.00512878 220.25101929 189.33708191 220.82211304 C184.55343419 224.11810867 180.16709596 224.55934525 174.47885132 224.53485107 C173.70434877 224.53938219 172.92984623 224.5439133 172.13187391 224.54858172 C169.54030357 224.56122764 166.94894333 224.55960523 164.35734558 224.55795288 C162.49768809 224.56393803 160.63803308 224.57074355 158.77838135 224.57830811 C153.72870126 224.59597718 148.67908895 224.60066389 143.62938094 224.60193968 C140.4735689 224.60336138 137.31777409 224.60763136 134.16196632 224.61293411 C123.14960766 224.63143776 112.13729741 224.63960435 101.12492371 224.63803101 C90.86443417 224.63682968 80.60415501 224.65792937 70.34371871 224.68951833 C61.53081689 224.71568257 52.71798378 224.72639823 43.90504342 224.72512019 C38.64317544 224.72461058 33.3814944 224.73029336 28.11966515 224.75147629 C23.16935751 224.77086093 18.21941509 224.77098151 13.26909447 224.75644302 C11.45509304 224.75435408 9.64106873 224.75906094 7.82710648 224.77116394 C5.34462794 224.78665089 2.86340337 224.77728637 0.38095093 224.76190186 C-0.33161592 224.77218898 -1.04418276 224.78247611 -1.77834255 224.79307497 C-8.17077749 224.70593124 -13.2463404 222.47066538 -18.00276184 218.30258179 C-18.81100403 217.32611694 -18.81100403 217.32611694 -19.63557434 216.32992554 C-20.18987122 215.6815271 -20.74416809 215.03312866 -21.31526184 214.36508179 C-24.61125747 209.58143407 -25.05249405 205.19509583 -25.02799988 199.5068512 C-25.03253099 198.73234865 -25.0370621 197.9578461 -25.04173052 197.15987378 C-25.05437644 194.56830345 -25.05275403 191.97694321 -25.05110168 189.38534546 C-25.05708684 187.52568797 -25.06389235 185.66603296 -25.07145691 183.80638123 C-25.08912598 178.75670114 -25.09381269 173.70708883 -25.09508848 168.65738082 C-25.09651019 165.50156878 -25.10078016 162.34577396 -25.10608292 159.1899662 C-25.12458656 148.17760753 -25.13275315 137.16529728 -25.13117981 126.15292358 C-25.12997849 115.89243404 -25.15107818 105.63215489 -25.18266714 95.37171859 C-25.20883137 86.55881677 -25.21954703 77.74598366 -25.21826899 68.9330433 C-25.21775938 63.67117532 -25.22344217 58.40949428 -25.24462509 53.14766502 C-25.26400973 48.19735739 -25.26413031 43.24741497 -25.24959183 38.29709435 C-25.24750288 36.48309291 -25.25220974 34.66906861 -25.26431274 32.85510635 C-25.2797997 30.37262782 -25.27043517 27.89140325 -25.25505066 25.40895081 C-25.26533779 24.69638396 -25.27562491 23.98381711 -25.28622377 23.24965733 C-25.19908004 16.85722239 -22.96381419 11.78165948 -18.79573059 7.02523804 C-18.14475403 6.48640991 -17.49377747 5.94758179 -16.82307434 5.39242554 C-16.1746759 4.83812866 -15.52627747 4.28383179 -14.85823059 3.71273804 C-10.07458287 0.4167424 -5.68824464 -0.02449417 0 0 Z M-8.76057434 21.26742554 C-9.25056237 23.96087604 -9.43100543 26.02168643 -9.3820343 28.70651245 C-9.38842312 29.44637972 -9.39481194 30.186247 -9.40139437 30.94853449 C-9.41663304 33.42322346 -9.39619233 35.89630842 -9.37580872 38.37094116 C-9.37931028 40.14680003 -9.38496925 41.92265576 -9.3926239 43.69850159 C-9.40687657 48.51884364 -9.38980564 53.33861557 -9.36633873 58.15890312 C-9.34623807 63.20276558 -9.35210888 68.24660417 -9.35444641 73.29049683 C-9.35439283 81.76092944 -9.33463083 90.23113905 -9.30256653 98.70150757 C-9.26567339 108.49511957 -9.2568909 118.28843942 -9.26386404 128.08211184 C-9.27016881 137.5023776 -9.25941522 146.92254315 -9.23989868 156.3427887 C-9.2317229 160.3522535 -9.22901547 164.36166709 -9.23059082 168.37113953 C-9.23146963 173.09244094 -9.21725462 177.81346462 -9.19136429 182.53469276 C-9.18420079 184.26769476 -9.18211975 186.00072631 -9.18548203 187.73373985 C-9.18919554 190.09890765 -9.17445446 192.46326433 -9.15498352 194.82833862 C-9.16031145 195.51462546 -9.16563937 196.20091229 -9.17112875 196.9079957 C-9.11046239 201.17742656 -8.35776998 203.86331517 -5.76057434 207.26742554 C-2.83337536 208.73102503 0.10909626 208.41186763 3.31774902 208.40786743 C4.42370502 208.41232412 4.42370502 208.41232412 5.55200356 208.41687083 C8.03546875 208.4255785 10.51888585 208.42706782 13.00236511 208.42855835 C14.77777714 208.43318508 16.55318816 208.43820954 18.32859802 208.44360352 C23.16130543 208.45674387 27.99399894 208.4631757 32.82672143 208.46761417 C35.84429312 208.47054237 38.861861 208.4746467 41.87943077 208.47911835 C51.31568456 208.49279782 60.75192964 208.50246217 70.18819267 208.50632024 C81.09020498 208.51080172 91.99209196 208.52835194 102.89406615 208.55732083 C111.31449972 208.57892092 119.73489799 208.58902363 128.15535897 208.59036136 C133.18743622 208.59141062 138.21939572 208.59734415 143.25144386 208.61518097 C147.98496291 208.63163265 152.71827534 208.6338313 157.45181274 208.62504196 C159.18966919 208.62427002 160.92753661 208.62863498 162.66536522 208.63850021 C165.03720795 208.65117539 167.40831405 208.64536744 169.78015137 208.63491821 C170.46848456 208.64297462 171.15681776 208.65103102 171.86600953 208.65933156 C176.13586248 208.61531256 178.87566561 207.93836846 182.23942566 205.26742554 C183.39868331 201.78965259 183.38439132 198.67908925 183.37986755 195.06211853 C183.38283868 194.32325454 183.3858098 193.58439055 183.38887095 192.82313675 C183.3975619 190.34044362 183.39906652 187.85779869 183.40055847 185.37509155 C183.40518628 183.59790951 183.41021089 181.82072847 183.41560364 180.04354858 C183.42873123 175.21096753 183.43517303 170.37840037 183.4396143 165.54580426 C183.44254379 162.52840249 183.44664832 159.51100452 183.45111847 156.49360466 C183.46479292 147.05789029 183.47446044 137.62218462 183.47832036 128.18646103 C183.48280436 117.28444879 183.50036832 106.38256172 183.52932096 95.48058754 C183.55091159 87.05930019 183.5610232 78.63804814 183.56236148 70.2167334 C183.56341118 65.18414402 183.56935415 60.15167232 183.58718109 55.11911201 C183.60361707 50.38722434 183.60583914 45.65554337 183.59704208 40.92363739 C183.59626936 39.18536006 183.60064521 37.44707182 183.61050034 35.70882225 C183.62315084 33.33887168 183.61738122 30.96966094 183.60691833 28.59971619 C183.61497474 27.90915227 183.62303114 27.21858835 183.63133168 26.50709826 C183.60036493 23.51556999 183.37231546 21.50582367 181.90395737 18.87165737 C178.52075206 15.61101318 174.43976097 16.11668902 170.04084778 16.11352539 C169.30268936 16.10914314 168.56453093 16.10476088 167.80400407 16.10024583 C165.32365375 16.08686139 162.84333894 16.08067984 160.36296082 16.07455444 C158.58740071 16.06665336 156.81184221 16.05838441 155.0362854 16.04977417 C149.20036858 16.0235606 143.36444459 16.00824987 137.52848816 15.99398804 C135.52050649 15.98862859 133.51252487 15.98325108 131.5045433 15.97785568 C123.15426315 15.95623034 114.80398492 15.93749207 106.45368385 15.92623329 C94.47945275 15.90998266 82.50554555 15.87677389 70.53143656 15.81983244 C62.11523161 15.78117131 53.69911345 15.7616053 45.28282201 15.75631273 C40.25401492 15.75265479 35.22555333 15.74058614 30.19684219 15.70820999 C25.46731621 15.6781957 20.73834602 15.6717937 16.00874519 15.68359375 C14.27248503 15.68381502 12.53619957 15.6754655 10.80002785 15.65793991 C8.43000283 15.63531695 6.06200513 15.64350903 3.69197083 15.65942383 C2.66049421 15.6386007 2.66049421 15.6386007 1.60817969 15.6173569 C-3.51141473 15.70211116 -5.82256217 17.1192555 -8.76057434 21.26742554 Z " fill="#231F20" transform="translate(40.76057434082031,271.7325744628906)"/>
<path d="M0 0 C14.87560662 11.22194886 24.45192993 25.35337956 28.2265625 43.6796875 C28.63764996 47.7535212 28.69260544 51.77516756 28.6640625 55.8671875 C28.68404297 56.89521484 28.70402344 57.92324219 28.72460938 58.98242188 C28.71969914 66.6571241 27.36728774 72.02090449 22.33203125 77.88671875 C15.61845607 83.50643239 9.91694261 86.33027625 1.01953125 86.109375 C-4.40452556 85.27490472 -8.92555026 82.52757474 -12.7734375 78.6796875 C-16.10038277 79.08121538 -18.83500019 80.63879964 -21.7734375 82.1796875 C-29.34639982 86.15087506 -37.03500666 86.9872835 -45.46484375 85.06640625 C-54.77643425 81.75853294 -61.39212156 75.45750577 -65.8984375 66.7578125 C-69.01978465 59.34461302 -69.19371767 49.30001802 -66.83203125 41.6171875 C-65.63305106 39.15157306 -64.32884788 36.93503255 -62.7734375 34.6796875 C-62.0515625 33.6071875 -61.3296875 32.5346875 -60.5859375 31.4296875 C-53.02604537 24.03779297 -45.38360125 21.3671875 -35.03295898 21.3671875 C-25.27656238 21.56005797 -18.74327505 24.88660118 -11.68359375 31.59765625 C-4.7032309 39.20610901 -3.49593233 47.6875115 -3.20703125 57.578125 C-3.0334011 62.94323392 -3.0334011 62.94323392 -0.7734375 67.6796875 C1.99756644 69.06518947 4.1600331 68.8674342 7.2265625 68.6796875 C10.47506227 66.95742254 10.47506227 66.95742254 11.2265625 63.6796875 C12.18641621 53.32121109 12.10776026 43.04794904 7.2265625 33.6796875 C6.57300781 32.39191406 6.57300781 32.39191406 5.90625 31.078125 C-0.93725621 18.69997988 -11.35491651 11.37763686 -24.7734375 7.2421875 C-39.09717664 4.48172386 -52.79551373 7.59370039 -64.7734375 15.6796875 C-73.56380256 22.63053527 -80.73034089 33.0173409 -82.55859375 44.25390625 C-83.95715849 60.04497359 -81.03364041 73.28355111 -71.06640625 85.828125 C-63.97781292 93.61811598 -53.17604505 99.96443604 -42.52555847 100.87103271 C-39.96876394 100.95562855 -37.41755082 100.98212141 -34.859375 100.98828125 C-32.94530922 101.01342363 -31.03124679 101.03882189 -29.1171875 101.06445312 C-26.12403102 101.09325241 -23.13093224 101.1172968 -20.13769531 101.13598633 C-17.23213488 101.15763765 -14.32721394 101.19705304 -11.421875 101.23828125 C-10.5290683 101.23839706 -9.6362616 101.23851288 -8.71640015 101.2386322 C-3.93853183 101.3146906 -0.6325689 101.53362511 3.2265625 104.6796875 C4.63113987 107.48884224 4.47551407 109.56779284 4.2265625 112.6796875 C2.44671845 115.8156032 1.70348043 116.52071486 -1.7734375 117.6796875 C-3.15652992 117.78477511 -4.5439544 117.8380567 -5.9309082 117.85668945 C-6.76640701 117.86952469 -7.60190582 117.88235992 -8.46272278 117.89558411 C-9.36576645 117.90297104 -10.26881012 117.91035797 -11.19921875 117.91796875 C-12.13839645 117.9260405 -13.07757416 117.93411224 -14.04521179 117.94242859 C-16.03996946 117.95626982 -18.03475082 117.9669918 -20.02954102 117.97485352 C-22.04751642 117.98629822 -24.06546338 118.00662867 -26.08325195 118.03637695 C-47.70820913 118.35504554 -65.39710403 114.55401631 -81.52734375 99.0859375 C-88.64193712 91.46404269 -93.33136036 83.49743024 -96.7734375 73.6796875 C-97.093125 72.84308594 -97.4128125 72.00648438 -97.7421875 71.14453125 C-103.07998998 55.15583586 -99.98959073 37.82195511 -92.7109375 23.0546875 C-84.48921417 8.64910388 -72.19273511 -1.34095419 -56.7734375 -7.3203125 C-55.566875 -7.80177734 -55.566875 -7.80177734 -54.3359375 -8.29296875 C-36.43990602 -14.30491682 -15.53429283 -10.30281277 0 0 Z " fill="#242123" transform="translate(419.7734375,74.3203125)"/>
<path d="M0 0 C0.33 0 0.66 0 1 0 C1.07009498 15.82044619 1.12299053 31.64085043 1.15543652 47.46141338 C1.17090249 54.80725484 1.19198676 62.15299979 1.22631836 69.4987793 C1.25622909 75.90169919 1.27557697 82.30454918 1.28226548 88.707537 C1.28617494 92.09759507 1.29535683 95.48745317 1.31719017 98.87744713 C1.33891456 102.6628043 1.34196893 106.44774498 1.34057617 110.2331543 C1.351362 111.35596802 1.36214783 112.47878174 1.3732605 113.63562012 C1.36913651 114.66902023 1.36501251 115.70242035 1.36076355 116.76713562 C1.36352893 117.66219661 1.36629431 118.5572576 1.36914349 119.47944164 C0.91154619 122.60397376 -0.12127268 124.47752925 -2 127 C-5.88375716 128.29458572 -9.55560117 128.13103781 -13.60229492 128.11352539 C-14.48055435 128.11367142 -15.35881378 128.11381744 -16.26368713 128.1139679 C-19.16930605 128.11327072 -22.07486102 128.10548739 -24.98046875 128.09765625 C-26.99400294 128.09579138 -29.00753758 128.0943678 -31.02107239 128.09336853 C-36.32291922 128.08954879 -41.62473869 128.07972312 -46.92657471 128.06866455 C-52.33581167 128.05843877 -57.74505304 128.0538684 -63.15429688 128.04882812 C-73.76954327 128.03810039 -84.38476936 128.02103046 -95 128 C-95.33 123.38 -95.66 118.76 -96 114 C-93.0609375 112.63875 -93.0609375 112.63875 -90.0625 111.25 C-47.71448612 90.57405627 -16.86147702 49.06462561 -1.77661133 5.28149414 C-1.17901887 3.52281795 -0.58866561 1.76168427 0 0 Z " fill="#57A4FE" transform="translate(479,112)"/>
<path d="M0 0 C0.33 0 0.66 0 1 0 C1.07009498 15.82044619 1.12299053 31.64085043 1.15543652 47.46141338 C1.17090249 54.80725484 1.19198676 62.15299979 1.22631836 69.4987793 C1.25622909 75.90169919 1.27557697 82.30454918 1.28226548 88.707537 C1.28617494 92.09759507 1.29535683 95.48745317 1.31719017 98.87744713 C1.33891456 102.6628043 1.34196893 106.44774498 1.34057617 110.2331543 C1.351362 111.35596802 1.36214783 112.47878174 1.3732605 113.63562012 C1.36913651 114.66902023 1.36501251 115.70242035 1.36076355 116.76713562 C1.36352893 117.66219661 1.36629431 118.5572576 1.36914349 119.47944164 C0.91154619 122.60397376 -0.12127268 124.47752925 -2 127 C-4.97072493 127.99024164 -6.89405053 128.1234388 -9.99235535 128.12025452 C-11.02300613 128.12162918 -12.05365692 128.12300385 -13.11553955 128.12442017 C-14.24554382 128.12082489 -15.3755481 128.11722961 -16.53979492 128.11352539 C-18.32535545 128.11374443 -18.32535545 128.11374443 -20.14698792 128.1139679 C-23.41118607 128.11339022 -26.67534147 128.10837168 -29.93953109 128.10139394 C-33.35082422 128.09514664 -36.76211817 128.09455551 -40.17341614 128.09336853 C-46.63319678 128.09025928 -53.09296052 128.08205136 -59.55273372 128.07201904 C-66.90695364 128.06084531 -74.26117437 128.05534427 -81.61540067 128.05032361 C-96.74360987 128.03986842 -111.87180325 128.02227682 -127 128 C-124.10552326 126.07034884 -121.42238637 125.05556177 -118.14990234 123.9465332 C-100.35787414 117.85597624 -83.83630385 109.01506249 -68.69140625 97.88671875 C-68.07120605 97.43111572 -67.45100586 96.9755127 -66.81201172 96.50610352 C-64.93760642 95.03528026 -64.93760642 95.03528026 -63.39501953 93.11694336 C-59.60340182 88.89813886 -56.5414833 87.60680049 -50.82460022 87.23951721 C-46.79689813 87.11637697 -42.77874053 87.13407368 -38.75 87.1875 C-36.27688315 87.19352142 -33.80420253 87.18970369 -31.33111572 87.17634583 C-29.79965257 87.17087902 -28.26807752 87.17802026 -26.73675537 87.19950867 C-21.5350236 87.24681666 -21.5350236 87.24681666 -17 85 C-16.0666838 82.20005139 -15.89311209 80.62010457 -15.9375 77.73828125 C-15.946604 76.87887939 -15.95570801 76.01947754 -15.96508789 75.1340332 C-15.97660889 74.20292725 -15.98812988 73.27182129 -16 72.3125 C-16.00116077 70.31249991 -15.99976933 68.31249705 -15.99609375 66.3125 C-15.99172309 63.18116577 -15.99912038 60.05281065 -16.05126953 56.921875 C-16.27361009 42.31761111 -14.26185142 31.93765928 -7.11598206 19.17729187 C-5.16534157 15.37157327 -3.8070997 11.35630116 -2.4375 7.3125 C-2.18762329 6.57793579 -1.93774658 5.84337158 -1.68029785 5.08654785 C-1.11143102 3.39395337 -0.55422361 1.69744565 0 0 Z " fill="#2488FE" transform="translate(223,352)"/>
<path d="M0 0 C4.10108886 1.62156024 6.83148167 4.5767703 9.859375 7.6640625 C10.40861633 8.21613373 10.95785767 8.76820496 11.52374268 9.33700562 C13.27059293 11.09501815 15.01034601 12.8598689 16.75 14.625 C17.93573591 15.8207708 19.1219288 17.01608865 20.30859375 18.2109375 C23.21105085 21.13540253 26.1071641 24.06601874 29 27 C27.15489649 31.6452606 27.15489649 31.6452606 26.17041016 33.89990234 C22.39779446 42.93323456 21.86485549 54.94632003 25.359375 64.16796875 C26.92905853 67.64874878 28.87169586 70.82926118 31 74 C31.46664062 74.71414062 31.93328125 75.42828125 32.4140625 76.1640625 C38.00032144 83.57973957 47.87753664 89.40605944 57 91 C65.15930537 91.77615271 71.95882728 91.26013623 79.5 87.97265625 C82.5380649 86.79065912 84.71164821 86.09800052 88 86 C90.42916744 87.76223861 92.23271136 89.34225652 94.2734375 91.484375 C95.12634872 92.34147064 95.12634872 92.34147064 95.99649048 93.21588135 C97.19299314 94.42513182 98.38102928 95.64281046 99.56103516 96.86816406 C101.37200017 98.74688792 103.20835804 100.59748052 105.05078125 102.4453125 C106.20991571 103.62344523 107.36752234 104.80308352 108.5234375 105.984375 C109.07333344 106.54074646 109.62322937 107.09711792 110.18978882 107.67034912 C114 111.65060911 114 111.65060911 114 115 C98.02329121 123.5131368 83.13170772 128.34566571 64.89453125 123.0234375 C47.09816257 116.73106423 34.85745241 102.13333344 21.72607422 89.13110352 C20.07440337 87.50109232 18.41649442 85.8773782 16.75244141 84.26000977 C3.29195108 71.17143663 -9.38031537 58.16909847 -10.43359375 38.37890625 C-10.45677879 36.44024236 -10.45763771 34.50119794 -10.4375 32.5625 C-10.43065186 31.54913574 -10.42380371 30.53577148 -10.41674805 29.49169922 C-10.26278129 22.34233631 -9.46635976 16.35499289 -6 10 C-5.5565625 9.13890625 -5.113125 8.2778125 -4.65625 7.390625 C-1.52083333 1.52083333 -1.52083333 1.52083333 0 0 Z " fill="#FCCA00" transform="translate(66,79)"/>
<path d="M0 0 C0.33 0 0.66 0 1 0 C1.07009498 15.82044619 1.12299053 31.64085043 1.15543652 47.46141338 C1.17090249 54.80725484 1.19198676 62.15299979 1.22631836 69.4987793 C1.25622909 75.90169919 1.27557697 82.30454918 1.28226548 88.707537 C1.28617494 92.09759507 1.29535683 95.48745317 1.31719017 98.87744713 C1.33891456 102.6628043 1.34196893 106.44774498 1.34057617 110.2331543 C1.351362 111.35596802 1.36214783 112.47878174 1.3732605 113.63562012 C1.36913651 114.66902023 1.36501251 115.70242035 1.36076355 116.76713562 C1.36352893 117.66219661 1.36629431 118.5572576 1.36914349 119.47944164 C0.91154619 122.60397376 -0.12127268 124.47752925 -2 127 C-4.97072493 127.99024164 -6.89405053 128.1234388 -9.99235535 128.12025452 C-11.02300613 128.12162918 -12.05365692 128.12300385 -13.11553955 128.12442017 C-14.24554382 128.12082489 -15.3755481 128.11722961 -16.53979492 128.11352539 C-18.32535545 128.11374443 -18.32535545 128.11374443 -20.14698792 128.1139679 C-23.41118607 128.11339022 -26.67534147 128.10837168 -29.93953109 128.10139394 C-33.35082422 128.09514664 -36.76211817 128.09455551 -40.17341614 128.09336853 C-46.63319678 128.09025928 -53.09296052 128.08205136 -59.55273372 128.07201904 C-66.90695364 128.06084531 -74.26117437 128.05534427 -81.61540067 128.05032361 C-96.74360987 128.03986842 -111.87180325 128.02227682 -127 128 C-124.08083903 126.05389269 -121.34638575 125.02208126 -118.0480957 123.89306641 C-109.63215064 121.00832635 -102.05607291 117.49951428 -94.3125 113.125 C-86.45978424 108.77209785 -80.92622788 107.05202181 -71.890625 107.0703125 C-51.81786889 106.70755185 -35.08129626 96.47816381 -21 83 C-20.42636719 82.45134277 -19.85273438 81.90268555 -19.26171875 81.33740234 C-10.83549537 73.98972505 -10.83549537 73.98972505 -6.4375 64.28125 C-6.55734743 59.60720023 -8.70891428 57.45458733 -11.9765625 54.3203125 C-12.64429688 53.71960938 -13.31203125 53.11890625 -14 52.5 C-14.66773438 51.86835938 -15.33546875 51.23671875 -16.0234375 50.5859375 C-17.6656473 49.03756826 -19.32342835 47.51095287 -21 46 C-20.34 45.67 -19.68 45.34 -19 45 C-18.28721402 43.35252971 -17.62759689 41.68176822 -17 40 C-16.21897782 38.35176928 -15.42124305 36.71138261 -14.609375 35.078125 C-8.96192844 23.58432935 -3.88403608 12.20931172 0 0 Z " fill="#2487FE" transform="translate(223,112)"/>
<path d="M0 0 C33 0 66 0 100 0 C93.24857685 7.87666034 93.24857685 7.87666034 89.125 11.5 C88.25617188 12.26699219 87.38734375 13.03398437 86.4921875 13.82421875 C85.25855469 14.90123047 85.25855469 14.90123047 84 16 C83.04480469 16.84498047 83.04480469 16.84498047 82.0703125 17.70703125 C78.99743532 20.41722979 75.8954191 23.0920276 72.77734375 25.75 C65.39825744 32.04308836 58.12894083 38.42391581 51 45 C47.07644963 43.38387092 44.28605335 40.6866819 41.25 37.8125 C40.17511738 36.81051284 39.09959648 35.80920995 38.0234375 34.80859375 C37.50362305 34.32374512 36.98380859 33.83889648 36.44824219 33.33935547 C34.01065013 31.08503483 31.50024527 28.91722515 28.9921875 26.7421875 C26.63979365 24.68499601 24.31965034 22.59403085 22 20.5 C18.9974269 17.79080809 15.98440955 15.0967312 12.9375 12.4375 C12.30714844 11.88707031 11.67679688 11.33664062 11.02734375 10.76953125 C9.52000842 9.45388019 8.01210639 8.13887834 6.50390625 6.82421875 C5.67761719 6.09847656 4.85132812 5.37273437 4 4.625 C3.236875 3.95726562 2.47375 3.28953125 1.6875 2.6015625 C1.130625 2.07304687 0.57375 1.54453125 0 1 C0 0.67 0 0.34 0 0 Z " fill="#FDB454" transform="translate(78,344)"/>
<path d="M0 0 C3.00131187 1.39298555 5.51057409 3.03955068 8.125 5.0625 C13.18851595 8.97000571 16.6048256 9.73554722 23 9 C28.43841721 7.21945059 32.24004992 4.22994384 36 0 C39.9235564 1.61613156 42.71392883 4.31332692 45.75 7.1875 C46.82358607 8.18817921 47.89780508 9.18817979 48.97265625 10.1875 C49.49230957 10.6721875 50.01196289 11.156875 50.54736328 11.65625 C52.39785157 13.36802942 54.28500951 15.03382617 56.1875 16.6875 C56.79980469 17.21988281 57.41210938 17.75226563 58.04296875 18.30078125 C58.68878906 18.86152344 59.33460938 19.42226563 60 20 C61.66974815 21.45480412 63.33638217 22.91318962 65 24.375 C65.763125 25.04273438 66.52625 25.71046875 67.3125 26.3984375 C67.869375 26.92695313 68.42625 27.45546875 69 28 C69 28.33 69 28.66 69 29 C36 29 3 29 -31 29 C-24.32717678 21.21503958 -24.32717678 21.21503958 -20 17.875 C-12.98477005 12.29184458 -6.51450852 6.15311972 0 0 Z " fill="#FDA532" transform="translate(109,395)"/>
<path d="M0 0 C8.99407846 6.74555885 8.99407846 6.74555885 11.78125 9.40234375 C12.39194336 9.97952148 13.00263672 10.55669922 13.63183594 11.15136719 C14.24833008 11.74079102 14.86482422 12.33021484 15.5 12.9375 C16.80647955 14.17143334 18.11376346 15.40451563 19.421875 16.63671875 C20.03869141 17.21856934 20.65550781 17.80041992 21.29101562 18.39990234 C25.34729789 22.19774148 29.37359793 25.91573196 34 29 C32.92518582 32.22444254 32.32427942 32.83274667 29.8125 34.9375 C29.09449219 35.54722656 28.37648438 36.15695312 27.63671875 36.78515625 C26.76660156 37.51605469 25.89648438 38.24695313 25 39 C22.7044469 40.95379743 20.41476036 42.91441969 18.125 44.875 C17.52445801 45.38764404 16.92391602 45.90028809 16.30517578 46.4284668 C11.72036174 50.3518549 7.23394577 54.36713635 2.79296875 58.453125 C1 60 1 60 0 60 C0 40.2 0 20.4 0 0 Z " fill="#FC9611" transform="translate(64,354)"/>
<path d="M0 0 C0 19.8 0 39.6 0 60 C-5.01548147 56.2383889 -8.82501738 53.26605749 -13.01953125 48.91796875 C-15.39606218 46.61643683 -17.92132586 44.57208604 -20.5 42.5 C-24.96083008 38.91287733 -29.07616772 35.16488683 -33 31 C-31.69983484 28.10368126 -30.36489577 26.14805694 -28.0234375 24.01171875 C-27.43900879 23.47369629 -26.85458008 22.93567383 -26.25244141 22.38134766 C-25.63288574 21.82237793 -25.01333008 21.2634082 -24.375 20.6875 C-23.74126465 20.10790527 -23.1075293 19.52831055 -22.45458984 18.93115234 C-18.61583606 15.43038968 -14.75210644 11.95807877 -10.81640625 8.56640625 C-9.46079219 7.39737133 -8.11616322 6.21557544 -6.77734375 5.02734375 C-6.04644531 4.37894531 -5.31554687 3.73054688 -4.5625 3.0625 C-3.90378906 2.47597656 -3.24507812 1.88945312 -2.56640625 1.28515625 C-1 0 -1 0 0 0 Z " fill="#FC9611" transform="translate(192,354)"/>
<path d="M0 0 C4.98669007 2.49334503 8.49675474 5.99350949 11 11 C11.54360446 15.95482094 11.56437074 19.87125852 9.3125 24.375 C5.72054254 28.45235712 2.52833982 31.59004052 -3.05078125 32.23828125 C-8.58896758 32.42001793 -11.64755155 31.74513006 -16 28 C-20.3022759 23.23261319 -21.36282503 19.56252705 -21.28125 13.28125 C-20.69180611 8.50020514 -17.85179203 5.75038822 -14.375 2.6875 C-9.71860985 -0.62098774 -5.60468123 -0.62082623 0 0 Z " fill="#98C4F9" transform="translate(389,112)"/>
<path d="M0 0 C4.10108886 1.62156024 6.83148167 4.5767703 9.859375 7.6640625 C10.40861633 8.21613373 10.95785767 8.76820496 11.52374268 9.33700562 C13.27059293 11.09501815 15.01034601 12.8598689 16.75 14.625 C17.93573591 15.8207708 19.1219288 17.01608865 20.30859375 18.2109375 C23.21105085 21.13540253 26.1071641 24.06601874 29 27 C27.46126823 30.71860179 26.52488612 31.35633541 23 34 C13.76 24.76 4.52 15.52 -5 6 C-3.35 4.02 -1.7 2.04 0 0 Z " fill="#EF7252" transform="translate(169,148)"/>
<path d="M0 0 C4.39908777 0.06778161 7.00085169 3.6237685 9.859375 6.56640625 C10.40861633 7.11989243 10.95785767 7.6733786 11.52374268 8.24363708 C13.27300464 10.00966559 15.01153644 11.78584692 16.75 13.5625 C17.935505 14.76305441 19.12169524 15.9629326 20.30859375 17.16210938 C23.21373293 20.10029095 26.10929337 23.04762074 29 26 C27.46126823 29.71860179 26.52488612 30.35633541 23 33 C14.09 24.09 5.18 15.18 -4 6 C-2 2 -2 2 0 0 Z " fill="#F17352" transform="translate(82,62)"/>
</svg>
