<?xml version="1.0" encoding="UTF-8"?>
<svg version="1.1" xmlns="http://www.w3.org/2000/svg" width="512" height="512">
<path d="M0 0 C1.96239372 -0.005476 1.96239372 -0.005476 3.96443176 -0.01106262 C7.53252841 -0.02041965 11.10034826 -0.01109125 14.66842318 0.00226951 C18.41187327 0.01363594 22.15531078 0.00947262 25.89877319 0.00752258 C32.18142182 0.00664146 38.46396216 0.01768365 44.74658203 0.03613281 C52.00164565 0.0573161 59.25655095 0.0608053 66.51163924 0.05457085 C73.5051498 0.04886982 80.49860484 0.05453038 87.49210739 0.0657444 C90.46245733 0.07037872 93.43277319 0.07126933 96.40312576 0.06915855 C100.55138646 0.06691947 104.6994268 0.08140702 108.84765625 0.09765625 C110.07586594 0.09517883 111.30407562 0.09270142 112.56950378 0.09014893 C114.26840004 0.10077614 114.26840004 0.10077614 116.00161743 0.11161804 C117.47104011 0.11469735 117.47104011 0.11469735 118.97014809 0.11783886 C122.15279959 0.40460418 124.79694013 1.29059897 127.79443359 2.37231445 C129.41162988 2.63442884 131.03786148 2.84898972 132.66943359 2.99731445 C133.45060547 3.07208008 134.23177734 3.1468457 135.03662109 3.22387695 C135.61669922 3.27286133 136.19677734 3.3218457 136.79443359 3.37231445 C137.12443359 4.36231445 137.45443359 5.35231445 137.79443359 6.37231445 C140.76443359 6.70231445 143.73443359 7.03231445 146.79443359 7.37231445 C146.13443359 8.69231445 145.47443359 10.01231445 144.79443359 11.37231445 C150.46147397 12.74337261 155.91379046 13.68037155 161.72802734 14.1262207 C163.79443359 14.37231445 163.79443359 14.37231445 165.79443359 15.37231445 C165.79443359 16.03231445 165.79443359 16.69231445 165.79443359 17.37231445 C165.03517578 17.56567383 164.27591797 17.7590332 163.49365234 17.95825195 C162.49978516 18.21864258 161.50591797 18.4790332 160.48193359 18.74731445 C159.49580078 19.00254883 158.50966797 19.2577832 157.49365234 19.52075195 C154.61385199 20.29144619 154.61385199 20.29144619 151.79443359 22.37231445 C149.09521484 22.56762695 149.09521484 22.56762695 146.10693359 22.49731445 C144.61613281 22.47024414 144.61613281 22.47024414 143.09521484 22.44262695 C142.33595703 22.41942383 141.57669922 22.3962207 140.79443359 22.37231445 C142.77443359 23.03231445 144.75443359 23.69231445 146.79443359 24.37231445 C146.46443359 25.36231445 146.13443359 26.35231445 145.79443359 27.37231445 C141.83443359 27.04231445 137.87443359 26.71231445 133.79443359 26.37231445 C133.79443359 27.36231445 133.79443359 28.35231445 133.79443359 29.37231445 C132.87210937 29.44579102 132.87210937 29.44579102 131.93115234 29.52075195 C130.71878906 29.63290039 130.71878906 29.63290039 129.48193359 29.74731445 C128.68142578 29.81692383 127.88091797 29.8865332 127.05615234 29.95825195 C124.52218919 30.26795871 124.52218919 30.26795871 121.79443359 32.37231445 C134.759865 35.34576031 147.62645296 37.15486413 160.87915039 38.33251953 C166.75009484 38.87016058 172.20986704 39.44205068 177.79443359 41.37231445 C177.79443359 42.03231445 177.79443359 42.69231445 177.79443359 43.37231445 C188.18943359 45.35231445 188.18943359 45.35231445 198.79443359 47.37231445 C198.79443359 47.70231445 198.79443359 48.03231445 198.79443359 48.37231445 C194.0671976 49.54091888 189.40102821 49.62068981 184.56005859 49.7668457 C182.69771924 49.83309825 180.83541545 49.90035673 178.97314453 49.96850586 C178.00340698 50.00341125 177.03366943 50.03831665 176.0345459 50.07427979 C158.69764709 50.71516821 141.81819463 51.79576282 124.79443359 55.37231445 C130.42476636 55.98621146 135.99966588 56.52515817 141.66943359 56.55981445 C142.73935547 56.57399414 143.80927734 56.58817383 144.91162109 56.6027832 C147.72341167 56.56112198 147.72341167 56.56112198 149.7233429 55.39686584 C156.33767827 52.12480899 165.29412355 53.26566048 172.47021484 53.3449707 C174.70133316 53.35760414 176.93245302 53.36996602 179.16357422 53.38208008 C182.65068491 53.40698625 186.13771346 53.43510711 189.62475586 53.46826172 C193.01074762 53.49839422 196.39663217 53.51620456 199.78271484 53.5324707 C200.82752518 53.54593033 201.87233551 53.55938995 202.94880676 53.57325745 C204.40633614 53.57832558 204.40633614 53.57832558 205.89331055 53.58349609 C206.74552689 53.59095352 207.59774323 53.59841095 208.4757843 53.60609436 C211.00784737 53.35079682 212.55851325 52.53404738 214.79443359 51.37231445 C219.32074938 51.89863024 219.32074938 51.89863024 220.79443359 53.37231445 C221.30762741 58.67531718 221.30762741 58.67531718 220.79443359 61.37231445 C218.29443359 63.12231445 218.29443359 63.12231445 215.79443359 64.37231445 C215.79443359 65.69231445 215.79443359 67.01231445 215.79443359 68.37231445 C216.86693359 67.87731445 217.93943359 67.38231445 219.04443359 66.87231445 C222.04860167 65.48577534 223.25378255 65.37231445 226.79443359 65.37231445 C226.79443359 66.69231445 226.79443359 68.01231445 226.79443359 69.37231445 C227.78443359 70.03231445 228.77443359 70.69231445 229.79443359 71.37231445 C228.392876 74.71004438 226.843465 76.38980503 223.91943359 78.49731445 C222.90236328 79.24368164 222.90236328 79.24368164 221.86474609 80.00512695 C219.89687409 81.30466507 217.92589675 82.36871073 215.79443359 83.37231445 C219.25943359 82.87731445 219.25943359 82.87731445 222.79443359 82.37231445 C222.79443359 83.36231445 222.79443359 84.35231445 222.79443359 85.37231445 C220.81443359 86.36231445 220.81443359 86.36231445 218.79443359 87.37231445 C218.79443359 88.03231445 218.79443359 88.69231445 218.79443359 89.37231445 C219.69806641 89.34911133 220.60169922 89.3259082 221.53271484 89.30200195 C223.30195312 89.27493164 223.30195312 89.27493164 225.10693359 89.24731445 C226.27869141 89.22411133 227.45044922 89.2009082 228.65771484 89.17700195 C231.79443359 89.37231445 231.79443359 89.37231445 234.79443359 91.37231445 C234.79443359 92.03231445 234.79443359 92.69231445 234.79443359 93.37231445 C233.30943359 94.36231445 233.30943359 94.36231445 231.79443359 95.37231445 C231.07060893 97.43156584 231.07060893 97.43156584 230.79443359 99.37231445 C229.80443359 99.37231445 228.81443359 99.37231445 227.79443359 99.37231445 C227.79443359 100.03231445 227.79443359 100.69231445 227.79443359 101.37231445 C227.13443359 101.37231445 226.47443359 101.37231445 225.79443359 101.37231445 C225.46443359 102.36231445 225.13443359 103.35231445 224.79443359 104.37231445 C223.23193359 106.05981445 223.23193359 106.05981445 221.79443359 107.37231445 C230.61130305 109.28821647 239.3189649 109.73992872 248.31445312 110.03027344 C249.23726074 110.06193604 250.16006836 110.09359863 251.11083984 110.1262207 C252.35522827 110.16211304 252.35522827 110.16211304 253.62475586 110.19873047 C255.79443359 110.37231445 255.79443359 110.37231445 258.79443359 111.37231445 C259.12443359 112.03231445 259.45443359 112.69231445 259.79443359 113.37231445 C261.9209254 113.93547565 261.9209254 113.93547565 264.48583984 114.22387695 C265.43007813 114.3527832 266.37431641 114.48168945 267.34716797 114.61450195 C268.83700195 114.80399414 268.83700195 114.80399414 270.35693359 114.99731445 C271.35402344 115.13137695 272.35111328 115.26543945 273.37841797 115.40356445 C275.84946138 115.73461333 278.32132411 116.0571359 280.79443359 116.37231445 C280.79443359 116.70231445 280.79443359 117.03231445 280.79443359 117.37231445 C279.78767578 117.47777588 278.78091797 117.5832373 277.74365234 117.69189453 C273.925885 118.09358181 270.10908082 118.50388833 266.29248047 118.91650391 C264.65600376 119.09227481 263.0192904 119.26585928 261.38232422 119.43701172 C247.6855081 120.87147557 234.02087907 122.56432572 220.79443359 126.55981445 C219.63943359 126.90399414 218.48443359 127.24817383 217.29443359 127.6027832 C216.46943359 127.85672852 215.64443359 128.11067383 214.79443359 128.37231445 C215.49310547 128.48188477 216.19177734 128.59145508 216.91162109 128.7043457 C217.82169922 128.86290039 218.73177734 129.02145508 219.66943359 129.18481445 C221.02681641 129.41104492 221.02681641 129.41104492 222.41162109 129.6418457 C224.79443359 130.37231445 224.79443359 130.37231445 226.79443359 133.37231445 C228.67700661 134.02621997 228.67700661 134.02621997 230.85693359 134.2512207 C231.65357422 134.36788086 232.45021484 134.48454102 233.27099609 134.60473633 C234.10373047 134.71366211 234.93646484 134.82258789 235.79443359 134.93481445 C237.44128679 135.15787893 239.08720047 135.38802715 240.73193359 135.6262207 C241.46283203 135.72233643 242.19373047 135.81845215 242.94677734 135.91748047 C244.79443359 136.37231445 244.79443359 136.37231445 246.79443359 138.37231445 C242.08064356 138.65982926 237.3666966 138.94456492 232.65258789 139.22680664 C231.05130561 139.32306123 229.45006756 139.42005466 227.84887695 139.51782227 C225.53787489 139.65879843 223.22672305 139.79705372 220.91552734 139.93481445 C220.20794785 139.97856201 219.50036835 140.02230957 218.77134705 140.06738281 C214.43441328 140.32269487 210.1360472 140.41198654 205.79443359 140.37231445 C205.46443359 141.36231445 205.13443359 142.35231445 204.79443359 143.37231445 C211.94772301 143.423096 219.10096579 143.45808238 226.25439453 143.48217773 C228.68702939 143.49222459 231.11965221 143.5058644 233.55224609 143.52319336 C237.05227637 143.54749913 240.55214671 143.5588109 244.05224609 143.56762695 C245.13684113 143.57794952 246.22143616 143.58827209 247.33889771 143.59890747 C252.63559537 143.59969145 256.79517678 143.29435693 261.79443359 141.37231445 C265.66943359 141.74731445 265.66943359 141.74731445 268.79443359 142.37231445 C268.73437281 143.8317915 268.6455647 145.29010717 268.54443359 146.74731445 C268.49802734 147.55942383 268.45162109 148.3715332 268.40380859 149.20825195 C267.79443359 151.37231445 267.79443359 151.37231445 265.74755859 152.66137695 C265.10302734 152.89598633 264.45849609 153.1305957 263.79443359 153.37231445 C263.79443359 155.02231445 263.79443359 156.67231445 263.79443359 158.37231445 C264.33712891 158.07196289 264.87982422 157.77161133 265.43896484 157.4621582 C266.15439453 157.08188477 266.86982422 156.70161133 267.60693359 156.30981445 C268.31462891 155.92696289 269.02232422 155.54411133 269.75146484 155.1496582 C271.79443359 154.37231445 271.79443359 154.37231445 274.79443359 155.37231445 C274.46443359 156.69231445 274.13443359 158.01231445 273.79443359 159.37231445 C275.11443359 160.03231445 276.43443359 160.69231445 277.79443359 161.37231445 C277.79443359 162.03231445 277.79443359 162.69231445 277.79443359 163.37231445 C276.14990234 164.80981445 276.14990234 164.80981445 273.98193359 166.37231445 C273.27423828 166.88793945 272.56654297 167.40356445 271.83740234 167.93481445 C266.95204229 171.37231445 266.95204229 171.37231445 262.79443359 171.37231445 C262.79443359 172.36231445 262.79443359 173.35231445 262.79443359 174.37231445 C263.37193359 174.04231445 263.94943359 173.71231445 264.54443359 173.37231445 C266.79443359 172.37231445 266.79443359 172.37231445 270.79443359 172.37231445 C270.79443359 175.37231445 270.79443359 175.37231445 268.85693359 177.37231445 C268.17630859 178.03231445 267.49568359 178.69231445 266.79443359 179.37231445 C266.46443359 180.36231445 266.13443359 181.35231445 265.79443359 182.37231445 C264.30943359 183.36231445 264.30943359 183.36231445 262.79443359 184.37231445 C262.09784996 186.02670058 261.43346476 187.69485763 260.79443359 189.37231445 C259.83619107 190.73596728 258.84722185 192.08025614 257.79443359 193.37231445 C258.78443359 194.03231445 259.77443359 194.69231445 260.79443359 195.37231445 C260.46443359 196.03231445 260.13443359 196.69231445 259.79443359 197.37231445 C261.11443359 197.37231445 262.43443359 197.37231445 263.79443359 197.37231445 C264.12443359 196.38231445 264.45443359 195.39231445 264.79443359 194.37231445 C267.76443359 194.04231445 270.73443359 193.71231445 273.79443359 193.37231445 C274.45443359 194.69231445 275.11443359 196.01231445 275.79443359 197.37231445 C278.34963281 198.18402674 278.34963281 198.18402674 280.79443359 198.37231445 C281.12443359 200.02231445 281.45443359 201.67231445 281.79443359 203.37231445 C286.08443359 204.03231445 290.37443359 204.69231445 294.79443359 205.37231445 C294.79443359 205.70231445 294.79443359 206.03231445 294.79443359 206.37231445 C289.51443359 207.03231445 284.23443359 207.69231445 278.79443359 208.37231445 C278.79443359 209.69231445 278.79443359 211.01231445 278.79443359 212.37231445 C289.18943359 213.85731445 289.18943359 213.85731445 299.79443359 215.37231445 C299.79443359 215.70231445 299.79443359 216.03231445 299.79443359 216.37231445 C299.15755615 216.44748291 298.52067871 216.52265137 297.86450195 216.60009766 C291.33062319 217.37308537 284.79844593 218.15935412 278.26708984 218.95336914 C275.03748217 219.34299279 271.80674036 219.72150449 268.57568359 220.09887695 C258.51769359 221.30659992 248.9199072 222.92614514 239.14599609 225.5871582 C234.86291976 226.59053622 231.16530403 226.68451948 226.79443359 226.37231445 C226.46443359 227.36231445 226.13443359 228.35231445 225.79443359 229.37231445 C223.81443359 229.70231445 221.83443359 230.03231445 219.79443359 230.37231445 C219.79443359 229.71231445 219.79443359 229.05231445 219.79443359 228.37231445 C219.13443359 228.37231445 218.47443359 228.37231445 217.79443359 228.37231445 C218.06119563 230.35723087 218.06119563 230.35723087 218.79443359 232.37231445 C219.78443359 232.70231445 220.77443359 233.03231445 221.79443359 233.37231445 C221.13443359 234.03231445 220.47443359 234.69231445 219.79443359 235.37231445 C223.75443359 235.70231445 227.71443359 236.03231445 231.79443359 236.37231445 C231.79443359 237.36231445 231.79443359 238.35231445 231.79443359 239.37231445 C228.82443359 239.37231445 225.85443359 239.37231445 222.79443359 239.37231445 C222.85630859 241.25950195 222.85630859 241.25950195 222.91943359 243.18481445 C223.03347099 246.66295518 222.85369041 247.28342923 220.79443359 250.37231445 C220.98497047 252.3891548 220.98497047 252.3891548 221.66943359 254.43481445 C222.54583732 257.41347777 223.09083195 259.31845363 222.23193359 262.37231445 C221.5621973 264.43119126 221.5621973 264.43119126 222.79443359 266.37231445 C221.70000891 271.40666801 219.98596742 273.47816015 215.79443359 276.37231445 C212.78299723 278.43712208 212.78299723 278.43712208 210.79443359 281.37231445 C208.07665623 281.9670141 205.41508682 282.45449766 202.66943359 282.87231445 C201.16623831 283.10816061 199.66361902 283.34770939 198.16162109 283.59106445 C197.49243652 283.69354492 196.82325195 283.79602539 196.13378906 283.90161133 C193.61920096 284.36551245 193.61920096 284.36551245 190.55249023 285.38378906 C186.39094097 286.47844982 182.5767985 286.796752 178.29833984 286.9699707 C177.5059642 287.00916122 176.71358856 287.04835175 175.89720154 287.08872986 C173.3840772 287.21184142 170.87062528 287.32394826 168.35693359 287.43481445 C165.84694274 287.55106921 163.33710154 287.66973448 160.82737732 287.79161072 C159.27258782 287.86654212 157.71762712 287.93803458 156.16249084 288.00538635 C151.32885142 288.23111787 146.58969999 288.71975227 141.79443359 289.37231445 C141.79443359 290.03231445 141.79443359 290.69231445 141.79443359 291.37231445 C142.45443359 291.70231445 143.11443359 292.03231445 143.79443359 292.37231445 C143.79443359 294.68231445 143.79443359 296.99231445 143.79443359 299.37231445 C142.80443359 299.37231445 141.81443359 299.37231445 140.79443359 299.37231445 C141.14505859 300.15606445 141.49568359 300.93981445 141.85693359 301.74731445 C142.32099609 303.04668945 142.32099609 303.04668945 142.79443359 304.37231445 C141.40126483 307.15865199 139.63462843 307.30724139 136.79443359 308.37231445 C136.46443359 308.70231445 136.13443359 309.03231445 135.79443359 309.37231445 C134.2121387 309.65752698 132.61967737 309.88686865 131.02490234 310.09106445 C129.56793945 310.28249023 129.56793945 310.28249023 128.08154297 310.4777832 C127.05867188 310.60797852 126.03580078 310.73817383 124.98193359 310.87231445 C122.97515748 311.13067569 120.96863508 311.39101714 118.96240234 311.65356445 C117.62085083 311.8246875 117.62085083 311.8246875 116.25219727 311.99926758 C114.04127966 312.3348474 111.95994879 312.82610479 109.79443359 313.37231445 C105.77361653 314.13600371 101.97381612 314.49919024 97.88340759 314.50602722 C96.72437927 314.51029221 95.56535095 314.51455719 94.37120056 314.51895142 C92.48456444 314.51827164 92.48456444 314.51827164 90.55981445 314.51757812 C89.21058052 314.52057317 87.86134744 314.52397649 86.51211548 314.52775574 C82.8567512 314.53656857 79.20141036 314.53893281 75.54603648 314.53957152 C73.25671253 314.540284 70.96739446 314.54242215 68.67807198 314.54506874 C60.67494455 314.55431585 52.67183376 314.55840475 44.66870117 314.55761719 C37.23660506 314.55701779 29.80458186 314.56754412 22.37250417 314.58336085 C15.97138028 314.59649259 9.57028003 314.60179867 3.16914278 314.60116178 C-0.64467556 314.60090828 -4.45842917 314.60367644 -8.27223396 314.61433983 C-11.86657155 314.62411515 -15.46078384 314.62403635 -19.05512619 314.6168232 C-20.98130154 314.61530068 -22.90747713 314.6235593 -24.83363342 314.63226318 C-44.13275619 314.56358978 -44.13275619 314.56358978 -52.20556641 310.37231445 C-54.53051918 309.98482232 -56.86407909 309.64248607 -59.20556641 309.37231445 C-58.54556641 308.05231445 -57.88556641 306.73231445 -57.20556641 305.37231445 C-62.43686925 303.62854684 -67.24204796 303.05229919 -72.75244141 302.8137207 C-75.55352055 302.30970487 -76.45607131 301.55918332 -78.20556641 299.37231445 C-74.55476814 297.76166816 -71.15482321 296.92337354 -67.20556641 296.37231445 C-67.20556641 295.38231445 -67.20556641 294.39231445 -67.20556641 293.37231445 C-68.21619141 293.22793945 -69.22681641 293.08356445 -70.26806641 292.93481445 C-71.56744141 292.74918945 -72.86681641 292.56356445 -74.20556641 292.37231445 C-75.46369141 292.20731445 -76.72181641 292.04231445 -78.01806641 291.87231445 C-81.20556641 291.37231445 -81.20556641 291.37231445 -83.20556641 290.37231445 C-83.20556641 289.71231445 -83.20556641 289.05231445 -83.20556641 288.37231445 C-82.42310547 288.25114258 -81.64064453 288.1299707 -80.83447266 288.00512695 C-79.82255859 287.83754883 -78.81064453 287.6699707 -77.76806641 287.49731445 C-76.75873047 287.33489258 -75.74939453 287.1724707 -74.70947266 287.00512695 C-73.88318359 286.79629883 -73.05689453 286.5874707 -72.20556641 286.37231445 C-71.87556641 285.71231445 -71.54556641 285.05231445 -71.20556641 284.37231445 C-68.70166016 283.95825195 -68.70166016 283.95825195 -65.64306641 283.74731445 C-64.63115234 283.67254883 -63.61923828 283.5977832 -62.57666016 283.52075195 C-61.79419922 283.47176758 -61.01173828 283.4227832 -60.20556641 283.37231445 C-61.52556641 282.71231445 -62.84556641 282.05231445 -64.20556641 281.37231445 C-64.20556641 280.71231445 -64.20556641 280.05231445 -64.20556641 279.37231445 C-65.25615234 279.25114258 -66.30673828 279.1299707 -67.38916016 279.00512695 C-83.33229053 277.12399322 -83.33229053 277.12399322 -89.20556641 275.37231445 C-89.70056641 273.88731445 -89.70056641 273.88731445 -90.20556641 272.37231445 C-90.77065918 272.29190918 -91.33575195 272.21150391 -91.91796875 272.12866211 C-94.47349242 271.76013257 -97.02695924 271.37888794 -99.58056641 270.99731445 C-100.47001953 270.87098633 -101.35947266 270.7446582 -102.27587891 270.61450195 C-103.12666016 270.4855957 -103.97744141 270.35668945 -104.85400391 270.22387695 C-105.63952637 270.10866699 -106.42504883 269.99345703 -107.234375 269.87475586 C-109.20556641 269.37231445 -109.20556641 269.37231445 -111.20556641 267.37231445 C-105.59556641 267.04231445 -99.98556641 266.71231445 -94.20556641 266.37231445 C-94.53556641 265.05231445 -94.86556641 263.73231445 -95.20556641 262.37231445 C-99.43467509 262.31414239 -103.66368049 262.27865982 -107.89306641 262.24731445 C-109.09125 262.23055664 -110.28943359 262.21379883 -111.52392578 262.1965332 C-112.68085937 262.19008789 -113.83779297 262.18364258 -115.02978516 262.17700195 C-116.09285889 262.16652832 -117.15593262 262.15605469 -118.2512207 262.14526367 C-121.30341034 262.37983407 -123.39774566 263.22120994 -126.20556641 264.37231445 C-130.01806641 263.99731445 -130.01806641 263.99731445 -133.20556641 263.37231445 C-133.20556641 260.40231445 -133.20556641 257.43231445 -133.20556641 254.37231445 C-134.85556641 254.04231445 -136.50556641 253.71231445 -138.20556641 253.37231445 C-139.33056641 247.62231445 -139.33056641 247.62231445 -138.20556641 245.37231445 C-139.52556641 245.37231445 -140.84556641 245.37231445 -142.20556641 245.37231445 C-141.33056641 241.49731445 -141.33056641 241.49731445 -140.20556641 240.37231445 C-141.52556641 240.37231445 -142.84556641 240.37231445 -144.20556641 240.37231445 C-144.20556641 239.05231445 -144.20556641 237.73231445 -144.20556641 236.37231445 C-145.19556641 236.04231445 -146.18556641 235.71231445 -147.20556641 235.37231445 C-146.83977229 232.56995952 -146.31222628 231.47875797 -144.27978516 229.45043945 C-143.49216797 228.8471582 -142.70455078 228.24387695 -141.89306641 227.62231445 C-140.72324219 226.70192383 -140.72324219 226.70192383 -139.52978516 225.76293945 C-137.20556641 224.37231445 -137.20556641 224.37231445 -133.20556641 224.37231445 C-133.20556641 223.38231445 -133.20556641 222.39231445 -133.20556641 221.37231445 C-133.78306641 221.72293945 -134.36056641 222.07356445 -134.95556641 222.43481445 C-137.56358417 223.52148852 -138.59974269 223.30296578 -141.20556641 222.37231445 C-139.93603516 220.9074707 -138.66650391 219.44262695 -137.39697266 217.9777832 C-135.99685409 216.26518474 -135.99685409 216.26518474 -135.20556641 213.37231445 C-135.84494141 213.10418945 -136.48431641 212.83606445 -137.14306641 212.55981445 C-139.20556641 211.37231445 -139.20556641 211.37231445 -140.20556641 208.37231445 C-142.18556641 208.04231445 -144.16556641 207.71231445 -146.20556641 207.37231445 C-146.20556641 204.73231445 -146.20556641 202.09231445 -146.20556641 199.37231445 C-145.21556641 199.04231445 -144.22556641 198.71231445 -143.20556641 198.37231445 C-145.51556641 197.71231445 -147.82556641 197.05231445 -150.20556641 196.37231445 C-150.20556641 194.72231445 -150.20556641 193.07231445 -150.20556641 191.37231445 C-150.86943359 191.38391602 -151.53330078 191.39551758 -152.21728516 191.4074707 C-160.98764022 191.49709477 -160.98764022 191.49709477 -165.20556641 190.37231445 C-165.20556641 190.04231445 -165.20556641 189.71231445 -165.20556641 189.37231445 C-159.84461307 188.2436927 -154.65249955 188.27543224 -149.20556641 188.37231445 C-149.06119141 187.73293945 -148.91681641 187.09356445 -148.76806641 186.43481445 C-148.20556641 184.37231445 -148.20556641 184.37231445 -147.20556641 183.37231445 C-140.32695194 181.93260445 -133.20156082 182.05346216 -126.20556641 182.37231445 C-125.87556641 182.70231445 -125.54556641 183.03231445 -125.20556641 183.37231445 C-124.87556641 183.04231445 -124.54556641 182.71231445 -124.20556641 182.37231445 C-121.74289786 182.16072479 -119.29783757 181.99613661 -116.83056641 181.87231445 C-111.44201503 181.61955005 -111.44201503 181.61955005 -106.20556641 180.37231445 C-105.54556641 179.38231445 -104.88556641 178.39231445 -104.20556641 177.37231445 C-105.41212891 176.93918945 -105.41212891 176.93918945 -106.64306641 176.49731445 C-109.20556641 175.37231445 -109.20556641 175.37231445 -110.20556641 173.37231445 C-112.23060529 172.71627293 -112.23060529 172.71627293 -114.67822266 172.30200195 C-115.57734375 172.12797852 -116.47646484 171.95395508 -117.40283203 171.7746582 C-118.34835938 171.60063477 -119.29388672 171.42661133 -120.26806641 171.24731445 C-121.6921582 170.97467773 -121.6921582 170.97467773 -123.14501953 170.6965332 C-125.49717921 170.24737708 -127.85057819 169.80635252 -130.20556641 169.37231445 C-130.20556641 169.04231445 -130.20556641 168.71231445 -130.20556641 168.37231445 C-129.19655273 168.31696533 -128.18753906 168.26161621 -127.14794922 168.20458984 C-123.39805121 167.9978676 -119.64845395 167.78607084 -115.89892578 167.57275391 C-114.2772584 167.48120294 -112.65551311 167.39102121 -111.03369141 167.30224609 C-108.70013862 167.17427246 -106.366912 167.04134839 -104.03369141 166.9074707 C-103.31062805 166.86888443 -102.5875647 166.83029816 -101.84259033 166.7905426 C-99.12527469 166.63093118 -96.54506573 166.4602141 -93.90380859 165.77636719 C-92.20556641 165.37231445 -92.20556641 165.37231445 -89.20556641 166.37231445 C-88.54556641 165.05231445 -87.88556641 163.73231445 -87.20556641 162.37231445 C-87.86556641 162.70231445 -88.52556641 163.03231445 -89.20556641 163.37231445 C-90.81358365 163.45244912 -92.42496914 163.46908981 -94.03491211 163.45410156 C-95.54206535 163.44430519 -95.54206535 163.44430519 -97.07966614 163.43431091 C-98.16922104 163.42287552 -99.25877594 163.41144012 -100.38134766 163.3996582 C-102.67626801 163.38700926 -104.97118997 163.37464849 -107.26611328 163.36254883 C-110.89368646 163.33773777 -114.52117716 163.3097858 -118.14868164 163.27636719 C-121.64290902 163.24615636 -125.13703128 163.2283841 -128.63134766 163.2121582 C-129.71482986 163.19869858 -130.79831207 163.18523895 -131.91462708 163.17137146 C-133.43596504 163.16630333 -133.43596504 163.16630333 -134.98803711 163.16113281 C-136.32134819 163.14994667 -136.32134819 163.14994667 -137.68159485 163.13853455 C-140.27603893 163.25806998 -140.27603893 163.25806998 -142.79338074 164.40895081 C-146.15425702 165.75119659 -148.71882775 165.0559887 -152.20556641 164.37231445 C-152.64741176 158.98180113 -152.64741176 158.98180113 -152.20556641 156.37231445 C-149.70556641 154.68481445 -149.70556641 154.68481445 -147.20556641 153.37231445 C-146.78775761 150.74537023 -146.78775761 150.74537023 -147.20556641 148.37231445 C-148.01960938 148.8228418 -148.01960938 148.8228418 -148.85009766 149.2824707 C-149.92324219 149.85288086 -149.92324219 149.85288086 -151.01806641 150.43481445 C-151.72576172 150.81766602 -152.43345703 151.20051758 -153.16259766 151.5949707 C-155.20556641 152.37231445 -155.20556641 152.37231445 -158.20556641 151.37231445 C-157.87556641 149.72231445 -157.54556641 148.07231445 -157.20556641 146.37231445 C-158.52556641 146.37231445 -159.84556641 146.37231445 -161.20556641 146.37231445 C-161.01806641 144.55981445 -161.01806641 144.55981445 -160.20556641 142.37231445 C-157.83056641 140.80981445 -157.83056641 140.80981445 -155.20556641 139.37231445 C-154.71056641 138.85668945 -154.21556641 138.34106445 -153.70556641 137.80981445 C-151.76980419 135.954709 -149.67868139 135.34854405 -147.20556641 134.37231445 C-146.87556641 133.71231445 -146.54556641 133.05231445 -146.20556641 132.37231445 C-146.94806641 132.72293945 -147.69056641 133.07356445 -148.45556641 133.43481445 C-151.33783901 134.41740739 -152.41732985 134.40499466 -155.20556641 133.37231445 C-153.90348307 131.87491862 -152.60139974 130.37752279 -151.29931641 128.88012695 C-150.00984183 127.41295024 -150.00984183 127.41295024 -150.20556641 125.37231445 C-155.15556641 125.70231445 -160.10556641 126.03231445 -165.20556641 126.37231445 C-165.20556641 123.37231445 -165.20556641 123.37231445 -163.20556641 121.37231445 C-163.10244141 120.73293945 -162.99931641 120.09356445 -162.89306641 119.43481445 C-161.89241309 116.43285449 -159.89323403 115.93491191 -157.20556641 114.37231445 C-155.83796149 112.7336527 -154.49983792 111.06949352 -153.20556641 109.37231445 C-153.97634521 109.31696533 -154.74712402 109.26161621 -155.54125977 109.20458984 C-159.07532705 108.94978913 -162.60919532 108.69232134 -166.14306641 108.43481445 C-167.35542969 108.34780273 -168.56779297 108.26079102 -169.81689453 108.17114258 C-176.29944166 107.69680986 -182.75161208 107.14511805 -189.20556641 106.37231445 C-189.53556641 105.38231445 -189.86556641 104.39231445 -190.20556641 103.37231445 C-197.46556641 102.71231445 -204.72556641 102.05231445 -212.20556641 101.37231445 C-212.20556641 100.71231445 -212.20556641 100.05231445 -212.20556641 99.37231445 C-210.91158936 99.24703369 -209.6176123 99.12175293 -208.28442383 98.99267578 C-203.38663383 98.51427792 -198.49110539 98.01530098 -193.59594727 97.51074219 C-191.49525622 97.29697418 -189.39402273 97.08845759 -187.29223633 96.88574219 C-174.9042393 95.68690377 -163.20129544 93.87764892 -151.22729492 90.46679688 C-146.54981918 89.1467043 -141.92456032 88.46382052 -137.08056641 88.12231445 C-132.25546137 88.13820621 -132.25546137 88.13820621 -128.20556641 86.37231445 C-126.35269139 86.30004944 -124.49722763 86.28850226 -122.64306641 86.30981445 C-121.63115234 86.31883789 -120.61923828 86.32786133 -119.57666016 86.3371582 C-118.79419922 86.34875977 -118.01173828 86.36036133 -117.20556641 86.37231445 C-117.37056641 85.58856445 -117.53556641 84.80481445 -117.70556641 83.99731445 C-118.20556641 81.37231445 -118.20556641 81.37231445 -118.20556641 79.37231445 C-122.26771242 78.10289382 -125.05005424 78.76025634 -129.08837891 79.88793945 C-134.12040545 81.039178 -139.21809229 80.61918298 -144.20556641 79.37231445 C-144.20556641 78.71231445 -144.20556641 78.05231445 -144.20556641 77.37231445 C-137.33056641 76.37231445 -137.33056641 76.37231445 -136.20556641 76.37231445 C-136.08181641 75.27918945 -135.95806641 74.18606445 -135.83056641 73.05981445 C-135.20556641 69.37231445 -135.20556641 69.37231445 -133.20556641 66.37231445 C-133.49161539 64.6968847 -133.82337874 63.02846103 -134.20556641 61.37231445 C-133.71056641 60.38231445 -133.71056641 60.38231445 -133.20556641 59.37231445 C-133.86556641 59.04231445 -134.52556641 58.71231445 -135.20556641 58.37231445 C-135.39422792 52.99546134 -135.50747579 48.34443871 -133.20556641 43.37231445 C-130.96363976 41.5971086 -128.68566922 40.14658102 -126.20166016 38.73168945 C-123.8972265 37.45749517 -123.8972265 37.45749517 -123.20556641 34.37231445 C-121.38025391 34.21762695 -121.38025391 34.21762695 -119.51806641 34.05981445 C-112.70251353 33.31334914 -105.849947 31.82189525 -99.30322266 29.77856445 C-96.0366954 29.14594092 -92.76721745 29.31421531 -89.45556641 29.37231445 C-83.06400532 29.44899399 -83.06400532 29.44899399 -76.70556641 28.87231445 C-73.20556641 28.37231445 -73.20556641 28.37231445 -69.33056641 28.43481445 C-64.5514354 28.50132323 -59.76721133 27.8128339 -55.20556641 26.37231445 C-54.87556641 25.71231445 -54.54556641 25.05231445 -54.20556641 24.37231445 C-54.86556641 24.37231445 -55.52556641 24.37231445 -56.20556641 24.37231445 C-56.20556641 22.06231445 -56.20556641 19.75231445 -56.20556641 17.37231445 C-54.88556641 17.70231445 -53.56556641 18.03231445 -52.20556641 18.37231445 C-52.72119141 17.98043945 -53.23681641 17.58856445 -53.76806641 17.18481445 C-55.20556641 15.37231445 -55.20556641 15.37231445 -55.05322266 12.89575195 C-54.20556641 10.37231445 -54.20556641 10.37231445 -52.44775391 9.0793457 C-44.08706644 5.919944 -35.60562702 4.98281308 -26.74853516 4.13793945 C-23.39845062 3.79434104 -20.90943373 3.24052806 -17.80825806 1.86042786 C-12.00392483 -0.35493283 -6.13599797 -0.03831355 0 0 Z M128.79443359 25.37231445 C128.79443359 26.03231445 128.79443359 26.69231445 128.79443359 27.37231445 C129.45443359 27.37231445 130.11443359 27.37231445 130.79443359 27.37231445 C130.79443359 26.71231445 130.79443359 26.05231445 130.79443359 25.37231445 C130.13443359 25.37231445 129.47443359 25.37231445 128.79443359 25.37231445 Z M91.79443359 31.37231445 C94.71095533 31.53912554 94.71095533 31.53912554 97.79443359 31.37231445 C98.45443359 30.71231445 99.11443359 30.05231445 99.79443359 29.37231445 C95.30138777 28.94727999 95.30138777 28.94727999 91.79443359 31.37231445 Z M108.79443359 31.37231445 C108.79443359 31.70231445 108.79443359 32.03231445 108.79443359 32.37231445 C111.76443359 32.37231445 114.73443359 32.37231445 117.79443359 32.37231445 C117.79443359 32.04231445 117.79443359 31.71231445 117.79443359 31.37231445 C114.82443359 31.37231445 111.85443359 31.37231445 108.79443359 31.37231445 Z M-147.20556641 186.37231445 C-147.20556641 186.70231445 -147.20556641 187.03231445 -147.20556641 187.37231445 C-145.55556641 187.37231445 -143.90556641 187.37231445 -142.20556641 187.37231445 C-142.20556641 187.04231445 -142.20556641 186.71231445 -142.20556641 186.37231445 C-143.85556641 186.37231445 -145.50556641 186.37231445 -147.20556641 186.37231445 Z M-121.20556641 198.37231445 C-117.20556641 199.37231445 -117.20556641 199.37231445 -117.20556641 199.37231445 Z M272.79443359 208.37231445 C276.79443359 209.37231445 276.79443359 209.37231445 276.79443359 209.37231445 Z M-133.20556641 210.37231445 C-133.53556641 211.03231445 -133.86556641 211.69231445 -134.20556641 212.37231445 C-133.21556641 212.04231445 -132.22556641 211.71231445 -131.20556641 211.37231445 C-131.86556641 211.04231445 -132.52556641 210.71231445 -133.20556641 210.37231445 Z M-56.20556641 279.37231445 C-52.20556641 280.37231445 -52.20556641 280.37231445 -52.20556641 280.37231445 Z " fill="#000000" transform="translate(212.20556640625,98.627685546875)"/>
<path d="M0 0 C5.46720181 -0.86324239 8.86213333 1.17649071 13.328125 4.01171875 C18.94021699 8.18796849 24.11346516 13.17019774 28 19 C28.64066406 18.80664062 29.28132813 18.61328125 29.94140625 18.4140625 C31.23884766 18.02347656 31.23884766 18.02347656 32.5625 17.625 C33.40941406 17.36976563 34.25632812 17.11453125 35.12890625 16.8515625 C36.07636719 16.57054687 37.02382812 16.28953125 38 16 C39.05541992 15.65791504 40.11083984 15.31583008 41.19824219 14.96337891 C45.18412793 13.95334133 48.5932368 13.74143819 52.69921875 13.734375 C53.77366997 13.73150482 53.77366997 13.73150482 54.86982727 13.72857666 C56.37830967 13.72722353 57.88680405 13.73085864 59.39526367 13.73925781 C61.66417695 13.7498907 63.93228413 13.73937412 66.20117188 13.7265625 C76.55989971 13.71564619 87.10822151 13.8712742 96.75 18.125 C97.56984375 18.47820312 98.3896875 18.83140625 99.234375 19.1953125 C99.81703125 19.46085937 100.3996875 19.72640625 101 20 C101.26683594 19.41992188 101.53367187 18.83984375 101.80859375 18.2421875 C106.2793484 9.82837383 114.37883711 3.76196199 123 0 C126.25 -0.125 126.25 -0.125 129 0 C133.79776058 12.39421483 132.99988667 23.81277623 128 36 C128.99 36.33 129.98 36.66 131 37 C142.00330328 49.35304182 142.17929957 65.48989238 142.1875 81.0625 C142.19974609 82.29033203 142.21199219 83.51816406 142.22460938 84.78320312 C142.23503179 91.23467956 141.95873338 96.84398081 140 103 C139.72800781 103.87527344 139.45601562 104.75054687 139.17578125 105.65234375 C134.4343886 118.20308899 124.82330795 128.46678642 112.75 134.3125 C104.24326835 137.92660256 95.3456062 141.36649436 86 141 C86.33773437 141.556875 86.67546875 142.11375 87.0234375 142.6875 C87.46945312 143.450625 87.91546875 144.21375 88.375 145 C89.03628906 146.11375 89.03628906 146.11375 89.7109375 147.25 C93.3288261 154.96816235 93.2700232 162.44019513 93.1953125 170.8125 C93.19329834 171.88564453 93.19128418 172.95878906 93.18920898 174.06445312 C93.17880715 178.04301272 93.15088492 182.02151101 93.125 186 C93.08375 194.91 93.0425 203.82 93 213 C74.19 213 55.38 213 36 213 C36 203.43 36 193.86 36 184 C34.68 184.33 33.36 184.66 32 185 C20.05779027 186.13754337 9.0511487 186.25737894 -1 179 C-1.76570313 178.45859375 -2.53140625 177.9171875 -3.3203125 177.359375 C-7.55695297 174.01383603 -10.16139741 170.51327323 -12.58984375 165.73046875 C-14.42623095 162.17469409 -16.45121438 158.74911847 -18.5 155.3125 C-19.05192017 154.36793945 -19.05192017 154.36793945 -19.61499023 153.40429688 C-22.81507037 148.03048392 -26.35819554 143.04235702 -31.3125 139.125 C-32.199375 138.42375 -33.08625 137.7225 -34 137 C-33.67 136.01 -33.34 135.02 -33 134 C-24.87159585 133.40884333 -18.79204218 135.57175873 -12.375 140.625 C-9.62336841 143.123608 -7.63262871 145.8580083 -5.5625 148.9375 C-1.00167871 155.6822335 4.20337222 161.28566376 12.234375 163.57421875 C19.87845241 164.75106118 28.46609328 164.81047371 36 163 C35.938125 161.865625 35.87625 160.73125 35.8125 159.5625 C35.8125 152.75223106 38.20074589 146.60842274 42 141 C40.50533203 141.06380859 40.50533203 141.06380859 38.98046875 141.12890625 C34.8176932 140.99409605 31.24259839 140.2025862 27.3125 138.9375 C26.61697021 138.71489502 25.92144043 138.49229004 25.20483398 138.26293945 C9.05881339 132.82656264 -2.11771254 123.00569151 -10.02734375 108.05859375 C-13.73257186 100.11355237 -14.3639305 91.76311936 -14.3125 83.125 C-14.30686035 82.12557373 -14.3012207 81.12614746 -14.29541016 80.09643555 C-14.07132734 66.11566477 -13.09454409 51.89442787 -5 40 C-4.27296875 39.30648437 -3.5459375 38.61296875 -2.796875 37.8984375 C-2.20390625 37.27195313 -1.6109375 36.64546875 -1 36 C-1.17669047 32.7606747 -1.79329799 29.87659758 -2.53515625 26.73046875 C-4.10054098 17.53547779 -3.61467353 8.58484964 0 0 Z " fill="#EB1B23" transform="translate(202,150)"/>
</svg>
