<?xml version="1.0" encoding="UTF-8"?>
<svg version="1.1" xmlns="http://www.w3.org/2000/svg" width="512" height="512">
<path d="M0 0 C1.33075058 0.00323273 1.33075058 0.00323273 2.68838501 0.00653076 C16.54426772 0.06049264 29.98707822 0.70127547 43.625 3.3125 C44.77000977 3.52712891 45.91501953 3.74175781 47.09472656 3.96289062 C59.17296481 6.26139678 71.22348168 8.77832347 83.125 11.875 C83.82987549 12.04821777 84.53475098 12.22143555 85.26098633 12.39990234 C89.90962446 13.68568354 92.59115273 15.57942316 95.625 19.3125 C95.9375 22.125 95.9375 22.125 95.625 24.3125 C96.17027344 24.43367188 96.71554687 24.55484375 97.27734375 24.6796875 C98.03144531 24.84726562 98.78554688 25.01484375 99.5625 25.1875 C100.37976563 25.36410156 101.19703125 25.54070313 102.0390625 25.72265625 C103.73063393 26.10849807 105.41421649 26.5317268 107.0859375 26.99609375 C107.86195313 27.20363281 108.63796875 27.41117188 109.4375 27.625 C110.14519531 27.82738281 110.85289062 28.02976562 111.58203125 28.23828125 C114.42858189 28.34169322 115.44032022 27.05855681 117.625 25.3125 C137.35448135 18.54293484 162.59851069 23.9829769 180.66015625 32.79296875 C192.81401395 39.15615939 199.04185471 46.57406456 203.375 59.75 C213.55229123 92.84207371 208.05161382 136.52039718 192.3125 167.125 C191.9505957 167.80143555 191.58869141 168.47787109 191.21582031 169.17480469 C189.14124675 173.02120487 189.14124675 173.02120487 188.625 177.3125 C190.82295719 178.88851832 190.82295719 178.88851832 193.625 180.375 C202.99970141 186.11806032 208.38768511 193.88724866 211.625 204.3125 C211.81707031 204.9209375 212.00914062 205.529375 212.20703125 206.15625 C214.63573073 218.68561555 212.07099307 230.38205484 205.27734375 240.99609375 C198.57842507 250.38724925 189.02281673 256.34735918 177.625 258.3125 C175.95850435 258.3363753 174.2914207 258.34113266 172.625 258.3125 C172.67140625 259.51003906 172.7178125 260.70757812 172.765625 261.94140625 C173.32550883 282.47684238 167.77832506 301.20200828 154.01953125 316.859375 C141.4960412 329.68931261 127.14892481 337.12633185 109.625 340.3125 C108.635 340.3125 107.645 340.3125 106.625 340.3125 C106.625 354.8325 106.625 369.3525 106.625 384.3125 C112.895 384.3125 119.165 384.3125 125.625 384.3125 C125.955 382.6625 126.285 381.0125 126.625 379.3125 C128.38518252 377.20879675 129.76618258 376.43510109 132.48663139 376.04674149 C134.89171903 375.9194474 137.27687143 375.90736631 139.68530273 375.92431641 C141.05937035 375.91643097 141.05937035 375.91643097 142.4611969 375.90838623 C145.49383549 375.89517067 148.52594965 375.90393649 151.55859375 375.9140625 C153.67407837 375.91204065 155.78956231 375.90912829 157.90504456 375.90536499 C162.34618748 375.90093822 166.78714958 375.90737833 171.22827148 375.92138672 C176.89033076 375.93838473 182.55196044 375.92869942 188.21400356 375.91066933 C192.58866023 375.89976053 196.96321739 375.90331179 201.33787727 375.9110527 C203.42323928 375.91304006 205.50861062 375.91064749 207.59396172 375.90361404 C228.1716142 375.84949242 246.0600084 378.28093992 261.56298828 393.05493164 C272.39981 403.89359448 277.08388924 415.68051642 279.94140625 430.4296875 C280.26216377 432.06102882 280.26216377 432.06102882 280.58940125 433.72532654 C282.9248182 445.69202278 285.12485378 457.68354128 287.2746582 469.68481445 C287.94781223 473.43241042 288.63113396 477.17807393 289.31445312 480.92382812 C289.74801628 483.33582605 290.18098197 485.74793148 290.61328125 488.16015625 C290.81633377 489.26537125 291.01938629 490.37058624 291.22859192 491.5092926 C293.84348823 506.28168629 293.84348823 506.28168629 291.125 510.8125 C287.62253071 512.91398158 284.60621928 513.28333011 280.625 512.3125 C278.125 509.9375 278.125 509.9375 276.625 507.3125 C276.625 506.6525 276.625 505.9925 276.625 505.3125 C247.915 505.3125 219.205 505.3125 189.625 505.3125 C189.295 506.6325 188.965 507.9525 188.625 509.3125 C187.5625 511.0625 187.5625 511.0625 185.625 512.3125 C180.54155969 512.95801623 180.54155969 512.95801623 177.625 512.3125 C175.125 509.9375 175.125 509.9375 173.625 507.3125 C173.625 506.6525 173.625 505.9925 173.625 505.3125 C94.095 505.3125 14.565 505.3125 -67.375 505.3125 C-68.035 506.9625 -68.695 508.6125 -69.375 510.3125 C-71.375 512.3125 -71.375 512.3125 -75.25 512.6875 C-78.40227367 512.61299171 -79.21888675 512.42568211 -81.875 510.5 C-83.375 508.3125 -83.375 508.3125 -83.375 505.3125 C-94.66680571 505.32735398 -105.95816653 505.36885318 -117.24973774 505.44459057 C-122.49264078 505.47891496 -127.73525075 505.50397901 -132.97827148 505.50805664 C-138.03598155 505.51232792 -143.09302988 505.54069305 -148.15053368 505.58593178 C-150.08223812 505.59894434 -152.01402162 505.60320123 -153.94576454 505.59865379 C-156.64727288 505.59377436 -159.34682723 505.61972006 -162.0480957 505.65307617 C-162.85082413 505.64445053 -163.65355255 505.63582489 -164.48060608 505.62693787 C-166.96473349 505.62221252 -166.96473349 505.62221252 -170.375 506.3125 C-172.41368262 508.66148448 -172.41368262 508.66148448 -173.375 511.3125 C-174.375 512.3125 -174.375 512.3125 -178.1875 512.625 C-181.11620299 512.56190406 -182.26952629 512.37314738 -184.875 510.875 C-189.43957829 503.07717876 -185.04218526 490.40104315 -183.5234375 481.8984375 C-183.22371759 480.19849286 -182.92421181 478.49851046 -182.62490845 476.79849243 C-181.99656537 473.2420857 -181.3617898 469.68689457 -180.72314453 466.13232422 C-179.91356407 461.62032992 -179.12588601 457.1048209 -178.34390831 452.58797264 C-177.73211119 449.07508352 -177.1054233 445.56496412 -176.47481155 442.05540848 C-176.17864762 440.39408463 -175.88757671 438.7318431 -175.60212326 437.06864548 C-172.58905695 419.58671331 -167.77851059 404.7107473 -154.375 392.3125 C-153.92253906 391.85488281 -153.47007812 391.39726562 -153.00390625 390.92578125 C-140.7741648 379.30600197 -124.21106002 375.80815784 -107.88354492 375.97192383 C-106.71121811 375.97148575 -105.5388913 375.97104767 -104.33103943 375.97059631 C-100.50567207 375.97266486 -96.68075832 375.99590426 -92.85546875 376.01953125 C-90.18361165 376.0251341 -87.51177877 376.02954875 -84.83992004 376.03239441 C-78.557484 376.04166284 -72.27520738 376.06620487 -65.99284106 376.09644288 C-58.83187621 376.13015045 -51.67090314 376.14651371 -44.50987852 376.16152918 C-29.79816014 376.19276011 -15.08661235 376.24770577 -0.375 376.3125 C-0.375 364.4325 -0.375 352.5525 -0.375 340.3125 C-4.665 339.6525 -8.955 338.9925 -13.375 338.3125 C-32.72918043 332.89576397 -47.99975062 319.67007036 -57.98828125 302.546875 C-65.49249082 288.61846618 -67.63128147 273.94566988 -67.375 258.3125 C-68.57125 258.291875 -69.7675 258.27125 -71 258.25 C-81.08490262 257.08880459 -90.68306507 251.21960099 -97.46875 243.8515625 C-105.99130294 232.49980142 -107.505345 221.08607724 -106.375 207.3125 C-103.60822975 193.90552188 -94.98023842 185.18394363 -84.375 177.3125 C-85.2 176.3225 -86.025 175.3325 -86.875 174.3125 C-95.92355138 162.105492 -100.79203448 147.92623364 -104.375 133.3125 C-104.55434082 132.58853027 -104.73368164 131.86456055 -104.91845703 131.11865234 C-107.53258135 119.91711666 -107.67813005 108.57223467 -107.75 97.125 C-107.7580365 96.41196716 -107.766073 95.69893433 -107.77435303 94.96429443 C-107.99524314 69.1186637 -100.70623983 45.78564244 -82.37890625 27.12890625 C-60.10412346 5.62247417 -29.92087785 -0.130575 0 0 Z " fill="#010202" transform="translate(204.375,-0.3125)"/>
<path d="M0 0 C1.4811167 2.79815164 2.56023754 5.5249935 3.47265625 8.5546875 C3.73240234 9.41707031 3.99214844 10.27945313 4.25976562 11.16796875 C4.52466797 12.06128906 4.78957031 12.95460938 5.0625 13.875 C5.33126953 14.76058594 5.60003906 15.64617187 5.87695312 16.55859375 C7.21059829 21.02181521 8.38106168 25.36942444 9 30 C7.57107422 30.05607422 7.57107422 30.05607422 6.11328125 30.11328125 C4.85902344 30.17902344 3.60476563 30.24476563 2.3125 30.3125 C1.07113281 30.37050781 -0.17023438 30.42851562 -1.44921875 30.48828125 C-5.12029044 31.01733559 -7.1435223 31.65360761 -10 34 C-10.74601562 35.92529949 -10.74601562 35.92529949 -10.5625 38 C-10.56443359 39.0209375 -10.56443359 39.0209375 -10.56640625 40.0625 C-10.11654948 42.1326989 -10.11654948 42.1326989 -8.390625 43.75 C-5.16081596 45.43878904 -2.8081332 45.18828862 0.8125 45 C8.00862639 44.85816763 11.86168293 45.41088842 17.5 50.0625 C19.64231621 52.57972154 21.41773225 55.07250328 23.25 57.8125 C27.16582918 63.5408964 32.085443 69.34076602 38.59973145 72.10192871 C41 74 41 74 41.62145996 77.55163574 C41.64512303 79.05442126 41.64091595 80.55779449 41.61523438 82.06054688 C41.62078339 82.8821228 41.6263324 83.70369873 41.63204956 84.5501709 C41.64388374 87.27361954 41.61951727 89.99541688 41.59375 92.71875 C41.59203854 94.61625086 41.59210494 96.51375408 41.59387207 98.41125488 C41.59221622 102.39614374 41.57348255 106.38047188 41.54199219 110.36523438 C41.50252958 115.44801846 41.49792033 120.53006046 41.50545502 125.61296844 C41.5085425 129.53721794 41.4963378 133.46130388 41.47932434 137.38551331 C41.47233724 139.25760367 41.46916455 141.12971259 41.47001648 143.0018158 C41.45637425 162.74965692 37.40555517 180.41659847 23 195 C11.79038367 204.78867905 0.25893144 209.34836146 -14.28491211 211.0637207 C-15.52446655 211.21006958 -15.52446655 211.21006958 -16.7890625 211.359375 C-17.89822021 211.47490723 -17.89822021 211.47490723 -19.02978516 211.59277344 C-21.30949145 211.93563856 -21.30949145 211.93563856 -24 214 C-24.47572817 216.17415043 -24.47572817 216.17415043 -24.43237305 218.72509766 C-24.45231323 219.71968994 -24.47225342 220.71428223 -24.49279785 221.73901367 C-24.49904175 222.78677979 -24.50528564 223.8345459 -24.51171875 224.9140625 C-24.53667419 226.35591919 -24.53667419 226.35591919 -24.56213379 227.8269043 C-24.62007478 231.42604575 -24.65222038 235.02556508 -24.6875 238.625 C-24.8421875 250.690625 -24.8421875 250.690625 -25 263 C-50.41 263 -75.82 263 -102 263 C-102.3125 239.1875 -102.3125 239.1875 -102.38793945 231.67651367 C-102.42021968 229.71531248 -102.45359201 227.75412882 -102.48828125 225.79296875 C-102.49452515 224.7719104 -102.50076904 223.75085205 -102.50720215 222.69885254 C-102.53711243 221.23759949 -102.53711243 221.23759949 -102.56762695 219.74682617 C-102.57873001 218.90077316 -102.58983307 218.05472015 -102.60127258 217.18302917 C-103.09283592 214.49172415 -103.81315543 213.60947917 -106 212 C-108.56436853 211.5342804 -110.97826834 211.21833124 -113.5625 211 C-129.56674973 209.27401643 -143.01250041 203.17436534 -154 191 C-163.02062907 179.41422947 -168.18020601 167.20067231 -168.11352539 152.44604492 C-168.11367142 151.59675415 -168.11381744 150.74746338 -168.1139679 149.87243652 C-168.11327319 147.07508763 -168.10550149 144.27780596 -168.09765625 141.48046875 C-168.0957905 139.5370538 -168.09436734 137.59363837 -168.09336853 135.65022278 C-168.08955571 130.54239599 -168.07973597 125.43459776 -168.06866455 120.32678223 C-168.05842387 115.11173896 -168.05386522 109.89669106 -168.04882812 104.68164062 C-168.0381126 94.45441455 -168.02105101 84.22720965 -168 74 C-166.99187256 73.74968018 -165.98374512 73.49936035 -164.94506836 73.24145508 C-163.59738927 72.89705472 -162.24982017 72.55222372 -160.90234375 72.20703125 C-160.24085327 72.04400513 -159.57936279 71.880979 -158.89782715 71.7130127 C-143.9538895 67.84511603 -134.05687468 57.87325338 -125.19921875 45.890625 C-123.55123228 43.72453266 -121.99360513 41.83231022 -120 40 C-119.45472656 40.65226562 -118.90945312 41.30453125 -118.34765625 41.9765625 C-110.06157997 51.57991245 -101.92442355 57.93947453 -89.0390625 59.31640625 C-64.89896489 60.24028653 -44.57661942 47.1650162 -27.4921875 31.36328125 C-26.66976562 30.58339844 -25.84734375 29.80351562 -25 29 C-24.11570312 28.16855469 -23.23140625 27.33710938 -22.3203125 26.48046875 C-13.92200991 18.35576525 -6.97998038 9.34490795 0 0 Z " fill="#FEE4C1" transform="translate(321,114)"/>
<path d="M0 0 C1.46493896 0.2168042 1.46493896 0.2168042 2.95947266 0.43798828 C14.73619864 2.20714209 26.15949472 4.58703912 37.55737305 8.06958008 C42.97954519 9.67632198 48.32548654 10.91329809 54 10 C56.12355567 8.17728073 56.12355567 8.17728073 57 6 C63.51821173 6.5925647 70.20911031 7.86954968 76 11 C77.61824689 13.78912859 77.68129 15.70666329 78 19 C79.87013818 21.30859384 79.87013818 21.30859384 82.88232422 21.1953125 C84.0942041 21.17210938 85.30608398 21.14890625 86.5546875 21.125 C87.21147491 21.11742676 87.86826233 21.10985352 88.54495239 21.10205078 C91.35027352 21.0695383 94.15500701 21.0141638 96.95996094 20.95898438 C108.89161904 20.74440652 120.23088333 21.11712976 131.25 26.1875 C131.9296582 26.49574707 132.60931641 26.80399414 133.30957031 27.12158203 C141.07735125 30.78918287 147.09465025 35.06601978 150.19140625 43.3515625 C157.79922825 68.26993602 155.78117707 98.2563954 148 123 C147.61325448 124.29035656 147.22653622 125.58072129 146.83984375 126.87109375 C143.62470102 137.30201006 139.47849538 149.68100308 130 156 C126.82277445 156.6650007 124.87106384 156.5346774 122.078125 154.8203125 C101.4691511 138.12544604 93.84973433 100.92406502 90.765625 76.02734375 C90.25727095 72.93578039 90.25727095 72.93578039 88.109375 71.09765625 C85.14163114 69.55333028 83.29539892 69.45076685 80 70 C76.49661321 73.86327348 73.71833429 78.30523928 70.8125 82.625 C63.11453676 93.92047807 54.34328362 104.05527747 45 114 C44.34515625 114.72058594 43.6903125 115.44117188 43.015625 116.18359375 C30.43420339 129.54463336 12.72049288 140.47009123 -5.8125 141.3125 C-12.90414435 141.20472425 -19.23198614 138.90927048 -24.625 134.25 C-28.58147193 129.98340081 -30.9047521 124.6526314 -33.33642578 119.42285156 C-34.89487814 115.53389972 -34.89487814 115.53389972 -38 113 C-41.9473591 112.54055172 -41.9473591 112.54055172 -45.44140625 114.05078125 C-47.25931111 116.32430136 -48.56098366 118.76941521 -49.90478516 121.34423828 C-54.51413565 130.15399556 -59.89237696 137.08770095 -67 144 C-67.62777344 144.62519531 -68.25554687 145.25039062 -68.90234375 145.89453125 C-76.92157731 153.34770126 -86.18488684 156.45782971 -96.9609375 156.33984375 C-101.63461956 155.81720835 -104.51235617 154.0615516 -108 151 C-108.50789063 150.56171875 -109.01578125 150.1234375 -109.5390625 149.671875 C-119.30257387 139.75172976 -123.89439107 124.21689381 -127 111 C-127.24556641 109.97712891 -127.24556641 109.97712891 -127.49609375 108.93359375 C-132.92016461 85.30974793 -132.94147911 56.75998451 -120.97265625 35.109375 C-109.0422006 16.30414194 -91.46841278 4.90503471 -70 0 C-68.87335938 -0.29777344 -67.74671875 -0.59554688 -66.5859375 -0.90234375 C-44.96714136 -5.92512615 -21.69411818 -3.33181261 0 0 Z " fill="#908190" transform="translate(242,18)"/>
<path d="M0 0 C3.24931927 -0.17455021 6.49743448 -0.28091753 9.75 -0.375 C10.67039062 -0.42527344 11.59078125 -0.47554688 12.5390625 -0.52734375 C13.87324219 -0.55634766 13.87324219 -0.55634766 15.234375 -0.5859375 C16.05131836 -0.6173584 16.86826172 -0.6487793 17.70996094 -0.68115234 C20 0 20 0 21.65820312 2.98632812 C23.60781465 6.11619605 23.60781465 6.11619605 26.08575439 6.57284546 C28.8159807 6.79144626 31.49542283 6.83053423 34.234375 6.8046875 C35.72411835 6.82524704 35.72411835 6.82524704 37.24395752 6.84622192 C40.41309653 6.883584 43.58067164 6.87980274 46.75 6.875 C48.89976415 6.89312235 51.0495075 6.91392358 53.19921875 6.9375 C58.46706349 6.99444967 63.73079474 6.99575748 69 7 C69 18.55 69 30.1 69 42 C-11.19 42 -91.38 42 -174 42 C-174 30.45 -174 18.9 -174 7 C-117.57 6.67 -61.14 6.34 -3 6 C-2.01 4.02 -1.02 2.04 0 0 Z " fill="#F1FAFE" transform="translate(310,384)"/>
<path d="M0 0 C0 37.29 0 74.58 0 113 C-28.71 113 -57.42 113 -87 113 C-87 106.83863322 -86.80541044 101.63532193 -85.6796875 95.71484375 C-85.54058456 94.9481134 -85.40148163 94.18138306 -85.25816345 93.39141846 C-84.80503439 90.90524792 -84.34050211 88.42138105 -83.875 85.9375 C-83.55505834 84.20427965 -83.2356474 82.47096126 -82.91674805 80.73754883 C-82.26643681 77.2090298 -81.61134464 73.68143963 -80.95361328 70.15429688 C-80.1957876 66.07784889 -79.45998355 61.99796913 -78.73736572 57.91514587 C-78.22393002 55.01775794 -77.70200639 52.12193722 -77.17852783 49.22634888 C-76.82282991 47.24503969 -76.47645959 45.26206304 -76.13037109 43.27905273 C-74.13455313 32.39033884 -71.2766101 23.46282148 -64 15 C-63.52175781 14.40445312 -63.04351562 13.80890625 -62.55078125 13.1953125 C-46.68811645 -4.78503803 -21.51195047 0 0 0 Z " fill="#00CFFA" transform="translate(121,392)"/>
<path d="M0 0 C48.87951807 0 48.87951807 0 62.96484375 13.9453125 C75.91313684 27.90647419 77.02511832 48.91920837 80.0625 66.9375 C80.4037263 68.93694642 80.74552074 70.93629596 81.08789062 72.93554688 C81.58989913 75.86741032 82.09081726 78.79942517 82.58706665 81.73226929 C83.33768434 86.16508136 84.10140398 90.59412638 84.91357422 95.01611328 C85.05460068 95.7891127 85.19562714 96.56211212 85.34092712 97.35853577 C85.60067168 98.7739592 85.86458911 100.18862699 86.13380432 101.60227966 C86.85845725 105.56243127 87 108.89163824 87 113 C58.29 113 29.58 113 0 113 C0 75.71 0 38.42 0 0 Z " fill="#61DAFB" transform="translate(394,392)"/>
<path d="M0 0 C80.19 0 160.38 0 243 0 C243 10.23 243 20.46 243 31 C162.81 31 82.62 31 0 31 C0 20.77 0 10.54 0 0 Z " fill="#F2FBFF" transform="translate(136,474)"/>
<path d="M0 0 C79.86 0 159.72 0 242 0 C242 5.94 242 11.88 242 18 C162.14 18 82.28 18 0 18 C0 12.06 0 6.12 0 0 Z " fill="#C7EEFD" transform="translate(136,441)"/>
<path d="M0 0 C15.39318065 -0.69062127 27.67156579 -0.33701671 40.00390625 10.1171875 C56.0602559 25.26231574 57.55492927 46.12996279 61.0625 66.9375 C61.4037263 68.93694642 61.74552074 70.93629596 62.08789062 72.93554688 C62.58989913 75.86741032 63.09081726 78.79942517 63.58706665 81.73226929 C64.33768434 86.16508136 65.10140398 90.59412638 65.91357422 95.01611328 C66.05460068 95.7891127 66.19562714 96.56211212 66.34092712 97.35853577 C66.60067168 98.7739592 66.86458911 100.18862699 67.13380432 101.60227966 C67.85845725 105.56243127 68 108.89163824 68 113 C57.77 113 47.54 113 37 113 C36.33613281 109.18695313 35.67226563 105.37390625 34.98828125 101.4453125 C34.32678915 97.65517958 33.6645273 93.86518188 33.00219727 90.07519531 C32.55030504 87.48846069 32.0996758 84.90151558 31.6496582 82.31445312 C30.33846308 74.77837746 29.01320398 67.24502057 27.6651001 59.7154541 C27.22178066 57.23893511 26.78098339 54.7619633 26.3427124 52.2845459 C25.71340193 48.74723825 25.06806948 45.21322615 24.41796875 41.6796875 C24.23357742 40.63144806 24.0491861 39.58320862 23.85920715 38.50320435 C21.04692821 23.50097035 13.83711717 11.61916446 2 2 C1.34 1.34 0.68 0.68 0 0 Z " fill="#01CEF9" transform="translate(413,392)"/>
<path d="M0 0 C0.845625 0.474375 1.69125 0.94875 2.5625 1.4375 C5.2775203 2.33885507 5.2775203 2.33885507 8.5625 0.1875 C9.12066406 -0.19019531 9.67882813 -0.56789063 10.25390625 -0.95703125 C14.68623473 -3.60452947 20.00035809 -3.66973396 25 -3 C31.62813709 -0.8955173 35.81533897 2.01453463 39.16015625 8.1328125 C41.59269322 13.54096446 42.01609496 19.34068505 40.421875 25.08203125 C38.08696714 30.29312107 34.30939212 34.21974779 30.43359375 38.34375 C27.93569365 41.07018992 25.66003231 43.90640763 23.375 46.8125 C18.92585287 52.31170808 14.22761833 57.4335973 6.80078125 58.23828125 C0.58086869 58.42380454 -3.98880578 57.84159861 -9 54 C-12.57905793 50.53151459 -15.80031326 46.81786424 -19 43 C-19.82371094 42.02546875 -20.64742187 41.0509375 -21.49609375 40.046875 C-34.02206617 24.99102637 -34.02206617 24.99102637 -33 13 C-31.60516649 7.65655691 -28.82401792 2.73873136 -24.05859375 -0.1953125 C-15.58691499 -4.40905185 -8.45111369 -3.89907894 0 0 Z " fill="#010001" transform="translate(40,105)"/>
<path d="M0 0 C2.88411961 2.10960792 2.88411961 2.10960792 5.6875 1.8125 C8.22370032 0.90298964 8.22370032 0.90298964 10.8125 -0.625 C17.12986545 -3.48569379 22.87173926 -3.91090921 29.4375 -1.5625 C35.46613626 1.2155863 38.59650963 5.055929 41 11.1875 C42.82496811 17.39239156 42.19136125 22.43125547 39.625 28.3125 C37.07262005 32.3207501 33.78329637 35.71680881 30.5546875 39.18359375 C28.08065337 41.92412352 25.82891405 44.77409924 23.5625 47.6875 C19.08017644 53.14356971 15.39605306 57.30515012 8.16796875 58.26953125 C1.14916509 58.50320289 -3.55630314 57.83131042 -8.9140625 53.05859375 C-13.9908238 48.18246048 -18.47274081 42.88064108 -22.86328125 37.38671875 C-24.47145548 35.37884296 -26.11756046 33.4335234 -27.8125 31.5 C-32.07976508 26.06893535 -32.43102959 20.92327505 -32.31640625 14.17578125 C-31.52889629 8.28687936 -28.73585494 4.08370306 -24.05859375 0.47265625 C-16.75550519 -3.9596718 -7.40005824 -4.70025677 0 0 Z " fill="#010000" transform="translate(432.875,285.125)"/>
<path d="M0 0 C2.52877594 2.4896878 4.73003155 4.89542791 6.75 7.8125 C10.39739577 12.76187755 14.84353015 17.66747339 20.58825684 20.09265137 C23 22 23 22 23.62145996 25.55163574 C23.64512303 27.05442126 23.64091595 28.55779449 23.61523438 30.06054688 C23.62078339 30.8821228 23.6263324 31.70369873 23.63204956 32.5501709 C23.64388374 35.27361954 23.61951727 37.99541688 23.59375 40.71875 C23.59203854 42.61625086 23.59210494 44.51375408 23.59387207 46.41125488 C23.59221622 50.39614374 23.57348255 54.38047188 23.54199219 58.36523438 C23.50252958 63.44801846 23.49792033 68.53006046 23.50545502 73.61296844 C23.5085425 77.53721794 23.4963378 81.46130388 23.47932434 85.38551331 C23.47233724 87.25760367 23.46916455 89.12971259 23.47001648 91.0018158 C23.45637425 110.74965692 19.40555517 128.41659847 5 143 C-4.29027463 151.11263418 -16.16779772 158.2512269 -28.8125 158.0625 C-29.60269531 158.05347656 -30.39289063 158.04445313 -31.20703125 158.03515625 C-32.09455078 158.01775391 -32.09455078 158.01775391 -33 158 C-32.29617188 157.44570313 -31.59234375 156.89140625 -30.8671875 156.3203125 C-22.32697501 149.40902337 -14.69212433 142.50825276 -9 133 C-8.61457031 132.36964844 -8.22914063 131.73929688 -7.83203125 131.08984375 C0.15387798 116.67849031 -0.39618918 101.31443825 -0.390625 85.3515625 C-0.37562238 82.88291348 -0.35889091 80.41427441 -0.34051514 77.94564819 C-0.29706356 71.49153143 -0.27689181 65.03755002 -0.26177979 58.58331299 C-0.24212841 51.97994049 -0.20016763 45.37671247 -0.16015625 38.7734375 C-0.08509468 25.84900756 -0.03389859 12.92460017 0 0 Z " fill="#FBCFA2" transform="translate(339,166)"/>
<path d="M0 0 C12.95618718 0.99195808 27.03282172 4.67478255 36.52734375 14.1484375 C49.86511312 30.91794063 46.12016185 60.37727198 43.98681641 80.19482422 C43.04980425 87.69247024 41.26825755 94.78709796 39 102 C38.61325448 103.29035656 38.22653622 104.58072129 37.83984375 105.87109375 C34.62470102 116.30201006 30.47849538 128.68100308 21 135 C18.3125 135.5625 18.3125 135.5625 15 135 C11.51896468 132.55817486 7.9260252 129.85205041 6 126 C6.66 126 7.32 126 8 126 C9.01621885 123.00482865 10.01276353 120.00480307 11 117 C11.38671875 115.83597656 11.7734375 114.67195313 12.171875 113.47265625 C14.51976435 106.28046883 16.5758938 99.06747257 18.25 91.6875 C18.41298584 90.98375244 18.57597168 90.28000488 18.74389648 89.55493164 C21.13846498 78.57505216 21.23987923 67.43033505 21.29516602 56.2409668 C21.30665875 54.63085117 21.32706772 53.02077282 21.35668945 51.41088867 C21.62923378 36.50926109 20.59403105 21.21058498 11 9 C8.62157423 6.59593616 8.62157423 6.59593616 6 5 C3.99419671 3.67541292 1.99284138 2.3440093 0 1 C0 0.67 0 0.34 0 0 Z " fill="#796C78" transform="translate(351,39)"/>
<path d="M0 0 C55.77 0 111.54 0 169 0 C169 0.33 169 0.66 169 1 C113.56 1 58.12 1 1 1 C1 11.89 1 22.78 1 34 C73.27 34 145.54 34 220 34 C220 23.11 220 12.22 220 1 C213.4 1 206.8 1 200 1 C200 0.67 200 0.34 200 0 C214.19 0 228.38 0 243 0 C243 11.55 243 23.1 243 35 C162.81 35 82.62 35 0 35 C0 23.45 0 11.9 0 0 Z " fill="#BCCCD1" transform="translate(136,391)"/>
<path d="M0 0 C4.60227273 1.27840909 4.60227273 1.27840909 6.375 3.9375 C7.30702551 6.91355386 7.48321478 9.57889507 7.4375 12.6875 C7.42847656 13.48671875 7.41945312 14.2859375 7.41015625 15.109375 C7.39855469 15.71265625 7.38695312 16.3159375 7.375 16.9375 C8.19484375 16.87949219 9.0146875 16.82148438 9.859375 16.76171875 C18.67015419 16.39284642 18.67015419 16.39284642 22.125 19.0625 C23.56920028 22.38416065 23.9085794 24.35489544 23.375 27.9375 C21.59515595 31.0734157 20.85191793 31.77852736 17.375 32.9375 C15.64704648 33.00552967 13.91664635 33.02245645 12.1875 33 C11.28644531 32.99097656 10.38539062 32.98195313 9.45703125 32.97265625 C8.76996094 32.96105469 8.08289063 32.94945312 7.375 32.9375 C7.42720703 33.80761719 7.42720703 33.80761719 7.48046875 34.6953125 C7.66120954 39.91097536 7.3104578 43.42141108 4.375 47.9375 C1.28326248 49.48336876 -1.21929552 49.23109521 -4.625 48.9375 C-6.8359375 47.30859375 -6.8359375 47.30859375 -8.625 44.9375 C-9.015625 41.921875 -9.015625 41.921875 -8.875 38.6875 C-8.83890625 37.60984375 -8.8028125 36.5321875 -8.765625 35.421875 C-8.71921875 34.60203125 -8.6728125 33.7821875 -8.625 32.9375 C-9.36105469 32.97230469 -10.09710938 33.00710938 -10.85546875 33.04296875 C-20.7258271 33.31678318 -20.7258271 33.31678318 -24.625 29.9375 C-26.05162219 27.08425563 -25.93533868 25.10295451 -25.625 21.9375 C-24.02734375 19.2578125 -24.02734375 19.2578125 -21.625 16.9375 C-18.390625 16.44921875 -18.390625 16.44921875 -14.875 16.625 C-13.11929688 16.69267578 -13.11929688 16.69267578 -11.328125 16.76171875 C-10.43609375 16.81972656 -9.5440625 16.87773437 -8.625 16.9375 C-8.68300781 16.04546875 -8.74101563 15.1534375 -8.80078125 14.234375 C-8.84589844 13.06390625 -8.89101562 11.8934375 -8.9375 10.6875 C-8.99550781 9.52734375 -9.05351563 8.3671875 -9.11328125 7.171875 C-8.625 3.9375 -8.625 3.9375 -6.33203125 1.51171875 C-3.625 -0.0625 -3.625 -0.0625 0 0 Z " fill="#000000" transform="translate(96.625,300.0625)"/>
<path d="M0 0 C2.90717073 2.21863029 3.83981643 3.51944929 5 7 C5.06802967 8.72795352 5.08495645 10.45835365 5.0625 12.1875 C5.05347656 13.08855469 5.04445313 13.98960938 5.03515625 14.91796875 C5.02355469 15.60503906 5.01195312 16.29210937 5 17 C5.81984375 16.95359375 6.6396875 16.9071875 7.484375 16.859375 C8.56203125 16.82328125 9.6396875 16.7871875 10.75 16.75 C12.35101563 16.68039063 12.35101563 16.68039063 13.984375 16.609375 C17 17 17 17 19.359375 18.796875 C21.74088203 21.99489872 21.5548473 24.1160689 21 28 C19.359375 30.203125 19.359375 30.203125 17 32 C13.984375 32.390625 13.984375 32.390625 10.75 32.25 C9.67234375 32.21390625 8.5946875 32.1778125 7.484375 32.140625 C6.66453125 32.09421875 5.8446875 32.0478125 5 32 C5.05220703 32.97839844 5.05220703 32.97839844 5.10546875 33.9765625 C5.27472185 39.4410196 5.13821564 43.29267654 2 48 C-1.09173752 49.54586876 -3.59429552 49.29359521 -7 49 C-9.2109375 47.40234375 -9.2109375 47.40234375 -11 45 C-11.390625 41.765625 -11.390625 41.765625 -11.25 38.25 C-11.21390625 37.07953125 -11.1778125 35.9090625 -11.140625 34.703125 C-11.09421875 33.81109375 -11.0478125 32.9190625 -11 32 C-11.89203125 32.04640625 -12.7840625 32.0928125 -13.703125 32.140625 C-14.87359375 32.17671875 -16.0440625 32.2128125 -17.25 32.25 C-18.41015625 32.29640625 -19.5703125 32.3428125 -20.765625 32.390625 C-24 32 -24 32 -26.390625 30.16796875 C-28 28 -28 28 -28.5 25.0625 C-27.87101363 21.20995848 -26.7882514 19.71535594 -24 17 C-20.765625 16.51171875 -20.765625 16.51171875 -17.25 16.6875 C-15.49429687 16.75517578 -15.49429687 16.75517578 -13.703125 16.82421875 C-12.81109375 16.88222656 -11.9190625 16.94023438 -11 17 C-11.04640625 16.10796875 -11.0928125 15.2159375 -11.140625 14.296875 C-11.19476563 12.54117188 -11.19476563 12.54117188 -11.25 10.75 C-11.29640625 9.58984375 -11.3428125 8.4296875 -11.390625 7.234375 C-11 4 -11 4 -9.203125 1.609375 C-5.99934366 -0.7309759 -3.86645287 -0.55235041 0 0 Z " fill="#000000" transform="translate(484,111)"/>
<path d="M0 0 C0 15.84 0 31.68 0 48 C-25.41 48 -50.82 48 -77 48 C-77 32.49 -77 16.98 -77 1 C-76.67 1 -76.34 1 -76 1 C-76 16.18 -76 31.36 -76 47 C-58.51 47 -41.02 47 -23 47 C-23.19741284 35.09292898 -23.19741284 35.09292898 -23.45043945 23.18701172 C-23.46505447 21.68458845 -23.47779274 20.18214525 -23.48828125 18.6796875 C-23.526651 17.52738647 -23.526651 17.52738647 -23.5657959 16.35180664 C-23.56905381 12.30548621 -23.23022793 9.76850388 -20.66674805 6.54882812 C-17.65324393 3.668577 -15.49691478 2.71761456 -11.5 1.625 C-10.3965625 1.30789063 -9.293125 0.99078125 -8.15625 0.6640625 C-5 0 -5 0 0 0 Z " fill="#EAC298" transform="translate(296,329)"/>
<path d="M0 0 C0 17.49 0 34.98 0 53 C-9.54879899 51.93902233 -12.68006048 50.81802567 -18.76171875 44.03515625 C-23.74062511 37.75425986 -25.61966272 32.041614 -25.43359375 24.0078125 C-24.31720046 16.26346268 -20.533883 9.79603487 -14.5 4.875 C-9.71695686 1.5710828 -5.86448955 0 0 0 Z " fill="#FACEA1" transform="translate(138,189)"/>
<path d="M0 0 C10.51797532 2.33732785 15.81992893 5.44778044 22 14 C25.32137358 20.03460833 25.98335905 26.00217719 24.34375 32.66796875 C21.96392335 40.10492704 18.5410517 46.25044383 11.72265625 50.37890625 C7.3835166 52.45100788 4.97496555 53 0 53 C0 35.51 0 18.02 0 0 Z " fill="#FBCFA2" transform="translate(377,189)"/>
<path d="M0 0 C80.19 0 160.38 0 243 0 C243 10.23 243 20.46 243 31 C235.41 31 227.82 31 220 31 C220 21.1 220 11.2 220 1 C147.73 1 75.46 1 1 1 C1 10.9 1 20.8 1 31 C0.67 31 0.34 31 0 31 C0 20.77 0 10.54 0 0 Z " fill="#CADCE2" transform="translate(136,474)"/>
<path d="M0 0 C3.25 0.375 3.25 0.375 6.125 2.5625 C8.25 5.375 8.25 5.375 8.9375 7.75 C7.05109347 14.9526431 0.36433941 19.15381705 -5.69921875 22.796875 C-14.9198108 27.56655386 -24.39224549 29.5852811 -34.75 28.375 C-40.75098697 26.32091394 -40.75098697 26.32091394 -42.75 23.375 C-43.15982074 20.16473756 -43.1221697 18.13725868 -41.6953125 15.21484375 C-38.84488286 12.51895548 -35.9692503 12.87068783 -32.25 12.875 C-18.67253022 12.4259308 -11.13850285 1.51888675 0 0 Z " fill="#060504" transform="translate(298.75,243.625)"/>
<path d="M0 0 C1.36133477 0.80879301 2.6947096 1.66606515 4 2.5625 C7.90816735 5.12302344 10.2485179 5.90114316 15 5 C17.58266159 3.51225319 20.06032864 1.89826336 22.55859375 0.2734375 C25.10272263 -1.05358013 26.26702619 -1.33931348 29.0625 -0.9375 C32 0 32 0 33 1 C32.73619046 6.7343863 31.38340388 9.34237615 27.375 13.375 C23.3969141 17.48360797 19.92089335 21.6207145 16.66796875 26.3203125 C14.49000003 28.5135831 13.06933527 28.8946562 10 29 C8.296875 27.953125 8.296875 27.953125 6.75 26.25 C6.16089844 25.60804688 5.57179688 24.96609375 4.96484375 24.3046875 C1.23431177 19.9289144 -2.41362138 15.49457432 -6 11 C-6.75152344 10.13117188 -7.50304687 9.26234375 -8.27734375 8.3671875 C-10 6 -10 6 -9.875 2.75 C-9.58625 1.8425 -9.2975 0.935 -9 0 C-5.76550476 -1.61724762 -3.48030294 -0.78587486 0 0 Z " fill="#F877B2" transform="translate(426,299)"/>
<path d="M0 0 C3.72618307 0.53231187 5.37193178 1.50255885 8.5 3.5 C11.2850654 5.24066587 13.3013844 6.4503461 16.5 7.25 C20.55643108 6.23589223 23.58991225 4.08114037 27.09375 1.84375 C30.07911577 0.17659769 32.14224323 -0.17155135 35.5 0.5 C37.5 2.5 37.5 2.5 37.90625 5.296875 C37.37864079 9.45687068 35.9330158 10.79931543 33 13.75 C28.71727647 18.15975346 25.01755421 22.67303682 21.484375 27.69921875 C19.5 29.5 19.5 29.5 16.640625 30.1796875 C12.04021855 29.18407715 10.311307 26.55046876 7.5 22.9375 C7.005 22.32841797 6.51 21.71933594 6 21.09179688 C4.99904305 19.86015063 4.00617758 18.6218846 3.02148438 17.37719727 C0.98774742 14.86798618 -1.17184165 12.4779315 -3.34960938 10.09326172 C-4.5 8.5 -4.5 8.5 -5 5.1875 C-4.34268546 1.65443433 -3.5394991 0.70789982 0 0 Z " fill="#FA5AA4" transform="translate(27.5,117.5)"/>
<path d="M0 0 C3.67285707 0.52469387 4.91343611 0.94441084 7.5 3.5 C8.01757812 5.88842773 8.01757812 5.88842773 8.03125 8.68359375 C8.03640625 9.69357422 8.0415625 10.70355469 8.046875 11.74414062 C8.03140625 12.79794922 8.0159375 13.85175781 8 14.9375 C8.01546875 15.98744141 8.0309375 17.03738281 8.046875 18.11914062 C8.04171875 19.13041016 8.0365625 20.14167969 8.03125 21.18359375 C8.02673828 22.10712646 8.02222656 23.03065918 8.01757812 23.98217773 C7.34532181 27.25245102 6.08723846 28.45118208 3.5 30.5 C0.5625 31.0625 0.5625 31.0625 -2.5 30.5 C-5.35903767 28.44401556 -7.21879316 26.8331123 -7.96508789 23.29516602 C-8.13769058 20.67937351 -8.13275443 18.12030035 -8.0625 15.5 C-8.07345703 14.61054688 -8.08441406 13.72109375 -8.09570312 12.8046875 C-8.04854635 8.59201552 -7.84947616 6.09523681 -5.68359375 2.40625 C-3.5 0.5 -3.5 0.5 0 0 Z " fill="#080706" transform="translate(191.5,197.5)"/>
<path d="M0 0 C3.5 0.5625 3.5 0.5625 5.6875 1.91015625 C8.59944291 6.17138304 8.07806383 10.52738313 8 15.5625 C8.01546875 16.56023437 8.0309375 17.55796875 8.046875 18.5859375 C8.0080155 25.83323462 8.0080155 25.83323462 5.65234375 29.21484375 C2.64123669 31.10020117 0.98994933 31.2035111 -2.5 30.5625 C-5.35903767 28.50651556 -7.21879316 26.8956123 -7.96508789 23.35766602 C-8.13769058 20.74187351 -8.13275443 18.18280035 -8.0625 15.5625 C-8.07345703 14.67304688 -8.08441406 13.78359375 -8.09570312 12.8671875 C-8.04855956 8.65569528 -7.85089895 6.15940553 -5.68359375 2.47265625 C-3.5 0.5625 -3.5 0.5625 0 0 Z " fill="#070605" transform="translate(322.5,197.4375)"/>
<path d="M0 0 C7.26 0 14.52 0 22 0 C22 5.94 22 11.88 22 18 C14.74 18 7.48 18 0 18 C0 12.06 0 6.12 0 0 Z " fill="#99E6FC" transform="translate(356,441)"/>
<path d="M0 0 C1.90625 0.484375 1.90625 0.484375 4.40625 2.609375 C6.16209708 5.97474856 6.54281938 7.74452991 5.90625 11.484375 C3.83729835 14.42865235 2.39715073 15.32770455 -1.03125 16.421875 C-4.69247681 16.49659391 -6.2242174 15.69801444 -9.09375 13.484375 C-10.52037219 10.63113063 -10.40408868 8.64982951 -10.09375 5.484375 C-7.60378974 0.71195116 -5.15439468 -0.34619069 0 0 Z " fill="#000000" transform="translate(445.09375,73.515625)"/>
</svg>
