<?xml version="1.0" encoding="UTF-8"?>
<svg version="1.1" xmlns="http://www.w3.org/2000/svg" width="512" height="512">
<path d="M0 0 C168.96 0 337.92 0 512 0 C512 168.96 512 337.92 512 512 C343.04 512 174.08 512 0 512 C0 343.04 0 174.08 0 0 Z " fill="#020201" transform="translate(0,0)"/>
<path d="M0 0 C0.89842292 0.0015486 1.79684585 0.0030972 2.72249371 0.00469273 C3.66932115 0.00242718 4.61614859 0.00016162 5.59166777 -0.00217259 C8.79003809 -0.00854367 11.98836637 -0.00768125 15.18674237 -0.00685817 C17.46933062 -0.00984772 19.75191836 -0.01324977 22.03450543 -0.01703578 C28.25339313 -0.02590058 34.47226709 -0.02821493 40.6911605 -0.02885157 C45.87293305 -0.02979854 51.05470237 -0.03347437 56.23647368 -0.03702366 C67.75702014 -0.04471122 79.27755872 -0.04769143 90.79810738 -0.04701831 C91.83594556 -0.04695838 91.83594556 -0.04695838 92.89475018 -0.04689723 C93.58748268 -0.04685635 94.28021519 -0.04681547 94.99393959 -0.04677335 C106.22489573 -0.04636676 117.45581838 -0.05593852 128.68676483 -0.0700356 C140.20615625 -0.08438116 151.72552699 -0.09112342 163.244928 -0.09044182 C169.717211 -0.09018613 176.1894561 -0.09307657 182.6617313 -0.10361987 C188.74618597 -0.11326013 194.83056619 -0.11340819 200.91502339 -0.10610324 C203.15402735 -0.10505232 205.39303585 -0.10745009 207.63203198 -0.1134637 C210.67700492 -0.12111524 213.72171635 -0.11658457 216.76668316 -0.10883266 C218.11097146 -0.116548 218.11097146 -0.116548 219.48241711 -0.12441921 C225.57980909 -0.08986566 225.57980909 -0.08986566 227.80808026 2.1384055 C228.00619872 5.17985141 228.07720628 8.13038115 228.06204754 11.17307347 C228.06672751 12.59459627 228.06672751 12.59459627 228.07150203 14.0448367 C228.079519 17.24015091 228.07314402 20.43527716 228.06686932 23.630593 C228.06957754 25.91332933 228.07313751 28.19606478 228.07748944 30.47879857 C228.08663581 36.69351391 228.08305994 42.90816313 228.07673126 49.12287968 C228.07168288 55.61357115 228.07635947 62.10425679 228.0795036 68.59494847 C228.08338028 80.19597422 228.07714815 91.79696967 228.06698492 103.39799064 C228.05804899 113.92410744 228.0596009 124.45018013 228.06882244 134.97629613 C228.07951693 147.18951423 228.08351406 159.4027009 228.07759792 171.61592358 C228.07447291 178.08483377 228.07408337 184.55371355 228.08067089 191.02262181 C228.08642976 197.10299279 228.0824743 203.18328011 228.07088238 209.26364201 C228.06822796 211.50103175 228.06901411 213.73842848 228.07340771 215.97581547 C228.07883385 219.01855263 228.07206486 222.06101793 228.06204754 225.10373753 C228.06873971 226.44700266 228.06873971 226.44700266 228.07556707 227.81740445 C228.03638025 233.91010551 228.03638025 233.91010551 225.80808026 236.1384055 C222.76429356 236.33433427 219.81155647 236.40311926 216.76668316 236.38564366 C215.81829573 236.38805808 214.8699083 236.39047249 213.89278185 236.39296007 C210.69512704 236.39862381 207.49766964 236.38991383 204.30002362 236.38132542 C202.01566536 236.38239764 199.73130736 236.38433541 197.4469505 236.38707799 C191.22816516 236.39193894 185.00945121 236.3842553 178.79067451 236.37412494 C172.2968485 236.36536582 165.80302486 236.36710147 159.30919415 236.3674857 C148.40313008 236.36654815 137.49709431 236.35790533 126.59103924 236.34421605 C115.35893777 236.33012473 104.12686061 236.32304539 92.89475018 236.32370824 C91.85691199 236.32376817 91.85691199 236.32376817 90.79810738 236.32382932 C89.76209968 236.32388985 89.76209968 236.32388985 88.70516253 236.3239516 C76.58053891 236.32460578 64.45592709 236.31946465 52.33130604 236.31115979 C47.16024787 236.30761933 41.98919322 236.30579545 36.81813389 236.30526608 C30.73532319 236.30426516 24.65253827 236.29818919 18.56973606 236.28809994 C16.33031392 236.28516693 14.0908888 236.28395118 11.85146481 236.28452748 C8.80844659 236.28501444 5.76550175 236.27939954 2.72249371 236.27211827 C1.37485932 236.27444117 1.37485932 236.27444117 0 236.276811 C-6.07774124 236.25258401 -6.07774124 236.25258401 -7.19191974 235.1384055 C-7.29214979 232.13191431 -7.32629983 229.14831658 -7.31890339 226.14133519 C-7.32046338 225.18563508 -7.32202337 224.22993497 -7.32363063 223.24527425 C-7.32764506 220.01692768 -7.32444928 216.78862748 -7.32131428 213.5602805 C-7.32266812 211.25636583 -7.32444796 208.95245138 -7.32662433 206.64853734 C-7.33120067 200.37186471 -7.32940829 194.09520844 -7.32624525 187.81853551 C-7.32372267 181.26597869 -7.3260589 174.71342331 -7.32763141 168.16086644 C-7.32977065 156.44864243 -7.32645243 144.73642534 -7.32137208 133.02420253 C-7.31690403 122.39429773 -7.31767996 111.76440385 -7.32229084 101.13449925 C-7.32763647 88.80484257 -7.32963751 76.47519285 -7.32667857 64.14553517 C-7.32511533 57.61349286 -7.32492333 51.08145808 -7.32821506 44.54941624 C-7.33109254 38.40998903 -7.32912037 32.27058254 -7.32332081 26.13115758 C-7.32199254 23.87077178 -7.32238844 21.61038425 -7.32458347 19.34999913 C-7.32729238 16.27846738 -7.32391705 13.20700319 -7.31890339 10.13547581 C-7.32113411 9.22858887 -7.32336483 8.32170193 -7.32566315 7.38733357 C-7.30267071 0.18837169 -7.20370354 0.02871529 0 0 Z " fill="#8C9BA7" transform="translate(146.19191974401474,137.8615944981575)"/>
<path d="M0 0 C10.84857414 -0.0695563 21.6970951 -0.12283994 32.54584694 -0.15543652 C37.58354197 -0.17108242 42.62108427 -0.19230118 47.65869141 -0.22631836 C52.5216255 -0.25894998 57.38441282 -0.27686111 62.24744797 -0.28463173 C64.10137619 -0.2901684 65.95529652 -0.30098019 67.80916214 -0.31719017 C70.40892046 -0.33901501 73.00807474 -0.34196482 75.60791016 -0.34057617 C76.37180054 -0.351362 77.13569092 -0.36214783 77.92272949 -0.3732605 C82.71222311 -0.34563698 86.02219165 0.29453892 90 3 C94.05664304 7.59364943 94.56414245 11.5672238 94.45410156 17.48388672 C94.45468567 18.31381638 94.45526978 19.14374603 94.45587158 19.99882507 C94.45309772 22.7262133 94.42203951 25.45249158 94.390625 28.1796875 C94.38316011 30.07682702 94.37746835 31.97397427 94.37347412 33.87112427 C94.35823731 38.85255403 94.31897231 43.83351366 94.2746582 48.8147583 C94.23366336 53.90248252 94.21545411 58.99028305 94.1953125 64.078125 C94.15247618 74.05228933 94.08424849 84.0261055 94 94 C93.42032471 94.0093457 92.84064941 94.01869141 92.2434082 94.02832031 C89.59893054 94.0822407 86.95618107 94.16584129 84.3125 94.25 C82.94448242 94.27126953 82.94448242 94.27126953 81.54882812 94.29296875 C77.22808616 94.45008664 74.64991543 94.59472954 70.91796875 96.921875 C68.26573139 99.79558228 67.87256948 101.36874838 67.79467773 105.17431641 C67.77473251 106.03505768 67.75478729 106.89579895 67.73423767 107.78262329 C67.71752518 108.71287323 67.70081268 109.64312317 67.68359375 110.6015625 C67.66281265 111.55316254 67.64203156 112.50476257 67.62062073 113.48519897 C67.55511867 116.53172432 67.4962372 119.57833743 67.4375 122.625 C67.39431541 124.68750916 67.35070114 126.75000937 67.30664062 128.8125 C67.19862621 133.87491127 67.09955766 138.93738701 67 144 C60.4 144 53.8 144 47 144 C46.94392578 141.23689453 46.94392578 141.23689453 46.88671875 138.41796875 C46.8210719 136.0077917 46.75462413 133.59763636 46.6875 131.1875 C46.66494141 129.97255859 46.64238281 128.75761719 46.61914062 127.50585938 C46.58369141 126.34248047 46.54824219 125.17910156 46.51171875 123.98046875 C46.48553467 122.90692139 46.45935059 121.83337402 46.43237305 120.72729492 C46.20715281 118.00180775 46.20715281 118.00180775 44.68676758 116.1496582 C41.84307754 114.21147085 39.31678754 114.64462991 36 115 C34.20208112 116.09917986 34.20208112 116.09917986 33 118 C32.49454132 120.70484875 32.49454132 120.70484875 32.48828125 123.76171875 C32.43510742 125.43911133 32.43510742 125.43911133 32.38085938 127.15039062 C32.35830078 128.31763672 32.33574219 129.48488281 32.3125 130.6875 C32.27833984 131.86634766 32.24417969 133.04519531 32.20898438 134.25976562 C32.12642761 137.17284019 32.06153987 140.08640568 32 143 C26.72 143 21.44 143 16 143 C15.38151042 140.78645833 14.76302083 138.57291667 14.14453125 136.359375 C12.51650954 133.0033166 11.29538072 131.8454132 8 130 C4.06635228 129.37769416 0.16469968 129.30345045 -3.8125 129.25 C-4.88693359 129.22035156 -5.96136719 129.19070312 -7.06835938 129.16015625 C-9.71231427 129.08965079 -12.3553973 129.03685857 -15 129 C-15.05115967 128.38946777 -15.10231934 127.77893555 -15.1550293 127.14990234 C-15.23148682 126.34504395 -15.30794434 125.54018555 -15.38671875 124.7109375 C-15.45850342 123.91478027 -15.53028809 123.11862305 -15.60424805 122.29833984 C-16.33189549 118.07250823 -18.64590399 115.21124633 -21.77734375 112.41015625 C-24.44922392 110.7149915 -26.63349397 110.29481641 -29.75 109.8125 C-31.22726562 109.57466797 -31.22726562 109.57466797 -32.734375 109.33203125 C-33.48203125 109.22246094 -34.2296875 109.11289063 -35 109 C-35.0093457 108.3294458 -35.01869141 107.6588916 -35.02832031 106.96801758 C-35.08216596 103.91544433 -35.16578495 100.86438018 -35.25 97.8125 C-35.26417969 96.75740234 -35.27835937 95.70230469 -35.29296875 94.61523438 C-35.48315537 88.47632238 -35.48315537 88.47632238 -37.71875 82.84375 C-40.30735214 80.7515921 -41.97534859 80.1614627 -45.25 79.6875 C-46.8175 79.460625 -48.385 79.23375 -50 79 C-50 73.72 -50 68.44 -50 63 C-39.45618307 62.97744898 -28.91238203 62.95908492 -18.36854649 62.94818783 C-13.47314626 62.942959 -8.57776332 62.93586136 -3.68237305 62.92456055 C1.03787978 62.91373166 5.75811592 62.90772316 10.4783802 62.90512276 C12.28338954 62.90326851 14.08839792 62.89964791 15.89340019 62.89426994 C18.41259644 62.88705948 20.9317229 62.88600906 23.45092773 62.88647461 C24.20474228 62.88287933 24.95855682 62.87928406 25.73521423 62.87557983 C30.88594784 62.88594784 30.88594784 62.88594784 32 64 C32.12129462 65.73286076 32.17964347 67.47021247 32.2109375 69.20703125 C32.23929687 70.26857422 32.26765625 71.33011719 32.296875 72.42382812 C32.34868445 74.67106281 32.39303583 76.91848262 32.4296875 79.16601562 C32.460625 80.23142578 32.4915625 81.29683594 32.5234375 82.39453125 C32.54325684 83.37268799 32.56307617 84.35084473 32.58349609 85.35864258 C33.0663091 88.42051472 33.80841804 89.82394095 36 92 C40.57241745 92.607956 40.57241745 92.607956 44.69165039 90.87426758 C47.45631275 86.91376881 46.47609388 81.37525864 46.44604492 76.71313477 C46.4375746 74.70518393 46.46764146 72.69719161 46.49804688 70.68945312 C46.49740234 69.41392578 46.49675781 68.13839844 46.49609375 66.82421875 C46.49794678 65.65979248 46.4997998 64.49536621 46.50170898 63.2956543 C45.68641721 57.94011965 43.190102 54.89864845 38.9375 51.6875 C34.23192453 48.98429707 30.32867318 48.83444791 25.0402832 48.79467773 C24.23029877 48.78477814 23.42031433 48.77487854 22.58578491 48.76467896 C19.90748013 48.73308191 17.22915761 48.7083136 14.55078125 48.68359375 C12.69418374 48.66302267 10.83759089 48.64202616 8.98100281 48.62062073 C4.09349344 48.56541593 -0.79405808 48.5159996 -5.68164062 48.46777344 C-10.66865798 48.41754682 -15.65561408 48.3618668 -20.64257812 48.30664062 C-30.42833505 48.19907849 -40.21414397 48.09813308 -50 48 C-50 41.07 -50 34.14 -50 27 C-47.02613281 26.96261719 -44.05226563 26.92523438 -40.98828125 26.88671875 C-38.10222088 26.84048309 -35.21628916 26.78925682 -32.33032227 26.73754883 C-30.32747236 26.70433273 -28.3245296 26.67629048 -26.3215332 26.65356445 C-23.43921406 26.61995766 -20.55774332 26.56763852 -17.67578125 26.51171875 C-16.78288895 26.50532883 -15.88999664 26.4989389 -14.970047 26.49235535 C-10.19258892 26.37984321 -6.84488682 26.15071632 -3 23 C-0.91254955 19.86882433 -0.72346004 18.93053776 -0.5859375 15.33203125 C-0.54726563 14.43935547 -0.50859375 13.54667969 -0.46875 12.62695312 C-0.42234375 11.23379883 -0.42234375 11.23379883 -0.375 9.8125 C-0.33632813 8.87212891 -0.29765625 7.93175781 -0.2578125 6.96289062 C-0.16356813 4.6421229 -0.07795975 2.32136252 0 0 Z " fill="#B0E29D" transform="translate(403,15)"/>
<path d="M0 0 C6.6 0 13.2 0 20 0 C20.02578125 3.04605469 20.0515625 6.09210938 20.078125 9.23046875 C20.11655602 12.18604712 20.1617129 15.14145166 20.20751953 18.09692383 C20.23571564 20.14827146 20.25693693 22.19972747 20.27099609 24.2512207 C20.29244424 27.20320054 20.33910448 30.1538793 20.390625 33.10546875 C20.39185364 34.02023483 20.39308228 34.93500092 20.39434814 35.87748718 C20.49103133 40.09671067 20.6304482 42.40968863 22.91308594 46.0559082 C25.88619977 48.82555086 27.60938731 49.14092222 31.5703125 49.31640625 C32.91416016 49.37924805 32.91416016 49.37924805 34.28515625 49.44335938 C35.22230469 49.48267578 36.15945313 49.52199219 37.125 49.5625 C38.54232422 49.62727539 38.54232422 49.62727539 39.98828125 49.69335938 C42.32537092 49.79959072 44.6625683 49.90163176 47 50 C47.0695563 60.84857414 47.12283994 71.6970951 47.15543652 82.54584694 C47.17108242 87.58354197 47.19230118 92.62108427 47.22631836 97.65869141 C47.25894998 102.5216255 47.27686111 107.38441282 47.28463173 112.24744797 C47.2901684 114.10137619 47.30098019 115.95529652 47.31719017 117.80916214 C47.33901501 120.40892046 47.34196482 123.00807474 47.34057617 125.60791016 C47.351362 126.37180054 47.36214783 127.13569092 47.3732605 127.92272949 C47.3457192 132.69796615 46.51546324 135.93944431 44 140 C39.38542169 144.1819616 34.90657328 144.1411769 28.94848633 144.11352539 C28.12874832 144.11367142 27.30901031 144.11381744 26.46443176 144.1139679 C23.75360472 144.11327096 21.0428463 144.10548878 18.33203125 144.09765625 C16.45301857 144.09579129 14.5740054 144.09436776 12.69499207 144.09336853 C7.74824685 144.08954948 2.80153098 144.07972438 -2.14520264 144.06866455 C-7.19250085 144.0584373 -12.23980379 144.05386809 -17.28710938 144.04882812 C-27.19141914 144.03810159 -37.09570713 144.02103248 -47 144 C-47.0093457 143.42032471 -47.01869141 142.84064941 -47.02832031 142.2434082 C-47.0822407 139.59893054 -47.16584129 136.95618107 -47.25 134.3125 C-47.26417969 133.40048828 -47.27835937 132.48847656 -47.29296875 131.54882812 C-47.44856203 127.27001294 -47.61257293 124.64218478 -49.859375 120.91796875 C-52.85494291 118.23398364 -55.31962111 117.87616412 -59.19604492 117.79467773 C-60.03668991 117.77473251 -60.8773349 117.75478729 -61.74345398 117.73423767 C-62.64666885 117.71752518 -63.54988373 117.70081268 -64.48046875 117.68359375 C-65.87245232 117.6524221 -65.87245232 117.6524221 -67.29255676 117.62062073 C-70.2574624 117.55522677 -73.22245672 117.49628738 -76.1875 117.4375 C-78.1972748 117.39430513 -80.20704063 117.35069053 -82.21679688 117.30664062 C-87.14444167 117.19876571 -92.07215361 117.09961668 -97 117 C-97 110.07 -97 103.14 -97 96 C-95.02515625 95.96261719 -93.0503125 95.92523438 -91.015625 95.88671875 C-88.42706409 95.82106684 -85.83852328 95.75461924 -83.25 95.6875 C-81.94804687 95.66494141 -80.64609375 95.64238281 -79.3046875 95.61914062 C-78.05429687 95.58369141 -76.80390625 95.54824219 -75.515625 95.51171875 C-74.36352539 95.48553467 -73.21142578 95.45935059 -72.02441406 95.43237305 C-68.75636103 94.96516915 -67.33697583 94.29024334 -65 92 C-64.27491571 89.11679083 -64.66361924 87.02742688 -65 84 C-68.58422296 81.61051803 -70.37232596 81.69766832 -74.63671875 81.5859375 C-75.93544922 81.54726563 -77.23417969 81.50859375 -78.57226562 81.46875 C-79.94400573 81.43729483 -81.31575061 81.40604749 -82.6875 81.375 C-84.07098785 81.33680803 -85.45445223 81.29775558 -86.83789062 81.2578125 C-90.2251245 81.16339483 -93.61235069 81.07781882 -97 81 C-97.02685095 78.52076199 -97.04676547 76.0418116 -97.0625 73.5625 C-97.07506836 72.50192383 -97.07506836 72.50192383 -97.08789062 71.41992188 C-97.09653588 69.61306441 -97.05220011 67.80612397 -97 66 C-95.12670891 64.12670891 -91.87340495 64.27826984 -89.32421875 63.890625 C-85.84758506 62.55840234 -84.83165015 61.27080384 -83 58 C-82.40540224 54.25272937 -82.34902624 50.53898835 -82.3125 46.75 C-82.27061739 44.74471119 -82.22524078 42.73949123 -82.17578125 40.734375 C-82.16458252 39.84975586 -82.15338379 38.96513672 -82.1418457 38.05371094 C-82 36 -82 36 -81 35 C-79.44085483 34.72986562 -77.87748669 34.48392925 -76.3125 34.25 C-71.12466428 33.24805748 -68.59549489 31.865157 -65 28 C-62.88893974 24.17998619 -62.58727911 20.28663553 -62 16 C-61.39526855 15.9906543 -60.79053711 15.98130859 -60.16748047 15.97167969 C-57.4025212 15.91768278 -54.63920094 15.83409606 -51.875 15.75 C-50.92367187 15.73582031 -49.97234375 15.72164063 -48.9921875 15.70703125 C-43.06022631 15.50106038 -39.51590802 14.953223 -35 11 C-32.43126321 7.61430493 -32.43126321 7.61430493 -32 1 C-26.39 1 -20.78 1 -15 1 C-14.97744869 11.28304929 -14.95908475 21.56608228 -14.94818783 31.84915066 C-14.94295907 36.6234828 -14.93586156 41.39779721 -14.92456055 46.17211914 C-14.9137314 50.77566262 -14.90772311 55.37918899 -14.90512276 59.98274422 C-14.90326856 61.74309623 -14.89964804 63.50344726 -14.89426994 65.26379204 C-14.88705914 67.72072277 -14.88600907 70.17758195 -14.88647461 72.63452148 C-14.88287933 73.36963455 -14.87928406 74.10474762 -14.87557983 74.86213684 C-14.88594784 79.88594784 -14.88594784 79.88594784 -16 81 C-17.7559663 81.13340015 -19.51683432 81.20343476 -21.27734375 81.24609375 C-22.34791016 81.27896484 -23.41847656 81.31183594 -24.52148438 81.34570312 C-26.79482297 81.40679341 -29.0682665 81.46409864 -31.34179688 81.51757812 C-32.41365234 81.55173828 -33.48550781 81.58589844 -34.58984375 81.62109375 C-35.57847412 81.6461499 -36.56710449 81.67120605 -37.58569336 81.69702148 C-40.18097538 81.7719371 -40.18097538 81.7719371 -42 84 C-42.47213673 88.06095958 -42.47213673 88.06095958 -42 92 C-37.38999035 96.34422645 -32.24076135 95.47700742 -26.25 95.4375 C-24.66058594 95.4674707 -24.66058594 95.4674707 -23.0390625 95.49804688 C-16.52685119 95.49400704 -11.38610466 94.85952099 -6 91 C-1.36172863 86.00493853 -0.84364041 82.6828969 -0.79467773 76.06201172 C-0.78477814 75.24241974 -0.77487854 74.42282776 -0.76467896 73.57839966 C-0.73302467 70.86219192 -0.70829103 68.14596668 -0.68359375 65.4296875 C-0.66302761 63.5492405 -0.64203123 61.66879817 -0.62062073 59.7883606 C-0.5653649 54.83343269 -0.51597112 49.87846283 -0.46777344 44.92346191 C-0.41758402 39.86950943 -0.36188461 34.81561806 -0.30664062 29.76171875 C-0.1990161 19.84119604 -0.0980897 9.92062157 0 0 Z " fill="#B0E29D" transform="translate(450,353)"/>
<path d="M0 0 C6.6 0 13.2 0 20 0 C20.0093457 2.51318848 20.01869141 5.02637695 20.02832031 7.61572266 C20.06211069 15.92591281 20.11767114 24.23585518 20.18390274 32.54584694 C20.22338609 37.58347488 20.25557041 42.6209278 20.27099609 47.65869141 C20.28615696 52.52184207 20.32059253 57.38451158 20.36830902 62.24744797 C20.38312867 64.10131011 20.39104135 65.95524095 20.39188385 67.80916214 C20.39425352 70.4092646 20.4213322 73.00803736 20.45410156 75.60791016 C20.4490712 76.37180054 20.44404083 77.13569092 20.43885803 77.92272949 C20.54018186 83.13017992 21.55086756 86.10031444 25 90 C30.28931787 94.42087187 34.82788211 95.73683756 41.61914062 95.65942383 C42.43960876 95.66990753 43.2600769 95.68039124 44.10540771 95.69119263 C46.7894154 95.71975626 49.47211872 95.71367343 52.15625 95.70703125 C54.02813315 95.72015766 55.90000217 95.73546478 57.77185059 95.75285339 C62.67748529 95.79260594 67.58274863 95.80288755 72.48852539 95.80688477 C77.50288081 95.8162346 82.51701971 95.85365972 87.53125 95.88867188 C97.35420779 95.9531488 107.17684372 95.98387262 117 96 C117 102.93 117 109.86 117 117 C113.95394531 117.02578125 110.90789062 117.0515625 107.76953125 117.078125 C104.81395288 117.11655602 101.85854834 117.1617129 98.90307617 117.20751953 C96.85172854 117.23571564 94.80027253 117.25693693 92.7487793 117.27099609 C89.79679946 117.29244424 86.8461207 117.33910448 83.89453125 117.390625 C82.52238213 117.39246796 82.52238213 117.39246796 81.12251282 117.39434814 C76.90328933 117.49103133 74.59031137 117.6304482 70.9440918 119.91308594 C68.17444914 122.88619977 67.85907778 124.60938731 67.68359375 128.5703125 C67.64169922 129.46621094 67.59980469 130.36210937 67.55664062 131.28515625 C67.51732422 132.22230469 67.47800781 133.15945313 67.4375 134.125 C67.37272461 135.54232422 67.37272461 135.54232422 67.30664062 136.98828125 C67.20040928 139.32537092 67.09836824 141.6625683 67 144 C56.02107345 144.0927379 45.0422403 144.16378438 34.06300163 144.20724869 C28.96471177 144.22811092 23.86669017 144.25640383 18.76855469 144.30175781 C13.84725437 144.34526396 8.92621185 144.36914737 4.00473404 144.37950897 C2.12845934 144.38689176 0.25219854 144.40130873 -1.62396622 144.42292023 C-4.25499049 144.45201777 -6.88495363 144.45595338 -9.51611328 144.45410156 C-10.2893544 144.46848267 -11.06259552 144.48286377 -11.85926819 144.49768066 C-17.05992909 144.45815256 -20.01317142 143.31550911 -24 140 C-26.69763355 135.83219542 -27.38634275 132.53245818 -27.4765625 127.61328125 C-27.5075 126.42798828 -27.5384375 125.24269531 -27.5703125 124.02148438 C-27.58835937 122.79751953 -27.60640625 121.57355469 -27.625 120.3125 C-27.67594392 117.87101277 -27.73046027 115.42959667 -27.7890625 112.98828125 C-27.81540771 111.37240112 -27.81540771 111.37240112 -27.84228516 109.72387695 C-27.88666405 106.90523906 -27.88666405 106.90523906 -29 104 C-30.98 103.34 -32.96 102.68 -35 102 C-35 95.73 -35 89.46 -35 83 C-32.03 82.01 -32.03 82.01 -29 81 C-27.99749167 79.25007442 -27.99749167 79.25007442 -28 77 C-27.93224365 76.03223633 -27.8644873 75.06447266 -27.79467773 74.06738281 C-27.73969116 72.4020752 -27.73969116 72.4020752 -27.68359375 70.703125 C-27.64169922 69.49785156 -27.59980469 68.29257812 -27.55664062 67.05078125 C-27.51732422 65.79652344 -27.47800781 64.54226563 -27.4375 63.25 C-27.37272461 61.34541016 -27.37272461 61.34541016 -27.30664062 59.40234375 C-27.20060278 56.26833635 -27.09853942 53.13425067 -27 50 C-26.42032471 49.9906543 -25.84064941 49.98130859 -25.2434082 49.97167969 C-22.59893054 49.9177593 -19.95618107 49.83415871 -17.3125 49.75 C-16.40048828 49.73582031 -15.48847656 49.72164063 -14.54882812 49.70703125 C-10.27001294 49.55143797 -7.64218478 49.38742707 -3.91796875 47.140625 C-1.23398364 44.14505709 -0.87616412 41.68037889 -0.79467773 37.80395508 C-0.7647599 36.54298759 -0.7647599 36.54298759 -0.73423767 35.25654602 C-0.70916893 33.90172371 -0.70916893 33.90172371 -0.68359375 32.51953125 C-0.66281265 31.59154221 -0.64203156 30.66355316 -0.62062073 29.70744324 C-0.55522677 26.7425376 -0.49628738 23.77754328 -0.4375 20.8125 C-0.39430513 18.8027252 -0.35069053 16.79295937 -0.30664062 14.78320312 C-0.19876571 9.85555833 -0.09961668 4.92784639 0 0 Z " fill="#B0E29D" transform="translate(42,353)"/>
<path d="M0 0 C6.27 0 12.54 0 19 0 C19.66 1.98 20.32 3.96 21 6 C24.36551123 7.12183708 27.09060232 7.20800968 30.63671875 7.31640625 C31.93544922 7.35830078 33.23417969 7.40019531 34.57226562 7.44335938 C35.94400761 7.48316987 37.31575244 7.52288216 38.6875 7.5625 C40.07097645 7.60570835 41.45444027 7.64932339 42.83789062 7.69335938 C46.22515719 7.79958028 49.61249799 7.90162358 53 8 C53.0093457 8.57967529 53.01869141 9.15935059 53.02832031 9.7565918 C53.0822407 12.40106946 53.16584129 15.04381893 53.25 17.6875 C53.26417969 18.59951172 53.27835937 19.51152344 53.29296875 20.45117188 C53.45008664 24.77191384 53.59472954 27.35008457 55.921875 31.08203125 C58.79558228 33.73426861 60.36874838 34.12743052 64.17431641 34.20532227 C65.03505768 34.22526749 65.89579895 34.24521271 66.78262329 34.26576233 C67.71287323 34.28247482 68.64312317 34.29918732 69.6015625 34.31640625 C70.55316254 34.33718735 71.50476257 34.35796844 72.48519897 34.37937927 C75.53172432 34.44488133 78.57833743 34.5037628 81.625 34.5625 C83.68750916 34.60568459 85.75000937 34.64929886 87.8125 34.69335938 C92.87491127 34.80137379 97.93738701 34.90044234 103 35 C103 41.93 103 48.86 103 56 C99.24592773 56.00616333 99.24592773 56.00616333 95.41601562 56.01245117 C87.12977078 56.02967951 78.84383316 56.07423271 70.5577774 56.13209057 C65.53585383 56.16632273 60.51423326 56.19146469 55.4921875 56.19555664 C50.64192835 56.19984766 45.79235227 56.22837707 40.94230652 56.27343178 C39.09567754 56.2863811 37.2489667 56.29072358 35.40229797 56.28615379 C32.80716994 56.28122938 30.21402433 56.3074195 27.61914062 56.34057617 C26.48409088 56.32763771 26.48409088 56.32763771 25.32611084 56.31443787 C19.48470077 56.43884874 15.47980973 58.25572422 11 62 C6.96689299 66.55994353 6.41528953 70.49825586 6.45410156 76.39208984 C6.44376389 77.21226593 6.43342621 78.03244202 6.42277527 78.87747192 C6.39341938 81.57216257 6.39184965 84.26609974 6.390625 86.9609375 C6.37563846 88.83567735 6.35891031 90.71040402 6.34051514 92.58511353 C6.29688263 97.50714739 6.27685159 102.42900315 6.26177979 107.35119629 C6.24219395 112.37876905 6.20022557 117.4061499 6.16015625 122.43359375 C6.08489828 132.28903573 6.03664989 142.14433874 6 152 C-0.6 152 -7.2 152 -14 152 C-14.02578125 148.95394531 -14.0515625 145.90789062 -14.078125 142.76953125 C-14.11655602 139.81395288 -14.1617129 136.85854834 -14.20751953 133.90307617 C-14.23571564 131.85172854 -14.25693693 129.80027253 -14.27099609 127.7487793 C-14.29244424 124.79679946 -14.33910448 121.8461207 -14.390625 118.89453125 C-14.39185364 117.97976517 -14.39308228 117.06499908 -14.39434814 116.12251282 C-14.49103133 111.90328933 -14.6304482 109.59031137 -16.91308594 105.9440918 C-19.88619977 103.17444914 -21.60938731 102.85907778 -25.5703125 102.68359375 C-26.46621094 102.64169922 -27.36210937 102.59980469 -28.28515625 102.55664062 C-29.22230469 102.51732422 -30.15945312 102.47800781 -31.125 102.4375 C-32.54232422 102.37272461 -32.54232422 102.37272461 -33.98828125 102.30664062 C-36.32537092 102.20040928 -38.6625683 102.09836824 -41 102 C-41.0927379 91.02107345 -41.16378438 80.0422403 -41.20724869 69.06300163 C-41.22811092 63.96471177 -41.25640383 58.86669017 -41.30175781 53.76855469 C-41.34526396 48.84725437 -41.36914737 43.92621185 -41.37950897 39.00473404 C-41.38689176 37.12845934 -41.40130873 35.25219854 -41.42292023 33.37603378 C-41.45201777 30.74500951 -41.45595338 28.11504637 -41.45410156 25.48388672 C-41.46848267 24.7106456 -41.48286377 23.93740448 -41.49768066 23.14073181 C-41.45812258 17.93612712 -40.28670131 15.00788729 -37 11 C-33.33114492 8.14690743 -30.56204444 7.611248 -25.96484375 7.5234375 C-24.82595703 7.4925 -23.68707031 7.4615625 -22.51367188 7.4296875 C-20.7434668 7.40261719 -20.7434668 7.40261719 -18.9375 7.375 C-16.59236623 7.32393557 -14.24730487 7.26939545 -11.90234375 7.2109375 C-10.34761353 7.18459229 -10.34761353 7.18459229 -8.76147461 7.15771484 C-5.25156931 7.0678996 -5.25156931 7.0678996 -2 6 C-1.34 4.02 -0.68 2.04 0 0 Z " fill="#B0E29D" transform="translate(56,7)"/>
<path d="M0 0 C1.34968074 0.00436926 1.34968074 0.00436926 2.72662777 0.00882679 C4.14898563 0.00754515 4.14898563 0.00754515 5.60007799 0.00623763 C8.80312288 0.00457993 12.00611632 0.01010891 15.20915645 0.01555592 C17.49498916 0.01583775 19.78082197 0.01568013 22.06665462 0.01511341 C28.2936774 0.0148253 34.52068111 0.02072431 40.74769944 0.02768737 C47.24733758 0.03391856 53.74697611 0.03452452 60.24661678 0.03571278 C71.16284442 0.0384725 82.07906498 0.04472806 92.99528927 0.05364186 C104.24105714 0.06281522 115.4868231 0.06989642 126.73259395 0.07414967 C127.77167433 0.07454375 127.77167433 0.07454375 128.83174623 0.0749458 C132.30678011 0.0762508 135.78181401 0.07751452 139.25684792 0.0787577 C168.10415529 0.08913123 196.95145551 0.10682446 225.79875606 0.12908131 C225.79875606 0.45908131 225.79875606 0.78908131 225.79875606 1.12908131 C152.86875606 1.12908131 79.93875606 1.12908131 4.79875606 1.12908131 C5.12875606 74.05908131 5.45875606 146.98908131 5.79875606 222.12908131 C78.72875606 222.45908131 151.65875606 222.78908131 226.79875606 223.12908131 C226.79875606 150.19908131 226.79875606 77.26908131 226.79875606 2.12908131 C227.12875606 2.12908131 227.45875606 2.12908131 227.79875606 2.12908131 C227.84434509 31.65045795 227.87975671 61.17183293 227.90088672 90.69323736 C227.90338825 94.17559556 227.90597688 97.65795368 227.90861934 101.14031178 C227.90914397 101.83360978 227.90966859 102.52690779 227.9102091 103.24121483 C227.91892046 114.47869751 227.93469443 125.7161598 227.95306166 136.95363037 C227.97174042 148.47750633 227.98271871 160.00136792 227.98693305 171.52525872 C227.98954711 178.00091521 227.99571781 184.4765254 228.01021618 190.95216709 C228.02373808 197.04070575 228.02798969 203.12917881 228.02497143 209.21773106 C228.02552401 211.45834925 228.0295334 213.69896952 228.03716701 215.93957478 C228.04704396 218.98678355 228.04475163 222.03374111 228.0392651 225.08095509 C228.04509078 225.97782941 228.05091646 226.87470373 228.05691868 227.79875606 C228.02699848 233.90083889 228.02699848 233.90083889 225.79875606 236.12908131 C222.75496937 236.32501008 219.80223228 236.39379507 216.75735897 236.37631947 C215.80897154 236.37873388 214.86058411 236.3811483 213.88345766 236.38363588 C210.68580285 236.38929962 207.48834545 236.38058963 204.29069942 236.37200123 C202.00634116 236.37307344 199.72198317 236.37501121 197.4376263 236.37775379 C191.21884096 236.38261474 185.00012702 236.37493111 178.78135031 236.36480075 C172.2875243 236.35604163 165.79370067 236.35777727 159.29986995 236.35816151 C148.39380589 236.35722396 137.48777012 236.34858113 126.58171505 236.33489186 C115.34961357 236.32080053 104.11753642 236.3137212 92.88542598 236.31438404 C91.8475878 236.31444398 91.8475878 236.31444398 90.78878319 236.31450512 C89.75277548 236.31456565 89.75277548 236.31456565 88.69583833 236.31462741 C76.57121471 236.31528159 64.4466029 236.31014046 52.32198185 236.3018356 C47.15092367 236.29829513 41.97986902 236.29647126 36.8088097 236.29594189 C30.725999 236.29494097 24.64321408 236.28886499 18.56041187 236.27877575 C16.32098972 236.27584274 14.08156461 236.27462699 11.84214061 236.27520329 C8.7991224 236.27569024 5.75617756 236.27007535 2.71316952 236.26279408 C1.36553513 236.26511698 1.36553513 236.26511698 -0.00932419 236.26748681 C-6.08706543 236.24325981 -6.08706543 236.24325981 -7.20124394 235.12908131 C-7.30147398 232.12259011 -7.33562402 229.13899239 -7.32822758 226.132011 C-7.32978757 225.17631088 -7.33134756 224.22061077 -7.33295482 223.23595005 C-7.33696925 220.00760349 -7.33377347 216.77930329 -7.33063847 213.55095631 C-7.33199231 211.24704164 -7.33377215 208.94312718 -7.33594853 206.63921314 C-7.34052486 200.36254052 -7.33873248 194.08588424 -7.33556944 187.80921131 C-7.33304687 181.25665449 -7.33538309 174.70409912 -7.33695561 168.15154225 C-7.33909484 156.43931824 -7.33577662 144.72710114 -7.33069627 133.01487833 C-7.32622822 122.38497354 -7.32700415 111.75507966 -7.33161503 101.12517506 C-7.33696066 88.79551838 -7.3389617 76.46586866 -7.33600277 64.13621098 C-7.33443952 57.60416867 -7.33424753 51.07213389 -7.33753926 44.54009205 C-7.34041673 38.40066484 -7.33844457 32.26125835 -7.332645 26.12183338 C-7.33131673 23.86144759 -7.33171263 21.60106006 -7.33390766 19.34067494 C-7.33661657 16.26914319 -7.33324124 13.197679 -7.32822758 10.12615162 C-7.3304583 9.21926468 -7.33268902 8.31237774 -7.33498734 7.37800938 C-7.31197446 0.17264872 -7.20967368 0.01771895 0 0 Z " fill="#73848F" transform="translate(146.20124393701553,137.8709186911583)"/>
<path d="M0 0 C5.28 0 10.56 0 16 0 C16.02578125 1.53011719 16.0515625 3.06023437 16.078125 4.63671875 C16.13441213 6.65367412 16.19175932 8.6706001 16.25 10.6875 C16.26417969 11.69490234 16.27835937 12.70230469 16.29296875 13.74023438 C16.43931247 18.17444917 16.55876709 21.21285621 18.75390625 25.12890625 C21.17358872 27.14460695 22.60236954 27.78085619 25.6875 28.25 C29.94716243 28.94716243 29.94716243 28.94716243 31 30 C31.1018696 31.56934823 31.13568852 33.14318133 31.1418457 34.71582031 C31.15239738 36.22308685 31.15239738 36.22308685 31.16316223 37.76080322 C31.16732651 38.85551941 31.17149078 39.9502356 31.17578125 41.078125 C31.19898324 43.3763112 31.22310072 45.67448832 31.24804688 47.97265625 C31.28316063 51.61122681 31.31249802 55.24946427 31.32592773 58.88818359 C31.34139463 62.38941264 31.38160533 65.88965593 31.42578125 69.390625 C31.42387283 70.47724426 31.42196442 71.56386353 31.41999817 72.68341064 C31.50195169 78.66769117 31.50195169 78.66769117 33.78588867 84.10058594 C37.5024083 87.28886719 40.10132549 88.23541435 44.984375 88.4140625 C45.91894531 88.45273437 46.85351562 88.49140625 47.81640625 88.53125 C48.78449219 88.5621875 49.75257813 88.593125 50.75 88.625 C51.73355469 88.66367187 52.71710938 88.70234375 53.73046875 88.7421875 C56.15334289 88.8362797 58.57664545 88.91922152 61 89 C61 95.27 61 101.54 61 108 C26.02 108 -8.96 108 -45 108 C-45 101.73 -45 95.46 -45 89 C-43.55367187 88.97421875 -42.10734375 88.9484375 -40.6171875 88.921875 C-38.70309548 88.86557818 -36.78903415 88.8082312 -34.875 88.75 C-33.92367187 88.73582031 -32.97234375 88.72164063 -31.9921875 88.70703125 C-26.06022631 88.50106038 -22.51590802 87.953223 -18 84 C-15.82820226 80.7423034 -15.74043502 79.76886999 -15.69702148 75.99365234 C-15.68037949 74.97604828 -15.66373749 73.95844421 -15.64659119 72.91000366 C-15.63817703 71.81306183 -15.62976288 70.71612 -15.62109375 69.5859375 C-15.60409927 68.46055573 -15.5871048 67.33517395 -15.56959534 66.1756897 C-15.51638489 62.575517 -15.47612323 58.97535649 -15.4375 55.375 C-15.39364129 51.76756093 -15.34700688 48.16021356 -15.29469299 44.55288696 C-15.26261861 42.30602884 -15.23576574 40.05908933 -15.21446228 37.81210327 C-15.20097244 36.80080353 -15.1874826 35.78950378 -15.17358398 34.74755859 C-15.16407211 33.8528183 -15.15456024 32.958078 -15.14476013 32.03622437 C-15 30 -15 30 -14 29 C-11.78044005 28.5858022 -9.55640808 28.23006536 -7.32421875 27.890625 C-3.84623292 26.55788421 -2.8341274 25.27201793 -1 22 C-0.3815216 18.23253196 -0.30366188 14.4999325 -0.25 10.6875 C-0.22035156 9.66076172 -0.19070312 8.63402344 -0.16015625 7.57617188 C-0.08969192 5.05120008 -0.04255428 2.52559635 0 0 Z " fill="#AFE19C" transform="translate(248,389)"/>
<path d="M0 0 C34.32 0 68.64 0 104 0 C104 6.27 104 12.54 104 19 C102.62585938 19.02578125 101.25171875 19.0515625 99.8359375 19.078125 C98.01559404 19.13442428 96.19528276 19.19177121 94.375 19.25 C93.01955078 19.27126953 93.01955078 19.27126953 91.63671875 19.29296875 C85.97242165 19.49969492 82.44963339 20.15394464 78 24 C75.81499293 27.2775106 75.73648764 28.30510051 75.68115234 32.11401367 C75.66128265 33.15486618 75.64141296 34.19571869 75.62094116 35.26811218 C75.60938995 36.39006485 75.59783875 37.51201752 75.5859375 38.66796875 C75.56657135 39.81791824 75.5472052 40.96786774 75.5272522 42.15266418 C75.46740239 45.83086699 75.42104894 49.509101 75.375 53.1875 C75.33682524 55.67905022 75.29777381 58.17058717 75.2578125 60.66210938 C75.16169638 66.77462194 75.07666462 72.88721421 75 79 C74.30803528 79.12248611 73.61607056 79.24497223 72.90313721 79.37117004 C71.99827576 79.53977036 71.09341431 79.70837067 70.16113281 79.88208008 C69.26291809 80.04581619 68.36470337 80.20955231 67.43927002 80.37825012 C64.82260532 80.88374507 64.82260532 80.88374507 62.421875 82.88671875 C60.20233235 87.74654152 60.32101205 92.52855807 60.25 97.8125 C60.20552734 99.42415039 60.20552734 99.42415039 60.16015625 101.06835938 C60.08966347 103.71183877 60.04254347 106.35592311 60 109 C54.72 109 49.44 109 44 109 C43.97421875 107.39769531 43.9484375 105.79539062 43.921875 104.14453125 C43.86558956 102.03382709 43.80824232 99.92315106 43.75 97.8125 C43.73582031 96.75740234 43.72164062 95.70230469 43.70703125 94.61523438 C43.57023865 90.27890909 43.39232305 86.85901502 41.578125 82.88671875 C38.80371031 80.85635164 37.17122198 80.48953708 33.83886719 79.88208008 C32.93400574 79.71347977 32.02914429 79.54487946 31.09686279 79.37117004 C30.40489807 79.24868393 29.71293335 79.12619781 29 79 C28.99635437 78.3596431 28.99270874 77.71928619 28.98895264 77.05952454 C28.94712802 70.39193487 28.87778228 63.72503358 28.79248047 57.05786133 C28.76426248 54.56997565 28.74305213 52.08200018 28.72900391 49.59399414 C28.70758679 46.01662193 28.6609398 42.44033027 28.609375 38.86328125 C28.60814636 37.75165115 28.60691772 36.64002106 28.60565186 35.4947052 C28.5127177 29.41125133 28.5127177 29.41125133 26.21191406 23.88354492 C22.57280988 20.78468303 20.00219501 19.76931519 15.234375 19.5859375 C14.34492188 19.54726563 13.45546875 19.50859375 12.5390625 19.46875 C11.61867187 19.4378125 10.69828125 19.406875 9.75 19.375 C8.81414062 19.33632813 7.87828125 19.29765625 6.9140625 19.2578125 C4.60969204 19.16375656 2.3048734 19.08079814 0 19 C0 12.73 0 6.46 0 0 Z " fill="#B0E19C" transform="translate(204,15)"/>
<path d="M0 0 C6.27 0 12.54 0 19 0 C19.02578125 1.37414062 19.0515625 2.74828125 19.078125 4.1640625 C19.13442428 5.98440596 19.19177121 7.80471724 19.25 9.625 C19.26417969 10.52863281 19.27835938 11.43226563 19.29296875 12.36328125 C19.49911107 18.0115808 20.09046122 21.61862033 24 26 C28.84888034 30.09222162 34.40279926 29.47567884 40.42578125 29.51171875 C42.07987251 29.53864555 42.07987251 29.53864555 43.76737976 29.56611633 C47.28238119 29.62021004 50.79724687 29.6541129 54.3125 29.6875 C56.69858659 29.7206738 59.08465527 29.75516352 61.47070312 29.79101562 C67.31368036 29.87593607 73.15667519 29.94429008 79 30 C79.11537109 30.62068359 79.23074219 31.24136719 79.34960938 31.88085938 C79.51267578 32.69361328 79.67574219 33.50636719 79.84375 34.34375 C80.00037109 35.15005859 80.15699219 35.95636719 80.31835938 36.78710938 C81.31763011 40.03116021 83.15460207 41.29276124 86 43 C88.40541929 44.20270964 90.10366591 44.20316663 92.7890625 44.31640625 C93.73007813 44.35830078 94.67109375 44.40019531 95.640625 44.44335938 C97.11789063 44.50233398 97.11789063 44.50233398 98.625 44.5625 C100.11386719 44.62727539 100.11386719 44.62727539 101.6328125 44.69335938 C104.08837033 44.79960947 106.54416651 44.90032455 109 45 C109 49.95 109 54.9 109 60 C106.59654297 60.03867187 106.59654297 60.03867187 104.14453125 60.078125 C102.03382709 60.13441044 99.92315106 60.19175768 97.8125 60.25 C96.75740234 60.26417969 95.70230469 60.27835937 94.61523438 60.29296875 C90.27890909 60.42976135 86.85901502 60.60767695 82.88671875 62.421875 C80.85635164 65.19628969 80.48953708 66.82877802 79.88208008 70.16113281 C79.71347977 71.06599426 79.54487946 71.97085571 79.37117004 72.90313721 C79.24868393 73.59510193 79.12619781 74.28706665 79 75 C78.03946465 75.00546844 78.03946465 75.00546844 77.05952454 75.01104736 C70.39193487 75.05287198 63.72503358 75.12221772 57.05786133 75.20751953 C54.56997565 75.23573752 52.08200018 75.25694787 49.59399414 75.27099609 C46.01662193 75.29241321 42.44033027 75.3390602 38.86328125 75.390625 C37.75165115 75.39185364 36.64002106 75.39308228 35.4947052 75.39434814 C29.35278855 75.4800511 29.35278855 75.4800511 23.82104492 77.91308594 C21.02748419 81.11450129 20.84410513 83.05326659 20.68359375 87.2265625 C20.64169922 88.2578125 20.59980469 89.2890625 20.55664062 90.3515625 C20.51732422 91.43179688 20.47800781 92.51203125 20.4375 93.625 C20.39431641 94.71296875 20.35113281 95.8009375 20.30664062 96.921875 C20.20035573 99.6144257 20.09965496 102.30719576 20 105 C13.4 105 6.8 105 0 105 C0 70.35 0 35.7 0 0 Z " fill="#B0E29D" transform="translate(15,204)"/>
<path d="M0 0 C6.27 0 12.54 0 19 0 C19 34.32 19 68.64 19 104 C12.73 104 6.46 104 0 104 C-0.02578125 102.62585938 -0.0515625 101.25171875 -0.078125 99.8359375 C-0.13442428 98.01559404 -0.19177121 96.19528276 -0.25 94.375 C-0.26417969 93.47136719 -0.27835937 92.56773437 -0.29296875 91.63671875 C-0.49969492 85.97242165 -1.15394464 82.44963339 -5 78 C-8.2775106 75.81499293 -9.30510051 75.73648764 -13.11401367 75.68115234 C-14.15486618 75.66128265 -15.19571869 75.64141296 -16.26811218 75.62094116 C-17.39006485 75.60938995 -18.51201752 75.59783875 -19.66796875 75.5859375 C-21.39289299 75.55688828 -21.39289299 75.55688828 -23.15266418 75.5272522 C-26.83086699 75.46740239 -30.509101 75.42104894 -34.1875 75.375 C-36.67905022 75.33682524 -39.17058717 75.29777381 -41.66210938 75.2578125 C-47.77462194 75.16169638 -53.88721421 75.07666462 -60 75 C-60.12248611 74.30803528 -60.24497223 73.61607056 -60.37117004 72.90313721 C-60.53977036 71.99827576 -60.70837067 71.09341431 -60.88208008 70.16113281 C-61.04581619 69.26291809 -61.20955231 68.36470337 -61.37825012 67.43927002 C-61.88374507 64.82260532 -61.88374507 64.82260532 -63.88671875 62.421875 C-68.74654152 60.20233235 -73.52855807 60.32101205 -78.8125 60.25 C-79.88693359 60.22035156 -80.96136719 60.19070313 -82.06835938 60.16015625 C-84.71183877 60.08966347 -87.35592311 60.04254347 -90 60 C-90 55.05 -90 50.1 -90 45 C-88.55367188 44.97421875 -87.10734375 44.9484375 -85.6171875 44.921875 C-83.70309548 44.86557818 -81.78903415 44.8082312 -79.875 44.75 C-78.92367188 44.73582031 -77.97234375 44.72164062 -76.9921875 44.70703125 C-71.06022631 44.50106038 -67.51590802 43.953223 -63 40 C-60.70366176 36.55549263 -60.45983515 34.06187717 -60 30 C-59.08037979 29.99453156 -59.08037979 29.99453156 -58.1421814 29.98895264 C-51.75016634 29.94708047 -45.35886616 29.87770155 -38.96728516 29.79248047 C-36.58324337 29.76428805 -34.19910842 29.74306497 -31.81494141 29.72900391 C-28.38395548 29.70755131 -24.95408776 29.66088636 -21.5234375 29.609375 C-19.92935562 29.60753204 -19.92935562 29.60753204 -18.30307007 29.60565186 C-12.23081165 29.48598519 -8.62803882 29.04664351 -4 25 C-0.09881155 20.51654462 -0.4526123 15.35204019 -0.3125 9.6875 C-0.27833984 8.75615234 -0.24417969 7.82480469 -0.20898438 6.86523438 C-0.12685112 4.57723659 -0.06174003 2.28863887 0 0 Z " fill="#B1E29D" transform="translate(478,204)"/>
<path d="M0 0 C1.13072182 0.00539291 1.13072182 0.00539291 2.2842865 0.01089478 C3.46956436 0.01067574 3.46956436 0.01067574 4.67878723 0.01045227 C7.30309245 0.0111516 9.92732759 0.01894489 12.55162048 0.02676392 C14.36623089 0.02862803 16.18084179 0.03005196 17.99545288 0.03105164 C22.78111653 0.03487737 27.56675003 0.04470813 32.35240173 0.05575562 C37.23195488 0.06596854 42.11151287 0.070549 46.99107361 0.07559204 C56.57246922 0.08633035 66.15383451 0.1039276 75.73521423 0.12442017 C75.73521423 5.40442017 75.73521423 10.68442017 75.73521423 16.12442017 C72.02427673 16.66152954 72.02427673 16.66152954 68.31333923 17.19863892 C64.62660426 18.52251193 63.62450782 19.65499013 61.73521423 23.12442017 C61.11627319 27.05874216 61.03866778 30.95949062 60.98521423 34.93692017 C60.94074158 36.54857056 60.94074158 36.54857056 60.89537048 38.19277954 C60.82486502 40.83673444 60.77207281 43.47981747 60.73521423 46.12442017 C60.12395691 46.17703003 59.51269958 46.22963989 58.88291931 46.28384399 C58.07749695 46.36142944 57.27207458 46.43901489 56.44224548 46.51895142 C55.64536316 46.59218628 54.84848083 46.66542114 54.02745056 46.74087524 C49.23798167 47.54226577 46.49137265 50.24564146 43.42271423 53.81192017 C41.85415467 56.89094449 41.43593711 58.49972272 41.12974548 61.83145142 C41.05216003 62.63687378 40.97457458 63.44229614 40.89463806 64.27212524 C40.8420282 64.88338257 40.78941833 65.49463989 40.73521423 66.12442017 C40.06466003 66.13376587 39.39410583 66.14311157 38.70323181 66.15274048 C35.65065856 66.20658613 32.59959441 66.29020512 29.54771423 66.37442017 C28.49261658 66.38859985 27.43751892 66.40277954 26.35044861 66.41738892 C20.21479222 66.59681578 20.21479222 66.59681578 14.61021423 68.87442017 C12.65561913 71.21993429 11.74036891 72.94807713 10.92271423 75.87442017 C10.53083923 77.27692017 10.13896423 78.67942017 9.73521423 80.12442017 C4.45521423 80.12442017 -0.82478577 80.12442017 -6.26478577 80.12442017 C-6.28733707 69.84137087 -6.30570102 59.55833789 -6.31659794 49.27526951 C-6.3218267 44.50093737 -6.32892421 39.72662296 -6.34022522 34.95230103 C-6.35105436 30.34875755 -6.35706266 25.74523117 -6.35966301 21.14167595 C-6.36151721 19.38132393 -6.36513773 17.6209729 -6.37051582 15.86062813 C-6.37772662 13.40369739 -6.37877669 10.94683822 -6.37831116 8.48989868 C-6.38190643 7.75478561 -6.38550171 7.01967255 -6.38920593 6.26228333 C-6.37671697 0.21076381 -6.0372811 0.01215255 0 0 Z " fill="#B0E19C" transform="translate(83.26478576660156,77.87557983398438)"/>
<path d="M0 0 C5.61 0 11.22 0 17 0 C17.3403125 2.10375 17.3403125 2.10375 17.6875 4.25 C18.46329374 7.79967496 18.83824467 8.83824467 21.5 11.5 C24.91345691 13.54807415 26.8318621 14.14953635 30.7890625 14.31640625 C31.73007813 14.35830078 32.67109375 14.40019531 33.640625 14.44335938 C34.62546875 14.48267578 35.6103125 14.52199219 36.625 14.5625 C37.61757812 14.60568359 38.61015625 14.64886719 39.6328125 14.69335938 C42.08839838 14.79961069 44.54408703 14.90164964 47 15 C47.11682129 15.68126953 47.23364258 16.36253906 47.35400391 17.06445312 C47.51819824 17.96099609 47.68239258 18.85753906 47.8515625 19.78125 C48.00963379 20.66876953 48.16770508 21.55628906 48.33056641 22.47070312 C49.51836431 26.95851722 52.05849301 29.59408115 55.8125 32.3125 C59.14937712 33.36123281 62.52737578 33.60150214 66 34 C67.6289795 35.6289795 67.14734786 37.48834197 67.17578125 39.734375 C67.21155273 41.18457031 67.21155273 41.18457031 67.24804688 42.6640625 C67.29068498 44.70552309 67.32211361 46.74725156 67.34179688 48.7890625 C67.46795325 53.21333716 67.56070116 56.21553778 69.75 60.125 C72.17202289 62.1433524 73.59924351 62.78038083 76.6875 63.25 C80.94716243 63.94716243 80.94716243 63.94716243 82 65 C82.07313567 67.53049402 82.09247527 70.03304837 82.0625 72.5625 C82.05798828 73.27341797 82.05347656 73.98433594 82.04882812 74.71679688 C82.03700864 76.47790013 82.01907263 78.23896036 82 80 C71.45618688 80.02312343 60.91237975 80.04091509 50.36854649 80.05181217 C45.47314626 80.057041 40.57776332 80.06413864 35.68237305 80.07543945 C30.96212022 80.08626834 26.24188408 80.09227684 21.5216198 80.09487724 C19.71661046 80.09673149 17.91160208 80.10035209 16.10659981 80.10573006 C13.58740356 80.11294052 11.0682771 80.11399094 8.54907227 80.11352539 C7.79525772 80.11712067 7.04144318 80.12071594 6.26478577 80.12442017 C1.11405216 80.11405216 1.11405216 80.11405216 0 79 C-0.09500548 76.53555943 -0.12557985 74.09925374 -0.11352539 71.63452148 C-0.11367142 70.86384338 -0.11381744 70.09316528 -0.1139679 69.2991333 C-0.1132686 66.73975861 -0.10547545 64.1804558 -0.09765625 61.62109375 C-0.09579213 59.85132385 -0.0943682 58.08155344 -0.09336853 56.31178284 C-0.08954288 51.64448634 -0.0797122 46.97722077 -0.06866455 42.30993652 C-0.05845144 37.55102965 -0.05387113 32.79211779 -0.04882812 28.03320312 C-0.03808997 18.68878629 -0.0204928 9.34440055 0 0 Z " fill="#B0E29D" transform="translate(77,354)"/>
<path d="M0 0 C21.45 0 42.9 0 65 0 C65 3.96 65 7.92 65 12 C63.22955322 12.01401855 63.22955322 12.01401855 61.42333984 12.02832031 C57.02843002 12.06830648 52.63421387 12.13408915 48.23974609 12.20751953 C46.34074846 12.2356792 44.4416347 12.25691858 42.54248047 12.27099609 C39.80636362 12.29249518 37.07163548 12.33918008 34.3359375 12.390625 C33.49195404 12.39185364 32.64797058 12.39308228 31.77841187 12.39434814 C26.40228645 12.52679802 23.24932568 13.40623791 19 17 C16.71834526 20.42248212 16.73270131 21.72718062 16.68115234 25.7565918 C16.66128265 26.93758957 16.64141296 28.11858734 16.62094116 29.33537292 C16.60938995 30.61044205 16.59783875 31.88551117 16.5859375 33.19921875 C16.56657135 34.50454056 16.5472052 35.80986237 16.5272522 37.15473938 C16.47592366 40.62180522 16.43630207 44.08890989 16.39910889 47.55615234 C16.35907359 51.09547536 16.30797913 54.63463677 16.2578125 58.17382812 C16.16104487 65.11576733 16.07664284 72.05781025 16 79 C14.96205292 79.18372917 14.96205292 79.18372917 13.90313721 79.37117004 C12.99827576 79.53977036 12.09341431 79.70837067 11.16113281 79.88208008 C10.26291809 80.04581619 9.36470337 80.20955231 8.43927002 80.37825012 C5.82260532 80.88374507 5.82260532 80.88374507 3.421875 82.88671875 C1.20233235 87.74654152 1.32101205 92.52855807 1.25 97.8125 C1.20552734 99.42415039 1.20552734 99.42415039 1.16015625 101.06835938 C1.08966347 103.71183877 1.04254347 106.35592311 1 109 C-4.28 109 -9.56 109 -15 109 C-15.02578125 107.39769531 -15.0515625 105.79539062 -15.078125 104.14453125 C-15.13441044 102.03382709 -15.19175768 99.92315106 -15.25 97.8125 C-15.26417969 96.75740234 -15.27835937 95.70230469 -15.29296875 94.61523438 C-15.42976135 90.27890909 -15.60767695 86.85901502 -17.421875 82.88671875 C-20.84949675 80.10065068 -20.84949675 80.10065068 -30 79 C-30 64.15 -30 49.3 -30 34 C-22.74 33.67 -15.48 33.34 -8 33 C-3.02378257 30.49943407 -3.02378257 30.49943407 -1 27 C-0.67 18.09 -0.34 9.18 0 0 Z " fill="#ADDE9A" transform="translate(323,15)"/>
<path d="M0 0 C21.45 0 42.9 0 65 0 C65.33 8.91 65.66 17.82 66 27 C69.27828869 31.81375192 69.27828869 31.81375192 72 33 C73.73868744 33.15266612 75.48247501 33.24932596 77.2265625 33.31640625 C78.6199585 33.37356812 78.6199585 33.37356812 80.04150391 33.43188477 C81.22405762 33.47498779 82.40661133 33.51809082 83.625 33.5625 C87.37875 33.706875 91.1325 33.85125 95 34 C95 48.85 95 63.7 95 79 C90.05 79.99 90.05 79.99 85 81 C82.18274368 82.73926318 82.18274368 82.73926318 81 86 C80.40817146 89.93926486 80.3034731 93.83361532 80.25 97.8125 C80.20552734 99.42415039 80.20552734 99.42415039 80.16015625 101.06835938 C80.08966347 103.71183877 80.04254347 106.35592311 80 109 C74.72 109 69.44 109 64 109 C63.97421875 107.39769531 63.9484375 105.79539062 63.921875 104.14453125 C63.86558956 102.03382709 63.80824232 99.92315106 63.75 97.8125 C63.73582031 96.75740234 63.72164062 95.70230469 63.70703125 94.61523438 C63.57023865 90.27890909 63.39232305 86.85901502 61.578125 82.88671875 C58.80371031 80.85635164 57.17122198 80.48953708 53.83886719 79.88208008 C52.93400574 79.71347977 52.02914429 79.54487946 51.09686279 79.37117004 C50.40489807 79.24868393 49.71293335 79.12619781 49 79 C48.99453156 77.90791985 48.99453156 77.90791985 48.98895264 76.79377747 C48.95103963 69.92264869 48.89414943 63.05190892 48.81609726 56.18112659 C48.77663716 52.64897147 48.74444196 49.11706508 48.72900391 45.5847168 C48.71092159 41.52091652 48.66096481 37.45804529 48.609375 33.39453125 C48.60814636 32.1297847 48.60691772 30.86503815 48.60565186 29.56196594 C48.58593323 28.38111923 48.5662146 27.20027252 48.54589844 25.98364258 C48.53701599 24.94661697 48.52813354 23.90959137 48.51898193 22.84114075 C47.86019453 19.23464193 46.55411324 17.59461815 44 15 C41.25219178 13.21711117 39.12211216 12.74282491 35.87402344 12.68115234 C34.67323151 12.65134781 34.67323151 12.65134781 33.44818115 12.62094116 C32.59387512 12.60938995 31.73956909 12.59783875 30.859375 12.5859375 C29.97719299 12.56657135 29.09501099 12.5472052 28.18609619 12.5272522 C25.37416184 12.46757152 22.5621863 12.42111717 19.75 12.375 C17.84112819 12.33680962 15.93227341 12.29775727 14.0234375 12.2578125 C9.34909704 12.16187942 4.67467591 12.07780584 0 12 C0 8.04 0 4.08 0 0 Z " fill="#ADDE9A" transform="translate(124,15)"/>
<path d="M0 0 C5.28 0 10.56 0 16 0 C16.02578125 1.53011719 16.0515625 3.06023437 16.078125 4.63671875 C16.13441213 6.65367412 16.19175932 8.6706001 16.25 10.6875 C16.26417969 11.69490234 16.27835937 12.70230469 16.29296875 13.74023438 C16.43931247 18.17444917 16.55876709 21.21285621 18.75390625 25.12890625 C21.17358872 27.14460695 22.60236954 27.78085619 25.6875 28.25 C29.94716243 28.94716243 29.94716243 28.94716243 31 30 C31.10234574 31.78382492 31.13570894 33.57165046 31.1418457 35.35839844 C31.14888016 36.50338806 31.15591461 37.64837769 31.16316223 38.82806396 C31.16732651 40.07589661 31.17149078 41.32372925 31.17578125 42.609375 C31.19898172 45.22657052 31.22309915 47.84375805 31.24804688 50.4609375 C31.28443992 54.60644506 31.31418782 58.75180506 31.32592773 62.89746094 C31.33796169 66.88504443 31.38158513 70.87201481 31.42578125 74.859375 C31.42387283 76.09911072 31.42196442 77.33884644 31.41999817 78.6161499 C31.43648911 79.77374817 31.45298004 80.93134644 31.4699707 82.12402344 C31.47583694 83.14026794 31.48170319 84.15651245 31.48774719 85.20355225 C32.14337296 88.78268971 33.46864276 90.4219655 36 93 C38.77638957 94.80663666 40.9337992 95.25803332 44.21777344 95.31884766 C45.03832214 95.33871735 45.85887085 95.35858704 46.70428467 95.37905884 C47.58046448 95.39061005 48.45664429 95.40216125 49.359375 95.4140625 C50.26375305 95.43342865 51.1681311 95.4527948 52.09991455 95.4727478 C54.98318099 95.53243831 57.86648758 95.57888686 60.75 95.625 C62.70704848 95.66318947 64.66408033 95.70224177 66.62109375 95.7421875 C71.41392711 95.83813125 76.20683915 95.92220127 81 96 C81 99.96 81 103.92 81 108 C59.22 108 37.44 108 15 108 C14.67 99.09 14.34 90.18 14 81 C10.68317964 75.92592028 10.68317964 75.92592028 7 75 C5.30132812 74.85222064 3.59822511 74.75252934 1.89453125 74.68359375 C1.00870361 74.64548584 0.12287598 74.60737793 -0.78979492 74.56811523 C-1.9110376 74.52501221 -3.03228027 74.48190918 -4.1875 74.4375 C-6.11630427 74.35975233 -8.04509582 74.28168859 -9.97387695 74.20336914 C-10.92253128 74.16498428 -11.87118561 74.12659943 -12.84858704 74.08705139 C-13.55855331 74.05832443 -14.26851959 74.02959747 -15 74 C-15.02527124 67.75204325 -15.04283344 61.50409959 -15.05493164 55.25610352 C-15.05997298 53.12881986 -15.06680591 51.00153969 -15.07543945 48.87426758 C-15.08751379 45.82372174 -15.09323014 42.77322155 -15.09765625 39.72265625 C-15.10281754 38.76537125 -15.10797882 37.80808624 -15.11329651 36.8217926 C-15.11337204 35.94095505 -15.11344757 35.06011749 -15.11352539 34.15258789 C-15.115746 33.37315323 -15.11796661 32.59371857 -15.12025452 31.79066467 C-15 30 -15 30 -14 29 C-11.78044005 28.5858022 -9.55640808 28.23006536 -7.32421875 27.890625 C-3.84623292 26.55788421 -2.8341274 25.27201793 -1 22 C-0.3815216 18.23253196 -0.30366188 14.4999325 -0.25 10.6875 C-0.20552734 9.14739258 -0.20552734 9.14739258 -0.16015625 7.57617188 C-0.08969192 5.05120008 -0.04255428 2.52559635 0 0 Z " fill="#AEDE9A" transform="translate(308,389)"/>
<path d="M0 0 C5.28 0 10.56 0 16 0 C16.02578125 1.53011719 16.0515625 3.06023437 16.078125 4.63671875 C16.13441213 6.65367412 16.19175932 8.6706001 16.25 10.6875 C16.26417969 11.69490234 16.27835937 12.70230469 16.29296875 13.74023438 C16.43931247 18.17444917 16.55876709 21.21285621 18.75390625 25.12890625 C21.17358872 27.14460695 22.60236954 27.78085619 25.6875 28.25 C29.94716243 28.94716243 29.94716243 28.94716243 31 30 C31.0927833 31.38160115 31.11747043 32.76788038 31.11352539 34.15258789 C31.11341209 35.47384422 31.11341209 35.47384422 31.11329651 36.8217926 C31.10813522 37.77907761 31.10297394 38.73636261 31.09765625 39.72265625 C31.0962413 40.69786728 31.09482635 41.67307831 31.09336853 42.67784119 C31.08775133 45.80609143 31.07519593 48.93427123 31.0625 52.0625 C31.05748722 54.17773334 31.05292393 56.29296781 31.04882812 58.40820312 C31.03777631 63.60549296 31.02102146 68.80274145 31 74 C30.3294458 74.0093457 29.6588916 74.01869141 28.96801758 74.02832031 C25.91544433 74.08216596 22.86438018 74.16578495 19.8125 74.25 C18.75740234 74.26417969 17.70230469 74.27835937 16.61523438 74.29296875 C10.41224284 74.45703955 10.41224284 74.45703955 4.82421875 76.921875 C-2.95013982 85.77831774 1.58154541 92.29827389 1 108 C-20.78 108 -42.56 108 -65 108 C-65 104.04 -65 100.08 -65 96 C-63.78940918 95.9906543 -62.57881836 95.98130859 -61.33154297 95.97167969 C-56.8248259 95.93170052 -52.31878578 95.8659196 -47.8125 95.79248047 C-45.86499755 95.76431679 -43.91738178 95.7430794 -41.96972656 95.72900391 C-39.16412532 95.70751054 -36.35988 95.66082802 -33.5546875 95.609375 C-32.68883026 95.60814636 -31.82297302 95.60691772 -30.93087769 95.60565186 C-25.49626214 95.47502842 -22.28993728 94.6477311 -18 91 C-15.73140222 87.59710333 -15.73740042 86.34955543 -15.69702148 82.35107422 C-15.68037949 81.19332489 -15.66373749 80.03557556 -15.64659119 78.84274292 C-15.63817703 77.59268463 -15.62976288 76.34262634 -15.62109375 75.0546875 C-15.59513498 73.09835746 -15.56917142 71.14202746 -15.5429163 69.18570137 C-15.50850869 66.4457504 -15.48293332 63.70574411 -15.45739746 60.96569824 C-15.41168019 56.16201903 -15.35661309 51.35845842 -15.29469299 46.55496216 C-15.26260759 43.99649086 -15.2357583 41.43794787 -15.21446228 38.87936401 C-15.20097244 37.72791901 -15.1874826 36.576474 -15.17358398 35.39013672 C-15.15931618 33.8614949 -15.15931618 33.8614949 -15.14476013 32.30197144 C-15 30 -15 30 -14 29 C-11.78044005 28.5858022 -9.55640808 28.23006536 -7.32421875 27.890625 C-3.84623292 26.55788421 -2.8341274 25.27201793 -1 22 C-0.3815216 18.23253196 -0.30366188 14.4999325 -0.25 10.6875 C-0.22035156 9.66076172 -0.19070312 8.63402344 -0.16015625 7.57617188 C-0.08969192 5.05120008 -0.04255428 2.52559635 0 0 Z " fill="#AEDE9A" transform="translate(188,389)"/>
<path d="M0 0 C14.52 0 29.04 0 44 0 C44.99 4.455 44.99 4.455 46 9 C49.7803733 12.7803733 52.55283056 14.09560129 57.7890625 14.31640625 C58.73007813 14.35830078 59.67109375 14.40019531 60.640625 14.44335938 C61.62546875 14.48267578 62.6103125 14.52199219 63.625 14.5625 C64.61757812 14.60568359 65.61015625 14.64886719 66.6328125 14.69335938 C69.08837033 14.79960947 71.54416651 14.90032455 74 15 C74 19.95 74 24.9 74 30 C71.59654297 30.03867187 71.59654297 30.03867187 69.14453125 30.078125 C67.03382709 30.13441044 64.92315106 30.19175768 62.8125 30.25 C61.75740234 30.26417969 60.70230469 30.27835937 59.61523438 30.29296875 C55.27890909 30.42976135 51.85901502 30.60767695 47.88671875 32.421875 C45.85635164 35.19628969 45.48953708 36.82877802 44.88208008 40.16113281 C44.71347977 41.06599426 44.54487946 41.97085571 44.37117004 42.90313721 C44.24868393 43.59510193 44.12619781 44.28706665 44 45 C43.27194656 45.00364563 42.54389313 45.00729126 41.79377747 45.01104736 C34.92264869 45.04896037 28.05190892 45.10585057 21.18112659 45.18390274 C17.64897147 45.22336284 14.11706508 45.25555804 10.5847168 45.27099609 C6.52091652 45.28907841 2.45804529 45.33903519 -1.60546875 45.390625 C-2.8702153 45.39185364 -4.13496185 45.39308228 -5.43803406 45.39434814 C-6.61888077 45.41406677 -7.79972748 45.4337854 -9.01635742 45.45410156 C-10.57189583 45.46742523 -10.57189583 45.46742523 -12.15885925 45.48101807 C-15.7180902 46.1311712 -17.40925322 47.52483947 -20 50 C-21.1415622 52.2831244 -21.15334372 53.63479305 -21.20532227 56.17431641 C-21.22526749 57.03505768 -21.24521271 57.89579895 -21.26576233 58.78262329 C-21.29083107 60.1779982 -21.29083107 60.1779982 -21.31640625 61.6015625 C-21.33718735 62.55316254 -21.35796844 63.50476257 -21.37937927 64.48519897 C-21.44488133 67.53172432 -21.5037628 70.57833743 -21.5625 73.625 C-21.60568459 75.68750916 -21.64929886 77.75000937 -21.69335938 79.8125 C-21.8005634 84.87490954 -21.90182902 89.93740755 -22 95 C-26.29 95 -30.58 95 -35 95 C-35 73.22 -35 51.44 -35 29 C-26.09 28.67 -17.18 28.34 -8 28 C-2.51436628 24.35393644 -2.51436628 24.35393644 -1 18 C-0.67 12.06 -0.34 6.12 0 0 Z " fill="#AFE19C" transform="translate(50,294)"/>
<path d="M0 0 C0.77943466 0.00222061 1.55886932 0.00444122 2.36192322 0.00672913 C3.24276077 0.00680466 4.12359833 0.00688019 5.03112793 0.00695801 C5.98841293 0.01211929 6.94569794 0.01728058 7.93199158 0.02259827 C9.39480812 0.02472069 9.39480812 0.02472069 10.88717651 0.02688599 C14.01542675 0.03250319 17.14360656 0.04505859 20.27183533 0.05775452 C22.38706867 0.0627673 24.50230313 0.06733059 26.61753845 0.07142639 C31.81482829 0.0824782 37.01207678 0.09923305 42.20933533 0.12025452 C42.21868103 0.79080872 42.22802673 1.46136292 42.23765564 2.15223694 C42.29150129 5.20481019 42.37512028 8.25587434 42.45933533 11.30775452 C42.47351501 12.36285217 42.4876947 13.41794983 42.50230408 14.50502014 C42.67238894 20.64945838 42.67238894 20.64945838 45.00621033 26.23353577 C54.23114113 34.13360949 61.97179856 30.55075305 76.20933533 31.12025452 C76.20933533 52.24025452 76.20933533 73.36025452 76.20933533 95.12025452 C72.24933533 95.12025452 68.28933533 95.12025452 64.20933533 95.12025452 C64.19998962 93.93995667 64.19064392 92.75965881 64.18101501 91.54359436 C64.14102885 87.14868454 64.07524618 82.75446839 64.0018158 78.36000061 C63.97365612 76.46100297 63.95241674 74.56188922 63.93833923 72.66273499 C63.91684015 69.92661813 63.87015525 67.19189 63.81871033 64.45619202 C63.81748169 63.61220856 63.81625305 62.7682251 63.81498718 61.89866638 C63.68253731 56.52254096 62.80309741 53.3695802 59.20933533 49.12025452 C55.78685321 46.83859977 54.48215471 46.85295583 50.45274353 46.80140686 C48.68124687 46.77160233 48.68124687 46.77160233 46.8739624 46.74119568 C45.59889328 46.72964447 44.32382416 46.71809326 43.01011658 46.70619202 C41.70479477 46.68682587 40.39947296 46.66745972 39.05459595 46.64750671 C35.58753011 46.59617818 32.12042544 46.55655659 28.65318298 46.5193634 C25.11385996 46.47932811 21.57469855 46.42823364 18.0355072 46.37806702 C11.09356799 46.28129939 4.15152508 46.19689735 -2.79066467 46.12025452 C-2.91315079 45.42828979 -3.0356369 44.73632507 -3.16183472 44.02339172 C-3.33043503 43.11853027 -3.49903534 42.21366882 -3.67274475 41.28138733 C-3.83648087 40.38317261 -4.00021698 39.48495789 -4.16891479 38.55952454 C-4.67440974 35.94285984 -4.67440974 35.94285984 -6.67738342 33.54212952 C-11.53720619 31.32258687 -16.31922275 31.44126656 -21.60316467 31.37025452 C-22.67759827 31.34060608 -23.75203186 31.31095764 -24.85902405 31.28041077 C-27.50250345 31.20991798 -30.14658778 31.16279799 -32.79066467 31.12025452 C-32.79066467 26.17025452 -32.79066467 21.22025452 -32.79066467 16.12025452 C-31.34433655 16.09447327 -29.89800842 16.06869202 -28.40785217 16.04212952 C-26.49376015 15.98583269 -24.57969882 15.92848571 -22.66566467 15.87025452 C-21.71433655 15.85607483 -20.76300842 15.84189514 -19.78285217 15.82728577 C-13.85089099 15.62131489 -10.3065727 15.07347751 -5.79066467 11.12025452 C-3.49027343 7.66966766 -3.31683717 5.1792995 -2.79066467 1.12025452 C-1.79066467 0.12025452 -1.79066467 0.12025452 0 0 Z " fill="#AFDF9B" transform="translate(420.79066467285156,292.87974548339844)"/>
<path d="M0 0 C3.96 0 7.92 0 12 0 C12 21.45 12 42.9 12 65 C-1.365 65.495 -1.365 65.495 -15 66 C-19.81375192 69.27828869 -19.81375192 69.27828869 -21 72 C-21.15266612 73.73868744 -21.24932596 75.48247501 -21.31640625 77.2265625 C-21.35451416 78.15549316 -21.39262207 79.08442383 -21.43188477 80.04150391 C-21.47498779 81.22405762 -21.51809082 82.40661133 -21.5625 83.625 C-21.706875 87.37875 -21.85125 91.1325 -22 95 C-36.85 95 -51.7 95 -67 95 C-67.66 91.7 -68.32 88.4 -69 85 C-70.73926318 82.18274368 -70.73926318 82.18274368 -74 81 C-77.93926486 80.40817146 -81.83361532 80.3034731 -85.8125 80.25 C-86.88693359 80.22035156 -87.96136719 80.19070312 -89.06835938 80.16015625 C-91.71183877 80.08966347 -94.35592311 80.04254347 -97 80 C-97 75.05 -97 70.1 -97 65 C-95.55367188 64.97421875 -94.10734375 64.9484375 -92.6171875 64.921875 C-90.70309548 64.86557818 -88.78903415 64.8082312 -86.875 64.75 C-85.92367188 64.73582031 -84.97234375 64.72164063 -83.9921875 64.70703125 C-78.06022631 64.50106038 -74.51590802 63.953223 -70 60 C-67.70366176 56.55549263 -67.45983515 54.06187717 -67 50 C-66.29922333 49.99635437 -65.59844666 49.99270874 -64.87643433 49.98895264 C-58.25576783 49.95100571 -51.63556419 49.8940778 -45.01524162 49.81609726 C-41.61203017 49.77667324 -38.20907546 49.74446046 -34.80566406 49.72900391 C-30.88833753 49.71089175 -26.97172241 49.66091782 -23.0546875 49.609375 C-21.83884979 49.60814636 -20.62301208 49.60691772 -19.37033081 49.60565186 C-10.85713915 49.49814174 -10.85713915 49.49814174 -4 45 C-0.30732832 40.64696181 -0.52929066 36.21138122 -0.48828125 30.76171875 C-0.46135445 29.44056816 -0.46135445 29.44056816 -0.43388367 28.09272766 C-0.3798809 25.2910332 -0.34591734 22.48950813 -0.3125 19.6875 C-0.27931805 17.78317961 -0.24482757 15.87888154 -0.20898438 13.97460938 C-0.12416022 9.31652866 -0.05730126 4.6584973 0 0 Z " fill="#AFE09C" transform="translate(485,124)"/>
<path d="M0 0 C3.96 0 7.92 0 12 0 C12.0093457 1.18029785 12.01869141 2.3605957 12.02832031 3.57666016 C12.06830648 7.97156998 12.13408915 12.36578613 12.20751953 16.76025391 C12.2356792 18.65925154 12.25691858 20.5583653 12.27099609 22.45751953 C12.29249518 25.19363638 12.33918008 27.92836452 12.390625 30.6640625 C12.39185364 31.50804596 12.39308228 32.35202942 12.39434814 33.22158813 C12.52655687 38.58792549 13.34070225 41.81042617 17 46 C20.69904763 48.65419586 23.27227223 49.38217597 27.80004883 49.43237305 C28.94085403 49.45216721 30.08165924 49.47196136 31.2570343 49.49235535 C32.47803329 49.49874527 33.69903229 49.50513519 34.95703125 49.51171875 C36.84418098 49.53864555 36.84418098 49.53864555 38.76945496 49.56611633 C42.10182254 49.61105762 45.43382365 49.64338289 48.76635742 49.66955566 C52.1718471 49.69942125 55.57710569 49.74593079 58.98242188 49.79101562 C65.65484107 49.87598338 72.32727562 49.94431869 79 50 C79.17305664 50.93102539 79.17305664 50.93102539 79.34960938 51.88085938 C79.51267578 52.69361328 79.67574219 53.50636719 79.84375 54.34375 C80.00037109 55.15005859 80.15699219 55.95636719 80.31835938 56.78710938 C81.31763011 60.03116021 83.15460207 61.29276124 86 63 C88.40541929 64.20270964 90.10366591 64.20316663 92.7890625 64.31640625 C93.73007813 64.35830078 94.67109375 64.40019531 95.640625 64.44335938 C96.62546875 64.48267578 97.6103125 64.52199219 98.625 64.5625 C100.11386719 64.62727539 100.11386719 64.62727539 101.6328125 64.69335938 C104.08837033 64.79960947 106.54416651 64.90032455 109 65 C109 69.95 109 74.9 109 80 C107.39769531 80.02578125 105.79539062 80.0515625 104.14453125 80.078125 C102.03382709 80.13441044 99.92315106 80.19175768 97.8125 80.25 C96.75740234 80.26417969 95.70230469 80.27835937 94.61523438 80.29296875 C90.27890909 80.42976135 86.85901502 80.60767695 82.88671875 82.421875 C80.10065068 85.84949675 80.10065068 85.84949675 79 95 C64.15 95 49.3 95 34 95 C33.75 83.8125 33.75 83.8125 33.70214844 80.31176758 C33.51160356 74.26979963 33.51160356 74.26979963 31.078125 68.82421875 C22.22168226 61.04986018 15.70172611 65.58154541 0 65 C0 43.55 0 22.1 0 0 Z " fill="#AFE09C" transform="translate(15,124)"/>
<path d="M0 0 C5.94 0 11.88 0 18 0 C18 0.33 18 0.66 18 1 C14.37 1 10.74 1 7 1 C7.08440803 11.08371153 7.17929334 21.16726495 7.28752708 31.25075054 C7.33745666 35.93300607 7.38378704 40.61523941 7.421875 45.29760742 C7.45876992 49.81699318 7.50514139 54.33619175 7.55806351 58.85541725 C7.57658508 60.57893398 7.5917013 62.30249081 7.60334396 64.02606773 C7.62024474 66.44164543 7.64928875 68.8567965 7.68115234 71.2722168 C7.68331253 71.98359802 7.68547272 72.69497925 7.68769836 73.42791748 C7.75371255 77.34955311 7.95058654 80.60377038 10 84 C13.98846802 86.40679251 18.19247972 86.30507571 22.7277832 86.31884766 C23.48929184 86.32889328 24.25080048 86.3389389 25.03538513 86.34928894 C27.54050983 86.38006237 30.04552794 86.39713966 32.55078125 86.4140625 C34.29242364 86.43277886 36.034057 86.45235263 37.77568054 86.4727478 C42.35078609 86.52402558 46.92592101 86.56367458 51.50115967 86.60089111 C56.17337284 86.64095807 60.84546422 86.69203814 65.51757812 86.7421875 C74.67829981 86.83889522 83.83909034 86.92331649 93 87 C93 83.37 93 79.74 93 76 C93.33 76 93.66 76 94 76 C94 81.94 94 87.88 94 94 C83.02101402 94.09041927 72.0422759 94.16378424 61.06300163 94.20724869 C55.96471177 94.22811092 50.86669017 94.25640383 45.76855469 94.30175781 C40.84725437 94.34526396 35.92621185 94.36914737 31.00473404 94.37950897 C29.12845934 94.38689176 27.25219854 94.40130873 25.37603378 94.42292023 C22.74500951 94.45201777 20.11504637 94.45595338 17.48388672 94.45410156 C16.7106456 94.46848267 15.93740448 94.48286377 15.14073181 94.49768066 C9.94007091 94.45815256 6.98682858 93.31550911 3 90 C0.30236645 85.83219542 -0.38634275 82.53245818 -0.4765625 77.61328125 C-0.5075 76.42798828 -0.5384375 75.24269531 -0.5703125 74.02148438 C-0.58835937 72.79751953 -0.60640625 71.57355469 -0.625 70.3125 C-0.67594392 67.87101277 -0.73046027 65.42959667 -0.7890625 62.98828125 C-0.81540771 61.37240112 -0.81540771 61.37240112 -0.84228516 59.72387695 C-0.88666405 56.90523906 -0.88666405 56.90523906 -2 54 C-3.98 53.34 -5.96 52.68 -8 52 C-8 45.73 -8 39.46 -8 33 C-6.02 32.34 -4.04 31.68 -2 31 C-0.99749167 29.25007442 -0.99749167 29.25007442 -1 27 C-0.93224365 26.03223633 -0.8644873 25.06447266 -0.79467773 24.06738281 C-0.75802002 22.95717773 -0.7213623 21.84697266 -0.68359375 20.703125 C-0.64169922 19.49785156 -0.59980469 18.29257812 -0.55664062 17.05078125 C-0.51732422 15.79652344 -0.47800781 14.54226563 -0.4375 13.25 C-0.37272461 11.34541016 -0.37272461 11.34541016 -0.30664062 9.40234375 C-0.20060345 6.2683562 -0.09980152 3.13419232 0 0 Z " fill="#93D2A1" transform="translate(15,403)"/>
<path d="M0 0 C1.13459656 -0.00788544 1.13459656 -0.00788544 2.29211426 -0.01593018 C4.79391086 -0.02914054 7.29507186 -0.02038873 9.796875 -0.01025391 C11.53418093 -0.01227435 13.27148604 -0.01518554 15.00878906 -0.01895142 C18.65047274 -0.02337616 22.29193572 -0.01693894 25.93359375 -0.00292969 C30.60460984 0.01416237 35.27510884 0.00432198 39.94610596 -0.01364708 C43.53373113 -0.0244809 47.12123345 -0.02104044 50.7088623 -0.0132637 C52.43127503 -0.01126058 54.15369887 -0.01372491 55.87609863 -0.02070236 C58.28228355 -0.02831036 60.6876278 -0.01672253 63.09375 0 C64.16453796 -0.00910904 64.16453796 -0.00910904 65.25695801 -0.0184021 C68.08970359 0.01812253 70.08240228 0.08130716 72.48144531 1.66635132 C73.98813038 4.10129284 74.01068867 6.5431542 74.140625 9.35302734 C73.20027748 12.57619219 71.31350673 13.58184067 68.546875 15.38818359 C65.16992188 15.89611816 65.16992188 15.89611816 61.265625 15.90576172 C60.19393066 15.91627563 60.19393066 15.91627563 59.10058594 15.92700195 C56.74894857 15.94454583 54.39852368 15.93297319 52.046875 15.91943359 C50.4068987 15.92212957 48.76692396 15.92601288 47.12695312 15.93103027 C43.69385524 15.93692039 40.26117432 15.9283784 36.828125 15.90966797 C32.43297129 15.88687828 28.03879464 15.90000403 23.64367676 15.92395782 C20.25838899 15.9384292 16.87333192 15.93380376 13.48803711 15.92344666 C11.86775598 15.92078305 10.24745373 15.92403626 8.62719727 15.93336487 C6.36027753 15.94355311 4.09492811 15.92800031 1.828125 15.90576172 C0.53970703 15.90257935 -0.74871094 15.89939697 -2.07617188 15.89611816 C-6.00832013 15.30467554 -7.6760398 14.18236506 -10.453125 11.38818359 C-11.31229955 8.44324977 -10.8516871 6.5268601 -10.453125 3.38818359 C-7.99942994 -0.57721309 -4.20417593 -0.03576432 0 0 Z " fill="#040505" transform="translate(224.453125,278.61181640625)"/>
<path d="M0 0 C1.13459656 -0.00788544 1.13459656 -0.00788544 2.29211426 -0.01593018 C4.79391086 -0.02914054 7.29507186 -0.02038873 9.796875 -0.01025391 C11.53418093 -0.01227435 13.27148604 -0.01518554 15.00878906 -0.01895142 C18.65047274 -0.02337616 22.29193572 -0.01693894 25.93359375 -0.00292969 C30.60460984 0.01416237 35.27510884 0.00432198 39.94610596 -0.01364708 C43.53373113 -0.0244809 47.12123345 -0.02104044 50.7088623 -0.0132637 C52.43127503 -0.01126058 54.15369887 -0.01372491 55.87609863 -0.02070236 C58.28228355 -0.02831036 60.6876278 -0.01672253 63.09375 0 C64.16453796 -0.00910904 64.16453796 -0.00910904 65.25695801 -0.0184021 C68.08970359 0.01812253 70.08240228 0.08130716 72.48144531 1.66635132 C73.98813038 4.10129284 74.01068867 6.5431542 74.140625 9.35302734 C73.20027748 12.57619219 71.31350673 13.58184067 68.546875 15.38818359 C65.16992188 15.89611816 65.16992188 15.89611816 61.265625 15.90576172 C60.19393066 15.91627563 60.19393066 15.91627563 59.10058594 15.92700195 C56.74894857 15.94454583 54.39852368 15.93297319 52.046875 15.91943359 C50.4068987 15.92212957 48.76692396 15.92601288 47.12695312 15.93103027 C43.69385524 15.93692039 40.26117432 15.9283784 36.828125 15.90966797 C32.43297129 15.88687828 28.03879464 15.90000403 23.64367676 15.92395782 C20.25838899 15.9384292 16.87333192 15.93380376 13.48803711 15.92344666 C11.86775598 15.92078305 10.24745373 15.92403626 8.62719727 15.93336487 C6.36027753 15.94355311 4.09492811 15.92800031 1.828125 15.90576172 C0.53970703 15.90257935 -0.74871094 15.89939697 -2.07617188 15.89611816 C-6.00832013 15.30467554 -7.6760398 14.18236506 -10.453125 11.38818359 C-11.31229955 8.44324977 -10.8516871 6.5268601 -10.453125 3.38818359 C-7.99942994 -0.57721309 -4.20417593 -0.03576432 0 0 Z " fill="#040505" transform="translate(224.453125,218.61181640625)"/>
<path d="M0 0 C2.31 0 4.62 0 7 0 C7 34.32 7 68.64 7 104 C10.96 104 14.92 104 19 104 C19 97.4 19 90.8 19 84 C19.33 84 19.66 84 20 84 C20 90.93 20 97.86 20 105 C13.4 105 6.8 105 0 105 C0 70.35 0 35.7 0 0 Z " fill="#91D09F" transform="translate(15,204)"/>
<path d="M0 0 C0.33 0 0.66 0 1 0 C1 3.96 1 7.92 1 12 C35.32 12 69.64 12 105 12 C105 8.04 105 4.08 105 0 C105.33 0 105.66 0 106 0 C106 6.27 106 12.54 106 19 C71.02 19 36.04 19 0 19 C0 12.73 0 6.46 0 0 Z " fill="#91D09F" transform="translate(203,478)"/>
<path d="M0 0 C1.3756311 -0.00574036 1.3756311 -0.00574036 2.77905273 -0.01159668 C4.71566873 -0.01431549 6.65232147 -0.00695646 8.58886719 0.00976562 C11.55226553 0.03117606 14.51323951 0.00996331 17.4765625 -0.015625 C19.35938035 -0.01298172 21.24219669 -0.00785673 23.125 0 C24.01050537 -0.00809692 24.89601074 -0.01619385 25.80834961 -0.02453613 C31.92113609 0.06858672 31.92113609 0.06858672 35.12109375 2.37695312 C37.0990087 5.33310515 37.14360996 7.04459026 36.5625 10.53125 C34.6954009 12.83400556 33.20602259 14.20948871 30.5625 15.53125 C27.76508264 15.64252579 24.99332963 15.69536675 22.1953125 15.69921875 C21.36417938 15.70254715 20.53304626 15.70587555 19.67672729 15.70930481 C17.9164892 15.71437216 16.15624148 15.71671319 14.39599609 15.71655273 C11.70524195 15.71873561 9.01490012 15.73688315 6.32421875 15.75585938 C4.61458474 15.75879407 2.90494877 15.76077836 1.1953125 15.76171875 C0.39102814 15.76890427 -0.41325623 15.77608978 -1.24191284 15.78349304 C-8.43323001 15.75415072 -8.43323001 15.75415072 -11.4375 13.53125 C-13.76499345 10.04000983 -13.94049316 8.63902749 -13.4375 4.53125 C-10.01052548 -0.6278874 -5.63380571 -0.05151465 0 0 Z " fill="#040505" transform="translate(244.4375,248.46875)"/>
<path d="M0 0 C1.63812584 3.27625168 1.07752825 6.89245359 1.02172852 10.48876953 C1.0073172 11.80593964 1.0073172 11.80593964 0.99261475 13.14971924 C0.95955522 16.06083013 0.91924941 18.97179418 0.87890625 21.8828125 C0.85461193 23.89777097 0.83076803 25.91273492 0.80735779 27.92770386 C0.74444842 33.23783596 0.67540121 38.54787142 0.60510254 43.85791016 C0.53448092 49.27371814 0.46962705 54.6895948 0.40429688 60.10546875 C0.27519622 70.73705463 0.13961533 81.36854737 0 92 C3.3 92 6.6 92 10 92 C10 92.33 10 92.66 10 93 C4.39 93 -1.22 93 -7 93 C-7.09041927 82.02101402 -7.16378424 71.0422759 -7.20724869 60.06300163 C-7.22811092 54.96471177 -7.25640383 49.86669017 -7.30175781 44.76855469 C-7.34526396 39.84725437 -7.36914737 34.92621185 -7.37950897 30.00473404 C-7.38689176 28.12845934 -7.40130873 26.25219854 -7.42292023 24.37603378 C-7.45201777 21.74500951 -7.45595338 19.11504637 -7.45410156 16.48388672 C-7.46848267 15.7106456 -7.48286377 14.93740448 -7.49768066 14.14073181 C-7.45813722 8.93805291 -6.31776469 5.98717941 -3 2 C-2.01 1.34 -1.02 0.68 0 0 Z " fill="#93D3A1" transform="translate(22,16)"/>
<path d="M0 0 C0.33 0 0.66 0 1 0 C1 3.63 1 7.26 1 11 C31.03 11 61.06 11 92 11 C89.6826649 15.63467021 88.73236648 16.23027464 84 18 C81.12452633 18.26527764 78.47637902 18.38107781 75.60791016 18.34057617 C74.78773407 18.34101425 73.96755798 18.34145233 73.12252808 18.34190369 C70.42779231 18.33982369 67.73368877 18.31653024 65.0390625 18.29296875 C63.16434062 18.28736998 61.28961433 18.28310121 59.41488647 18.28010559 C54.49273452 18.26867892 49.57085027 18.23923049 44.64880371 18.20599365 C39.62137472 18.17524578 34.59390227 18.16159018 29.56640625 18.14648438 C19.71080127 18.11435864 9.85546483 18.0616085 0 18 C0 12.06 0 6.12 0 0 Z " fill="#93D2A1" transform="translate(403,479)"/>
<path d="M0 0 C8.25 0 16.5 0 25 0 C25 0.33 25 0.66 25 1 C19.06 1 13.12 1 7 1 C7 22.12 7 43.24 7 65 C8.65 65 10.3 65 12 65 C12 51.8 12 38.6 12 25 C12.33 25 12.66 25 13 25 C13 38.53 13 52.06 13 66 C8.71 66 4.42 66 0 66 C0 44.22 0 22.44 0 0 Z " fill="#8BC696" transform="translate(15,323)"/>
<path d="M0 0 C0.33 0 0.66 0 1 0 C1 5.94 1 11.88 1 18 C22.12 18 43.24 18 65 18 C65 16.35 65 14.7 65 13 C65.33 13 65.66 13 66 13 C66 16.96 66 20.92 66 25 C44.22 25 22.44 25 0 25 C0 16.75 0 8.5 0 0 Z " fill="#90CE9D" transform="translate(323,472)"/>
<path d="M0 0 C0.33 0 0.66 0 1 0 C1 8.25 1 16.5 1 25 C-20.78 25 -42.56 25 -65 25 C-65 21.04 -65 17.08 -65 13 C-64.67 13 -64.34 13 -64 13 C-64 14.65 -64 16.3 -64 18 C-42.88 18 -21.76 18 0 18 C0 12.06 0 6.12 0 0 Z " fill="#90CE9D" transform="translate(188,472)"/>
<path d="M0 0 C2.31 0 4.62 0 7 0 C7 21.12 7 42.24 7 64 C12.61 64 18.22 64 24 64 C24 64.33 24 64.66 24 65 C16.08 65 8.16 65 0 65 C0 43.55 0 22.1 0 0 Z " fill="#92D1A0" transform="translate(15,124)"/>
<path d="M0 0 C5.28 0 10.56 0 16 0 C16 4.95 16 9.9 16 15 C10.72 15 5.44 15 0 15 C0 10.05 0 5.1 0 0 Z " fill="#D77F45" transform="translate(338,389)"/>
<path d="M0 0 C5.28 0 10.56 0 16 0 C16 4.95 16 9.9 16 15 C10.72 15 5.44 15 0 15 C0 10.05 0 5.1 0 0 Z " fill="#D77F45" transform="translate(278,389)"/>
<path d="M0 0 C5.28 0 10.56 0 16 0 C16 4.95 16 9.9 16 15 C10.72 15 5.44 15 0 15 C0 10.05 0 5.1 0 0 Z " fill="#D77F45" transform="translate(218,389)"/>
<path d="M0 0 C5.28 0 10.56 0 16 0 C16 4.95 16 9.9 16 15 C10.72 15 5.44 15 0 15 C0 10.05 0 5.1 0 0 Z " fill="#D77F45" transform="translate(158,389)"/>
<path d="M0 0 C5.28 0 10.56 0 16 0 C16 4.95 16 9.9 16 15 C10.72 15 5.44 15 0 15 C0 10.05 0 5.1 0 0 Z " fill="#D77E44" transform="translate(388,339)"/>
<path d="M0 0 C5.28 0 10.56 0 16 0 C16 4.95 16 9.9 16 15 C10.72 15 5.44 15 0 15 C0 10.05 0 5.1 0 0 Z " fill="#D77E44" transform="translate(108,339)"/>
<path d="M0 0 C5.28 0 10.56 0 16 0 C16 4.95 16 9.9 16 15 C10.72 15 5.44 15 0 15 C0 10.05 0 5.1 0 0 Z " fill="#D77E44" transform="translate(388,279)"/>
<path d="M0 0 C5.28 0 10.56 0 16 0 C16 4.95 16 9.9 16 15 C10.72 15 5.44 15 0 15 C0 10.05 0 5.1 0 0 Z " fill="#D77E44" transform="translate(108,279)"/>
<path d="M0 0 C5.28 0 10.56 0 16 0 C16 4.95 16 9.9 16 15 C10.72 15 5.44 15 0 15 C0 10.05 0 5.1 0 0 Z " fill="#D77E44" transform="translate(388,219)"/>
<path d="M0 0 C5.28 0 10.56 0 16 0 C16 4.95 16 9.9 16 15 C10.72 15 5.44 15 0 15 C0 10.05 0 5.1 0 0 Z " fill="#D77E44" transform="translate(108,219)"/>
<path d="M0 0 C5.28 0 10.56 0 16 0 C16 4.95 16 9.9 16 15 C10.72 15 5.44 15 0 15 C0 10.05 0 5.1 0 0 Z " fill="#D77E44" transform="translate(388,159)"/>
<path d="M0 0 C5.28 0 10.56 0 16 0 C16 4.95 16 9.9 16 15 C10.72 15 5.44 15 0 15 C0 10.05 0 5.1 0 0 Z " fill="#D77E44" transform="translate(108,159)"/>
<path d="M0 0 C5.28 0 10.56 0 16 0 C16 4.95 16 9.9 16 15 C10.72 15 5.44 15 0 15 C0 10.05 0 5.1 0 0 Z " fill="#D77D44" transform="translate(338,109)"/>
<path d="M0 0 C5.28 0 10.56 0 16 0 C16 4.95 16 9.9 16 15 C10.72 15 5.44 15 0 15 C0 10.05 0 5.1 0 0 Z " fill="#D77D44" transform="translate(278,109)"/>
<path d="M0 0 C5.28 0 10.56 0 16 0 C16 4.95 16 9.9 16 15 C10.72 15 5.44 15 0 15 C0 10.05 0 5.1 0 0 Z " fill="#D77D44" transform="translate(218,109)"/>
<path d="M0 0 C5.28 0 10.56 0 16 0 C16 4.95 16 9.9 16 15 C10.72 15 5.44 15 0 15 C0 10.05 0 5.1 0 0 Z " fill="#D77D44" transform="translate(158,109)"/>
<path d="M0 0 C4.62 0 9.24 0 14 0 C14 2.31 14 4.62 14 7 C9.38 7 4.76 7 0 7 C0 4.69 0 2.38 0 0 Z " fill="#FFB65F" transform="translate(339,396)"/>
<path d="M0 0 C4.62 0 9.24 0 14 0 C14 2.31 14 4.62 14 7 C9.38 7 4.76 7 0 7 C0 4.69 0 2.38 0 0 Z " fill="#FFB65F" transform="translate(279,396)"/>
<path d="M0 0 C4.62 0 9.24 0 14 0 C14 2.31 14 4.62 14 7 C9.38 7 4.76 7 0 7 C0 4.69 0 2.38 0 0 Z " fill="#FFB65F" transform="translate(219,396)"/>
<path d="M0 0 C4.62 0 9.24 0 14 0 C14 2.31 14 4.62 14 7 C9.38 7 4.76 7 0 7 C0 4.69 0 2.38 0 0 Z " fill="#FFB65F" transform="translate(159,396)"/>
<path d="M0 0 C2.31 0 4.62 0 7 0 C7 4.62 7 9.24 7 14 C4.69 14 2.38 14 0 14 C0 9.38 0 4.76 0 0 Z " fill="#FFB65F" transform="translate(396,339)"/>
<path d="M0 0 C2.31 0 4.62 0 7 0 C7 4.62 7 9.24 7 14 C4.69 14 2.38 14 0 14 C0 9.38 0 4.76 0 0 Z " fill="#FFB65F" transform="translate(109,339)"/>
<path d="M0 0 C2.31 0 4.62 0 7 0 C7 4.62 7 9.24 7 14 C4.69 14 2.38 14 0 14 C0 9.38 0 4.76 0 0 Z " fill="#FFB65F" transform="translate(396,279)"/>
<path d="M0 0 C2.31 0 4.62 0 7 0 C7 4.62 7 9.24 7 14 C4.69 14 2.38 14 0 14 C0 9.38 0 4.76 0 0 Z " fill="#FFB65F" transform="translate(109,279)"/>
<path d="M0 0 C2.31 0 4.62 0 7 0 C7 4.62 7 9.24 7 14 C4.69 14 2.38 14 0 14 C0 9.38 0 4.76 0 0 Z " fill="#FFB65F" transform="translate(396,219)"/>
<path d="M0 0 C2.31 0 4.62 0 7 0 C7 4.62 7 9.24 7 14 C4.69 14 2.38 14 0 14 C0 9.38 0 4.76 0 0 Z " fill="#FFB65F" transform="translate(109,219)"/>
<path d="M0 0 C2.31 0 4.62 0 7 0 C7 4.62 7 9.24 7 14 C4.69 14 2.38 14 0 14 C0 9.38 0 4.76 0 0 Z " fill="#FFB65F" transform="translate(396,159)"/>
<path d="M0 0 C2.31 0 4.62 0 7 0 C7 4.62 7 9.24 7 14 C4.69 14 2.38 14 0 14 C0 9.38 0 4.76 0 0 Z " fill="#FFB65F" transform="translate(109,159)"/>
<path d="M0 0 C4.62 0 9.24 0 14 0 C14 2.31 14 4.62 14 7 C9.38 7 4.76 7 0 7 C0 4.69 0 2.38 0 0 Z " fill="#FFB65F" transform="translate(339,109)"/>
<path d="M0 0 C4.62 0 9.24 0 14 0 C14 2.31 14 4.62 14 7 C9.38 7 4.76 7 0 7 C0 4.69 0 2.38 0 0 Z " fill="#FFB65F" transform="translate(279,109)"/>
<path d="M0 0 C4.62 0 9.24 0 14 0 C14 2.31 14 4.62 14 7 C9.38 7 4.76 7 0 7 C0 4.69 0 2.38 0 0 Z " fill="#FFB65F" transform="translate(219,109)"/>
<path d="M0 0 C4.62 0 9.24 0 14 0 C14 2.31 14 4.62 14 7 C9.38 7 4.76 7 0 7 C0 4.69 0 2.38 0 0 Z " fill="#FFB65F" transform="translate(159,109)"/>
</svg>
