<?xml version="1.0" encoding="UTF-8"?>
<svg version="1.1" xmlns="http://www.w3.org/2000/svg" width="512" height="512">
<path d="M0 0 C1.07443359 -0.02900391 2.14886719 -0.05800781 3.25585938 -0.08789062 C4.79790039 -0.10045898 4.79790039 -0.10045898 6.37109375 -0.11328125 C7.29720459 -0.12786377 8.22331543 -0.14244629 9.17749023 -0.1574707 C11.5625 0.3125 11.5625 0.3125 13.30029297 2.0456543 C14.60378309 4.38664187 15.32256177 6.40686034 15.94921875 9.0078125 C16.16513672 9.88824219 16.38105469 10.76867188 16.60351562 11.67578125 C16.81685547 12.58714844 17.03019531 13.49851562 17.25 14.4375 C17.47494141 15.35660156 17.69988281 16.27570312 17.93164062 17.22265625 C19.5625 23.97411664 19.5625 23.97411664 19.5625 26.3125 C23.26821128 28.43885408 26.2643083 29.46425848 30.5625 29.3125 C35.6167973 26.68298584 39.804991 22.59055571 43.90600586 18.6887207 C46.90157191 16.19999471 48.92031255 15.3209096 52.84375 15.26953125 C57.87149668 16.67962407 60.45140856 19.34795803 64.0625 23 C65.32159007 24.23442748 66.5819999 25.46751032 67.84375 26.69921875 C68.76063599 27.60655762 68.76063599 27.60655762 69.69604492 28.53222656 C72.08632542 30.81213832 74.60692922 32.90535071 77.17895508 34.97631836 C78.5625 36.3125 78.5625 36.3125 79.75 39.1875 C79.42317521 44.6345798 76.68777495 48.65407591 73.69921875 53.05859375 C72.73435547 54.48365234 72.73435547 54.48365234 71.75 55.9375 C71.12480469 56.81664062 70.49960937 57.69578125 69.85546875 58.6015625 C67.7485486 63.01909296 69.21005903 66.19298164 70.625 70.6875 C71.0890625 71.986875 71.0890625 71.986875 71.5625 73.3125 C72.90441406 73.38597656 72.90441406 73.38597656 74.2734375 73.4609375 C93.41647177 74.64462192 93.41647177 74.64462192 97.7890625 78.04296875 C101.20131008 82.40974374 100.43467131 87.97413042 100.5625 93.3125 C100.59359863 94.13637207 100.62469727 94.96024414 100.65673828 95.80908203 C100.75481857 98.4976648 100.81953065 101.18522306 100.875 103.875 C100.9049707 104.74382812 100.93494141 105.61265625 100.96582031 106.5078125 C100.99811682 110.09693794 100.98070404 112.56648184 99.20703125 115.73046875 C95.05357778 118.21517873 90.63806134 119.05794455 85.9375 120.0625 C84.97070312 120.28292969 84.00390625 120.50335938 83.0078125 120.73046875 C75.97219526 122.3125 75.97219526 122.3125 73.5625 122.3125 C71.93797028 126.08510457 71.22361931 129.19820201 71.5625 133.3125 C74.28882287 138.59745803 78.61469521 142.92605023 82.5625 147.3125 C84.65474423 150.45086635 85.14511078 152.41273586 85.04394531 156.16357422 C84.09970542 160.37817843 80.95891715 162.96605008 77.9375 165.875 C76.69399615 167.12499395 75.451799 168.37628922 74.2109375 169.62890625 C73.29586426 170.53600342 73.29586426 170.53600342 72.36230469 171.46142578 C70.0420686 173.84775649 67.91774135 176.37000338 65.81103516 178.94506836 C63.91944889 181.01678809 62.66975291 181.3004964 59.875 181.61328125 C55.77341915 181.24084997 52.98024591 179.63049445 49.5625 177.5 C47.23460304 176.09462116 44.90012864 174.7017952 42.5625 173.3125 C41.52867187 172.69375 40.49484375 172.075 39.4296875 171.4375 C36.65648892 170.03896395 36.65648892 170.03896395 34.0078125 170.89453125 C33.24210937 171.30058594 32.47640625 171.70664063 31.6875 172.125 C30.90632813 172.52332031 30.12515625 172.92164063 29.3203125 173.33203125 C28.74023438 173.65558594 28.16015625 173.97914063 27.5625 174.3125 C27.99790858 175.64651777 28.43597586 176.97966774 28.875 178.3125 C29.28105469 179.54806641 29.28105469 179.54806641 29.6953125 180.80859375 C30.67271622 183.63073694 31.80416144 186.36671894 33.01171875 189.09765625 C34.6498178 195.6849056 33.3765206 200.89341126 30.5 206.875 C30.03388306 207.89013672 30.03388306 207.89013672 29.55834961 208.92578125 C28.57377508 211.0615392 27.56865641 213.18683781 26.5625 215.3125 C25.88663241 216.76888773 25.21213955 218.22591426 24.5390625 219.68359375 C22.89600073 223.23414175 21.23445686 226.77547272 19.5625 230.3125 C20.68114441 230.30139694 21.79978882 230.29029388 22.95233154 230.27885437 C33.4877551 230.17755358 44.02308002 230.10257068 54.55887985 230.05343914 C59.97565741 230.02733091 65.39204224 229.99191001 70.80859375 229.93530273 C76.03463863 229.88102739 81.26030547 229.85108871 86.48661041 229.83811378 C88.48178307 229.8288659 90.47693474 229.81080696 92.47194672 229.78384972 C95.2639813 229.74761887 98.05444835 229.74255214 100.84667969 229.74487305 C102.08745773 229.71790848 102.08745773 229.71790848 103.353302 229.69039917 C107.10752581 229.72422837 109.04616744 229.80221363 111.77226162 232.49638557 C113.78345012 235.66006311 114.07373436 237.26307248 114.1040802 240.97160339 C114.1225853 242.09993591 114.14109039 243.22826843 114.16015625 244.39079285 C114.15991455 245.61945572 114.15967285 246.84811859 114.15942383 248.11401367 C114.17446457 249.4154129 114.18950531 250.71681213 114.20500183 252.05764771 C114.24455225 255.6220143 114.25809561 259.1860171 114.26445985 262.7505815 C114.26953273 264.98111915 114.28004958 267.21156374 114.29245567 269.44207191 C114.33543891 277.23430089 114.35667067 285.0262597 114.35864258 292.81860352 C114.36107361 300.06443715 114.41200649 307.30883511 114.48553449 314.55426425 C114.54654597 320.78807349 114.5725571 327.02141204 114.57197779 333.25551778 C114.57226008 336.97309753 114.58647095 340.68930227 114.63633156 344.40657616 C114.69067994 348.56005562 114.67224228 352.71025069 114.64770508 356.86401367 C114.67377838 358.08255539 114.69985168 359.30109711 114.72671509 360.55656433 C114.5984013 368.63196864 112.63146351 372.5978417 106.84710217 378.24379444 C106.09318345 378.92646728 105.33926474 379.60914011 104.5625 380.3125 C103.34959302 381.51624231 102.1402452 382.72360426 100.9375 383.9375 C100.37546875 384.48921875 99.8134375 385.0409375 99.234375 385.609375 C97.46961374 387.40712245 95.82806483 389.2760162 94.1875 391.1875 C90.2122906 395.79981971 85.90158145 400.0456029 81.5625 404.3125 C80.68588715 405.34990326 80.68588715 405.34990326 79.79156494 406.40826416 C76.95802481 408.82888842 75.47500379 408.82630431 71.78417969 408.85839844 C70.6232782 408.87811707 69.46237671 408.89783569 68.26629639 408.91815186 C66.3942453 408.91999481 66.3942453 408.91999481 64.484375 408.921875 C63.20266418 408.93841125 61.92095337 408.95494751 60.60040283 408.97198486 C57.20067454 409.01562554 53.8012041 409.03564965 50.40124512 409.05072021 C46.92880019 409.07030358 43.45663324 409.11227203 39.984375 409.15234375 C33.17718821 409.22760956 26.37001173 409.27792277 19.5625 409.3125 C21.2021875 409.6528125 21.2021875 409.6528125 22.875 410 C26.5625 411.3125 26.5625 411.3125 28.47070312 413.5625 C30.49555285 418.66265817 30.07438399 423.89340088 30.0625 429.3125 C30.09085937 430.488125 30.11921875 431.66375 30.1484375 432.875 C30.16774458 441.37011348 30.16774458 441.37011348 27.5078125 445.51171875 C24.06217867 447.61839938 20.87416538 448.52142923 16.9375 449.125 C16.26976562 449.24552734 15.60203125 449.36605469 14.9140625 449.49023438 C12.09253535 449.98400163 9.43098759 450.3125 6.5625 450.3125 C5.4999947 453.5000159 5.09236592 455.03135588 5.5625 458.3125 C7.32961914 461.21257053 9.16623826 463.85419724 11.31030273 466.47924805 C13.61537397 469.41006521 14.55411193 471.24575084 15.0234375 474.98046875 C14.54192728 478.46121637 14.15430458 479.60751921 11.75 482.0625 C10.79673828 483.04669922 10.79673828 483.04669922 9.82421875 484.05078125 C9.07785156 484.79714844 8.33148438 485.54351562 7.5625 486.3125 C6.68207031 487.27542969 5.80164063 488.23835938 4.89453125 489.23046875 C3.95188352 490.2382555 3.00787672 491.24477279 2.0625 492.25 C1.1859375 493.18714844 0.309375 494.12429688 -0.59375 495.08984375 C-4.10339673 497.83296049 -5.98706623 498.42315943 -10.4375 498.3125 C-13.13143264 497.1904459 -15.3905591 495.64055508 -17.75 493.9375 C-18.97509983 493.0961203 -20.20035328 492.25496421 -21.42578125 491.4140625 C-22.41964844 490.72054688 -23.41351563 490.02703125 -24.4375 489.3125 C-27.63812687 487.71218656 -30.16021806 489.28076309 -33.4375 490.3125 C-33.47488281 491.00214844 -33.51226562 491.69179688 -33.55078125 492.40234375 C-34.60564159 507.48064159 -34.60564159 507.48064159 -39.4375 512.3125 C-43.69492138 512.71113496 -47.96697574 512.64152541 -52.2409668 512.62817383 C-54.36364206 512.62501689 -56.48491936 512.64845761 -58.60742188 512.67382812 C-59.95572741 512.67610146 -61.30403669 512.67680446 -62.65234375 512.67578125 C-63.88073975 512.67876221 -65.10913574 512.68174316 -66.37475586 512.68481445 C-69.4375 512.3125 -69.4375 512.3125 -71.30224609 510.98852539 C-73.10406688 508.32841793 -73.49998281 505.56589292 -74.125 502.4375 C-74.50205078 500.61605469 -74.50205078 500.61605469 -74.88671875 498.7578125 C-75.35121621 495.85223264 -75.55447103 493.24234584 -75.4375 490.3125 C-78.59459584 488.764904 -79.98939293 488.11148927 -83.4375 488.3125 C-85.76153589 489.69537353 -87.80388374 491.05820982 -89.9375 492.6875 C-97.03590418 498.03412595 -97.03590418 498.03412595 -100.75 498.3125 C-105.99269512 496.89075217 -108.70249092 494.14206628 -112.4375 490.3125 C-113.32566406 489.44753906 -114.21382812 488.58257812 -115.12890625 487.69140625 C-123.28468199 479.69804994 -123.28468199 479.69804994 -123.7890625 475.125 C-123.29032268 469.71644369 -120.70270825 466.75993727 -117.4609375 462.5625 C-115.06306804 459.25058476 -115.06306804 459.25058476 -114.61035156 455.31640625 C-115.18649016 453.15409595 -115.18649016 453.15409595 -116.4375 450.3125 C-118.19126953 450.07466797 -118.19126953 450.07466797 -119.98046875 449.83203125 C-121.52880985 449.59743411 -123.07697847 449.36169667 -124.625 449.125 C-125.39392578 449.02380859 -126.16285156 448.92261719 -126.95507812 448.81835938 C-130.60830042 448.23823395 -133.22394606 447.43516229 -136.45703125 445.578125 C-139.75066216 440.14720697 -139.07561642 434.46209987 -138.9375 428.25 C-138.94007813 426.97060547 -138.94265625 425.69121094 -138.9453125 424.37304688 C-138.8476646 415.07208483 -138.8476646 415.07208483 -137.1862793 411.99536133 C-135.10621277 409.99370022 -133.80720278 409.57660522 -130.98828125 409.046875 C-130.14072266 408.87929688 -129.29316406 408.71171875 -128.41992188 408.5390625 C-127.53884766 408.38179688 -126.65777344 408.22453125 -125.75 408.0625 C-124.85732422 407.88976562 -123.96464844 407.71703125 -123.04492188 407.5390625 C-120.84479692 407.11550903 -118.64293194 406.70731326 -116.4375 406.3125 C-115.07340519 403.11038344 -115.07340519 403.11038344 -114.4375 399.3125 C-115.83738462 396.25815491 -115.83738462 396.25815491 -118.1875 393.625 C-124.35707722 385.99931627 -124.35707722 385.99931627 -124.58984375 381.1171875 C-122.88073188 375.47422152 -119.21986024 372.41397268 -115 368.4375 C-113.81567383 367.28121094 -113.81567383 367.28121094 -112.60742188 366.1015625 C-105.72888909 359.43999963 -105.72888909 359.43999963 -101.66796875 359.0390625 C-97.80072057 359.36639911 -95.93460288 360.51113262 -92.75 362.6875 C-91.81800781 363.31398438 -90.88601563 363.94046875 -89.92578125 364.5859375 C-88.69408203 365.44058594 -88.69408203 365.44058594 -87.4375 366.3125 C-84.18823878 368.47867415 -83.8389758 368.52585669 -80.25 367.9375 C-78.991875 367.73125 -77.73375 367.525 -76.4375 367.3125 C-76.1075 364.3425 -75.7775 361.3725 -75.4375 358.3125 C-93.35397295 350.32703292 -111.27666764 342.35683198 -129.25 334.5 C-129.92168213 334.20631531 -130.59336426 333.91263062 -131.28540039 333.61004639 C-139.20169342 330.14871638 -139.20169342 330.14871638 -147.13505554 326.72676086 C-148.76976555 326.02670174 -148.76976555 326.02670174 -150.4375 325.3125 C-150.43381283 326.24587031 -150.43012566 327.17924063 -150.42632675 328.14089489 C-150.33756723 350.84155817 -150.2718154 373.54219898 -150.23025131 396.24299908 C-150.20961748 407.22089997 -150.18148111 418.1986863 -150.13574219 429.17651367 C-150.09589966 438.74369644 -150.07007317 448.31079626 -150.06114602 457.87805969 C-150.05592691 462.94487483 -150.04364294 468.01145261 -150.01457977 473.07819176 C-149.98745155 477.84618264 -149.97904978 482.61383815 -149.98506927 487.38189888 C-149.98396788 489.132667 -149.97599853 490.88344621 -149.9606781 492.63414764 C-149.94079027 495.02377926 -149.94555568 497.41214293 -149.95648193 499.80180359 C-149.94483057 500.49539197 -149.9331792 501.18898035 -149.92117476 501.90358657 C-149.97944335 506.61480814 -151.09790959 509.01283964 -154.4375 512.3125 C-156.4375 512.94140625 -156.4375 512.94140625 -158.4375 512.875 C-159.0975 512.87628906 -159.7575 512.87757813 -160.4375 512.87890625 C-163.39015362 512.04270552 -164.53867824 510.71092178 -166.4375 508.3125 C-166.89160156 505.10449219 -166.89160156 505.10449219 -166.828125 501.359375 C-166.82246521 500.69915344 -166.81680542 500.03893188 -166.81097412 499.35870361 C-166.7886623 497.25921737 -166.73848314 495.1614663 -166.6875 493.0625 C-166.66742794 491.6354414 -166.64917839 490.20835592 -166.6328125 488.78125 C-166.58881693 485.29110707 -166.51982876 481.80197301 -166.4375 478.3125 C-167.74203125 478.35890625 -169.0465625 478.4053125 -170.390625 478.453125 C-184.30150111 478.80209566 -195.63517075 477.97641048 -206.4375 468.3125 C-207.30375 467.549375 -208.17 466.78625 -209.0625 466 C-219.32837316 454.38335406 -221.64035926 442.66256407 -221.53515625 427.55859375 C-221.5337413 426.77227066 -221.53232635 425.98594757 -221.53086853 425.17579651 C-221.52533672 422.70048985 -221.51279775 420.22527863 -221.5 417.75 C-221.49497616 416.05664194 -221.49041481 414.36328245 -221.48632812 412.66992188 C-221.47538978 408.5507453 -221.45817362 404.43163875 -221.4375 400.3125 C-222.3874585 400.00634766 -223.33741699 399.70019531 -224.31616211 399.38476562 C-230.68633436 397.19643582 -234.25603176 393.16034636 -237.3125 387.25 C-239.78877962 382.05965233 -240.5947056 377.65721452 -240.2265625 371.92578125 C-239.43381701 361.19503661 -239.43381701 361.19503661 -242.77539062 351.36132812 C-246.23016941 348.20416707 -250.31995052 346.23473098 -254.53076172 344.26318359 C-282.79106814 330.17283363 -303.22651351 293.61472649 -313.21484375 265.09277344 C-323.0659524 235.60600902 -323.95939289 204.15045904 -317.0625 173.9375 C-316.86567627 173.0515918 -316.66885254 172.16568359 -316.46606445 171.25292969 C-315.30413722 166.47596385 -314.23819872 162.68343773 -310.4375 159.3125 C-309.44105469 159.19261719 -308.44460938 159.07273438 -307.41796875 158.94921875 C-306.43441406 158.73910156 -305.45085937 158.52898437 -304.4375 158.3125 C-302.86827491 155.84135136 -301.81254474 153.80038116 -300.75 151.125 C-300.18420855 149.7979148 -299.61780922 148.47108859 -299.05078125 147.14453125 C-298.78507324 146.49959717 -298.51936523 145.85466309 -298.24560547 145.19018555 C-297.47822592 143.40712931 -296.5989651 141.673459 -295.71484375 139.9453125 C-294.2329634 137.50327113 -294.2329634 137.50327113 -294.6875 135.375 C-294.935 134.694375 -295.1825 134.01375 -295.4375 133.3125 C-296.60353847 129.74150718 -296.91707366 127.38674499 -295.36328125 123.90625 C-281.61743538 101.27386454 -260.42958231 82.98867612 -237.4375 70.3125 C-236.81681641 69.96590332 -236.19613281 69.61930664 -235.55664062 69.26220703 C-214.12224183 57.43996997 -190.73606836 51.88828882 -166.4375 50.3125 C-166.45844727 49.24290039 -166.47939453 48.17330078 -166.50097656 47.07128906 C-166.57344626 43.09811827 -166.61932463 39.12500575 -166.65722656 35.15136719 C-166.67732628 33.43251721 -166.70461089 31.71373548 -166.73925781 29.99511719 C-166.78785034 27.52261511 -166.81048435 25.0510179 -166.828125 22.578125 C-166.84877014 21.81131409 -166.86941528 21.04450317 -166.89068604 20.25445557 C-166.89216089 16.73752785 -166.72763879 14.71036436 -164.62792969 11.83105469 C-161.37653695 9.57696833 -159.29948126 9.70271349 -155.4375 10.3125 C-152.48299847 12.35239407 -150.71153263 13.97311976 -149.97423363 17.57679176 C-149.77979529 20.47938542 -149.75391719 23.34406858 -149.77807617 26.25317383 C-149.76759247 27.35605743 -149.75710876 28.45894104 -149.74630737 29.59524536 C-149.71752956 33.2369592 -149.7238526 36.87772394 -149.73046875 40.51953125 C-149.71735548 43.04588515 -149.70205242 45.57222855 -149.68464661 48.09855652 C-149.64881843 54.0660707 -149.63505966 60.03324029 -149.6320222 66.00082844 C-149.6273295 72.79657161 -149.59439955 79.59208677 -149.55912435 86.38772929 C-149.4872139 100.36262493 -149.45067696 114.33743437 -149.4375 128.3125 C-140.23919048 108.17768728 -140.23919048 108.17768728 -131.3671875 87.8984375 C-131.09948547 87.26963684 -130.83178345 86.64083618 -130.55596924 85.99298096 C-129.5397654 83.59910157 -128.52832519 81.20326069 -127.52441406 78.80419922 C-126.74977886 76.95768507 -125.96488713 75.11548412 -125.1796875 73.2734375 C-124.52782471 71.72342041 -124.52782471 71.72342041 -123.86279297 70.14208984 C-122.27666391 66.99319711 -121.05489681 64.70377655 -118.4375 62.3125 C-112.15642759 61.43921344 -107.67336895 63.02369493 -102 65.59375 C-101.23445801 65.92669067 -100.46891602 66.25963135 -99.68017578 66.60266113 C-97.2597256 67.65903985 -94.84875236 68.7353165 -92.4375 69.8125 C-90.7883473 70.53649456 -89.13861239 71.25916446 -87.48828125 71.98046875 C-83.46446041 73.74256782 -79.44900697 75.52255544 -75.4375 77.3125 C-74.36011756 72.15130323 -74.36011756 72.15130323 -75.30200195 67.16674805 C-75.75534912 66.64121338 -76.20869629 66.11567871 -76.67578125 65.57421875 C-77.16626953 64.98189453 -77.65675781 64.38957031 -78.16210938 63.77929688 C-78.68611328 63.19212891 -79.21011719 62.60496094 -79.75 62 C-80.7672937 60.79588255 -81.78423399 59.59146642 -82.80078125 58.38671875 C-83.25751221 57.86682373 -83.71424316 57.34692871 -84.18481445 56.8112793 C-86.45217752 54.09848611 -87.41405286 52.5218146 -87.8125 48.96484375 C-87.36684899 44.62438855 -86.29063219 43.11851007 -83.4375 39.875 C-82.61765625 38.93527344 -81.7978125 37.99554688 -80.953125 37.02734375 C-78.10683491 33.9556487 -75.23135343 30.94009441 -72.2109375 28.0390625 C-70.66887806 26.53776234 -69.22971597 24.9321754 -67.8125 23.3125 C-65.4375 21.3125 -65.4375 21.3125 -62.828125 20.87890625 C-58.06073855 21.48856051 -54.81905009 23.70069339 -50.8125 26.25 C-49.32308925 27.18024194 -47.83098713 28.10619172 -46.3359375 29.02734375 C-45.35633057 29.64790649 -45.35633057 29.64790649 -44.35693359 30.28100586 C-41.54408776 31.79261533 -39.53969811 32.53029652 -36.3605957 31.90209961 C-34.03587542 30.91484433 -32.32326256 30.00638346 -30.4375 28.3125 C-29.08946996 24.89854079 -28.86581105 21.51695678 -28.625 17.875 C-27.61055488 6.20488722 -27.61055488 6.20488722 -24.4375 2.3125 C-17.60217157 -1.10516422 -7.4687081 0.06894192 0 0 Z M-23.4375 83.3125 C-27.75608818 89.86646672 -27.75608818 89.86646672 -29.38037109 97.3059082 C-27.88786771 100.48221201 -25.51003031 100.9378653 -22.3203125 102.22265625 C-21.70735321 102.47623398 -21.09439392 102.72981171 -20.46286011 102.99107361 C-18.50165452 103.800249 -16.53300398 104.58876939 -14.5625 105.375 C-12.60038993 106.16739986 -10.64034232 106.96416047 -8.68356323 107.76963806 C-6.90387193 108.50082579 -5.11831742 109.21769369 -3.33251953 109.93383789 C2.07105647 112.50712122 3.21800084 115.45319147 5.25 121 C5.68699219 122.17949219 6.12398438 123.35898438 6.57421875 124.57421875 C7.06341797 125.92966797 7.06341797 125.92966797 7.5625 127.3125 C14.19840749 125.36521091 19.15101456 122.08519642 22.92578125 116.1796875 C26.71913856 108.70332509 28.10036809 101.03336929 25.87890625 92.76953125 C22.30490081 84.15336047 17.32199348 79.20559507 8.9296875 75.2578125 C-2.16375825 70.82775661 -15.84292584 73.77688084 -23.4375 83.3125 Z M-71.4375 418.9375 C-73.56367683 423.98716998 -74.54349678 428.98818969 -72.75390625 434.3671875 C-70.09988655 440.20382833 -66.70145788 443.5087338 -61.0625 446.625 C-54.71656188 448.28703141 -49.93031931 447.72326718 -44.265625 444.58984375 C-40.44707623 441.92175518 -37.92331838 438.76995513 -36.4375 434.3125 C-35.73983795 427.130012 -36.04213796 422.13338486 -40.4375 416.3125 C-45.86996411 411.2874707 -50.21124777 409.73568771 -57.54296875 409.86328125 C-63.49342251 410.78676598 -67.85256521 414.23227308 -71.4375 418.9375 Z " fill="#070707" transform="translate(394.4375,-0.31250000000000006)"/>
<path d="M0 0 C0 105.6 0 211.2 0 320 C-50 320 -50 320 -55 317 C-57.9078669 312.55577443 -58.35990162 309.05844774 -58.3359375 303.80859375 C-58.34844243 302.43814624 -58.3614792 301.06770349 -58.375 299.69726562 C-58.37893446 297.56208449 -58.37493085 295.42737325 -58.36035156 293.29223633 C-58.35175942 291.21365468 -58.37348093 289.13700508 -58.3984375 287.05859375 C-58.39505371 285.82423584 -58.39166992 284.58987793 -58.38818359 283.31811523 C-59.16670119 279.09591545 -60.7318283 277.69129376 -64 275 C-66.02505561 273.6703108 -68.09058063 272.40069939 -70.1875 271.1875 C-76.22732097 267.59129029 -81.66704031 263.57484287 -87 259 C-87.80953125 258.31292969 -88.6190625 257.62585938 -89.453125 256.91796875 C-117.32494007 232.59586598 -136.44936407 197.19677404 -139 160 C-139.72572225 141.40547705 -139.85197055 122.78324017 -133.55078125 105.04296875 C-132.56311455 101.3794958 -132.80702635 98.57892096 -134 95 C-136.00016466 93.79117904 -136.00016466 93.79117904 -138 93 C-134.81727521 84.69866628 -131.66148194 76.6110037 -127 69 C-125.07942708 69.16276042 -123.15885417 69.32552083 -121.23828125 69.48828125 C-115.99922611 68.34538091 -112.88448127 62.63372325 -109.9375 58.5 C-87.71012177 28.55733346 -55.91335383 9.17527547 -19.5 1.625 C-18.69981445 1.45709961 -17.89962891 1.28919922 -17.07519531 1.11621094 C-11.12761537 -0.02499483 -6.26408123 0 0 0 Z " fill="#FCF385" transform="translate(228,66)"/>
<path d="M0 0 C6.23768863 1.95889052 12.19778731 4.28122661 18.16015625 6.95703125 C19.443564 7.52678429 19.443564 7.52678429 20.75289917 8.10804749 C22.57971212 8.91956945 24.40570303 9.73294406 26.23092651 10.54803467 C30.06756264 12.26132002 33.90822317 13.96549511 37.74861145 15.67034912 C39.69298924 16.53367578 41.6371522 17.39748642 43.58110046 18.26177979 C51.68757935 21.86561346 59.80548129 25.44275602 67.93331909 28.99813843 C69.87211775 29.84639421 71.81022223 30.69622086 73.74829102 31.54614258 C81.1335349 34.77665338 88.54761563 37.92750327 96 41 C93.51569263 49.13367537 90.08032684 56.7746916 86.5625 64.5 C85.9833128 65.77976192 85.40453427 67.05970887 84.82617188 68.33984375 C80.42168671 78.08228204 80.42168671 78.08228204 78.71630859 81.79370117 C78.17417725 82.98443237 78.17417725 82.98443237 77.62109375 84.19921875 C77.31486084 84.86526123 77.00862793 85.53130371 76.69311523 86.2175293 C75.61366344 88.99353406 75.45757881 91.08448611 76 94 C79.46576997 98.58521545 84.56854493 100.30721375 89.69140625 102.51171875 C90.63306137 102.92541214 91.57471649 103.33910553 92.54490662 103.76533508 C95.54700751 105.08153139 98.55466046 106.38447958 101.5625 107.6875 C103.59085833 108.57534179 105.61885751 109.4640046 107.64648438 110.35351562 C111.35410948 111.97578295 115.06235807 113.59651592 118.77563477 115.20581055 C119.52079849 115.52905807 120.26596222 115.8523056 121.03370667 116.18534851 C122.66197159 116.85995205 124.32796443 117.44265481 126 118 C125.35057577 122.13545275 123.99296423 125.58404788 122.27734375 129.39453125 C121.47006836 131.19760742 121.47006836 131.19760742 120.64648438 133.03710938 C120.07693432 134.29562334 119.50727145 135.55408625 118.9375 136.8125 C118.36346104 138.09028319 117.78988839 139.36827597 117.21679688 140.64648438 C115.8157713 143.76641527 114.41002202 146.88412718 113 150 C111.72938721 150.00616333 111.72938721 150.00616333 110.43310547 150.01245117 C107.26793746 150.03953908 104.1040766 150.08873625 100.93945312 150.15258789 C99.57401335 150.17567894 98.20839771 150.1901427 96.84277344 150.19555664 C88.03179963 149.87337942 88.03179963 149.87337942 80.28125 153.3125 C79.5284375 154.199375 78.775625 155.08625 78 156 C77.39414062 156.64582031 76.78828125 157.29164063 76.1640625 157.95703125 C75.40222656 158.87548828 75.40222656 158.87548828 74.625 159.8125 C72.18981611 162.67142735 69.67880839 165.36773461 67 168 C63.11823491 171.82940987 59.55130271 175.86612403 56 180 C54.12925625 182.11345502 52.2574421 184.2259284 50.3828125 186.3359375 C47.51102249 189.79182039 47.84713988 192.59820975 47.79467773 197.02001953 C47.78477814 197.74207581 47.77487854 198.46413208 47.76467896 199.20806885 C47.73303969 201.59961648 47.70829701 203.99118399 47.68359375 206.3828125 C47.66302631 208.03905764 47.6420299 209.69529751 47.62062073 211.35153198 C47.56537833 215.71461724 47.51597863 220.07775004 47.46777344 224.44091797 C47.41757423 228.89164469 47.36187993 233.34230223 47.30664062 237.79296875 C47.19903253 246.52858736 47.09759347 255.26426379 47 264 C43.01559449 263.51012594 39.43632412 263.01487262 35.76586914 261.36450195 C35.0076889 261.02888748 34.24950867 260.69327301 33.46835327 260.3474884 C32.66539825 259.98145004 31.86244324 259.61541168 31.03515625 259.23828125 C29.74709579 258.66414742 29.74709579 258.66414742 28.43301392 258.07841492 C25.63917606 256.83112609 22.85091493 255.57185913 20.0625 254.3125 C18.13364372 253.44892142 16.20435934 252.58629842 14.2746582 251.72460938 C11.34827314 250.41762132 8.42222171 249.10993434 5.49766541 247.79885864 C-4.08012532 243.50575711 -13.69807942 239.30699836 -23.32516479 235.12588501 C-25.19261779 234.31442543 -27.0592196 233.50100781 -28.92578125 232.6875 C-29.96130127 232.23761719 -30.99682129 231.78773438 -32.0637207 231.32421875 C-35.08580348 229.96130389 -38.03890495 228.49000443 -41 227 C-41.45000779 210.14168498 -41.7818025 193.28540402 -41.98443127 176.42248058 C-42.08114931 168.58693911 -42.21269174 160.75522812 -42.43334961 152.92211914 C-43.44120458 116.40791221 -43.11700378 85.9747713 -24.38925171 53.33149719 C-20.74400646 46.89366321 -17.93170231 40.07628532 -15.07276726 33.26298523 C-13.77175604 30.17875559 -12.42335168 27.1159628 -11.078125 24.05078125 C-9.40966879 20.23367104 -7.74596324 16.41462741 -6.09179688 12.59130859 C-5.77200867 11.85454391 -5.45222046 11.11777924 -5.1227417 10.35868835 C-4.49945128 8.92267788 -3.87800526 7.48586513 -3.25860596 6.048172 C-1.11280372 1.11280372 -1.11280372 1.11280372 0 0 Z " fill="#EEEEFE" transform="translate(284,80)"/>
<path d="M0 0 C0.16232659 13.68233877 0.28663948 27.36444774 0.3626852 41.04755402 C0.39918718 47.40151528 0.4486845 53.75481684 0.52807617 60.10839844 C0.60424059 66.24222784 0.64601312 72.37542348 0.6641407 78.50968933 C0.67705579 80.8476916 0.70227666 83.18565991 0.7401104 85.52339172 C0.79107448 88.80346088 0.79791738 92.08092553 0.79467773 95.36132812 C0.81984467 96.3237442 0.8450116 97.28616028 0.87094116 98.27774048 C0.80279675 104.67176198 -0.74643872 107.84283367 -5.26246548 112.37682343 C-5.83585187 112.91247169 -6.40923826 113.44811996 -7 114 C-7.79148437 114.8353125 -8.58296875 115.670625 -9.3984375 116.53125 C-10.05070313 117.1809375 -10.70296875 117.830625 -11.375 118.5 C-12.04273438 119.1703125 -12.71046875 119.840625 -13.3984375 120.53125 C-15 122 -15 122 -16 122 C-16.0093457 121.20303711 -16.01869141 120.40607422 -16.02832031 119.58496094 C-16.08201498 115.97267825 -16.16566608 112.36169179 -16.25 108.75 C-16.26417969 107.49574219 -16.27835938 106.24148438 -16.29296875 104.94921875 C-16.32519531 103.74394531 -16.35742188 102.53867187 -16.390625 101.296875 C-16.41157227 100.18666992 -16.43251953 99.07646484 -16.45410156 97.93261719 C-17.11684476 94.37229908 -18.14354958 93.16727508 -21 91 C-24.04253508 90.41654524 -24.04253508 90.41654524 -27 91 C-28.9966178 92.53169358 -29.88166653 93.4309931 -30.39872742 95.9172821 C-30.40983047 96.63898087 -30.42093353 97.36067963 -30.43237305 98.10424805 C-30.45231323 98.93629761 -30.47225342 99.76834717 -30.49279785 100.62561035 C-30.5021637 101.93048401 -30.5021637 101.93048401 -30.51171875 103.26171875 C-30.52835571 104.06468384 -30.54499268 104.86764893 -30.56213379 105.69494629 C-30.61993359 108.69219821 -30.6521857 111.68989883 -30.6875 114.6875 C-30.790625 121.390625 -30.89375 128.09375 -31 135 C-50.14 135 -69.28 135 -89 135 C-87 131 -87 131 -85 128 C-84.383828 124.50835867 -84.26736023 122.12414414 -86.25 119.08203125 C-88.08350001 116.95568055 -90.00553288 114.9763356 -92 113 C-92.79148437 112.18402344 -93.58296875 111.36804688 -94.3984375 110.52734375 C-99.41244935 104.93821992 -99.41244935 104.93821992 -106.21484375 102.65234375 C-111.42960983 103.13130575 -114.29445704 105.71818722 -118.19335938 108.88867188 C-121.0602514 111.07937757 -122.55226394 112.01360073 -126.21484375 111.90234375 C-129 111 -129 111 -132 109 C-132.76489335 105.4304977 -133.27630019 101.91459851 -133.72851562 98.296875 C-134.24077257 94.79291622 -134.63842224 92.5067008 -136.72265625 89.5859375 C-139.4262168 87.54387411 -139.4262168 87.54387411 -145 86 C-145 64.55 -145 43.1 -145 21 C-107.38 21 -69.76 21 -31 21 C-30.505 40.8 -30.505 40.8 -30 61 C-27.34938617 64.24584138 -27.34938617 64.24584138 -24.0625 64.4375 C-21.00156942 64.22134173 -21.00156942 64.22134173 -18.82250977 62.57226562 C-16.04572461 58.65314862 -16.60519437 55.08337843 -16.77734375 50.40625 C-16.79697981 48.46876976 -16.81448815 46.53126702 -16.83007812 44.59375 C-16.875286 41.55578057 -16.93680326 38.52104176 -17.03735352 35.484375 C-17.60017988 16.73780969 -17.60017988 16.73780969 -12.19520569 10.36853027 C-9.92954988 8.0712643 -7.51202355 6.02186721 -5 4 C-4.24323975 3.24009766 -3.48647949 2.48019531 -2.70678711 1.69726562 C-1 0 -1 0 0 0 Z " fill="#95DFFD" transform="translate(492,258)"/>
<path d="M0 0 C2.97 0 5.94 0 9 0 C9.18175781 1.03640625 9.36351562 2.0728125 9.55078125 3.140625 C9.80411837 4.51052204 10.0580563 5.88030806 10.3125 7.25 C10.48942383 8.27287109 10.48942383 8.27287109 10.66992188 9.31640625 C11.4188867 13.27247685 12.02306875 16.22111823 15 19 C17.49663147 20.49071623 20.0826776 21.66136543 22.75 22.8125 C23.4409375 23.13669922 24.131875 23.46089844 24.84375 23.79492188 C29.58906277 25.87768603 32.84657337 26.44198596 38 25 C40.76132806 23.39571025 40.76132806 23.39571025 43.1875 21.375 C47.41452796 18.00669111 47.41452796 18.00669111 50.05078125 17.9765625 C52.80133805 19.42074262 54.20955831 21.5061705 56 24 C55.00806641 25.28583984 55.00806641 25.28583984 53.99609375 26.59765625 C53.14218893 27.75183529 52.28938169 28.90682692 51.4375 30.0625 C50.99986328 30.62388672 50.56222656 31.18527344 50.11132812 31.76367188 C47.83785295 34.89641326 46.993341 36.67861574 47.07421875 40.58203125 C47.94336422 43.79090165 48.94902977 46.6261414 50.375 49.625 C50.79523438 50.52476562 51.21546875 51.42453125 51.6484375 52.3515625 C54.09421365 57.70513687 54.09421365 57.70513687 58.5 61.1875 C63.30422637 62.30276684 68.13633916 63.18650513 73 64 C73 66.97 73 69.94 73 73 C71.97519531 73.15855469 70.95039063 73.31710937 69.89453125 73.48046875 C68.53367334 73.71509942 67.17300565 73.9508353 65.8125 74.1875 C65.13896484 74.28869141 64.46542969 74.38988281 63.77148438 74.49414062 C58.70711808 75.40819698 56.16174757 76.9717844 53 81 C51.61793972 83.78277253 51.61793972 83.78277253 50.75 86.6875 C50.43546875 87.64011719 50.1209375 88.59273438 49.796875 89.57421875 C49.53390625 90.37472656 49.2709375 91.17523438 49 92 C48.67 92.66 48.34 93.32 48 94 C47.433214 99.84498063 48.60307105 102.71364567 52 107.4375 C52.7425 108.48808594 53.485 109.53867187 54.25 110.62109375 C54.8275 111.40613281 55.405 112.19117188 56 113 C54.60667426 116.36720387 53.0210714 117.9859524 50 120 C48.60587891 119.00806641 48.60587891 119.00806641 47.18359375 117.99609375 C45.93559804 117.14220195 44.68686023 116.28939406 43.4375 115.4375 C42.52387695 114.78104492 42.52387695 114.78104492 41.59179688 114.11132812 C38.23195333 111.85365548 36.57900979 110.98798997 32.421875 111.07421875 C29.08508328 111.97698089 25.99101451 113.01806625 22.8125 114.375 C21.80832031 114.79523438 20.80414063 115.21546875 19.76953125 115.6484375 C16.05310497 117.37668819 16.05310497 117.37668819 13 120 C12.08372927 122.85028225 11.66276432 125.72773699 11.25 128.6875 C11.12496094 129.48478516 10.99992187 130.28207031 10.87109375 131.10351562 C10.56544947 133.06669237 10.28068207 135.03309915 10 137 C7.03 137 4.06 137 1 137 C-0.49213524 132.09726993 -1.50152828 127.30867856 -2.2421875 122.234375 C-3.23027347 119.32104937 -4.37744461 118.55799893 -7 117 C-8.64390241 116.25971702 -10.31274297 115.57279343 -12 114.9375 C-16.80088933 113.11521122 -16.80088933 113.11521122 -18.9375 111.87890625 C-21.85663907 110.63495494 -23.84780927 110.61875 -27 111 C-30.14473295 112.75055127 -30.14473295 112.75055127 -33.125 115.0625 C-38.46971615 119.04043759 -38.46971615 119.04043759 -41.25390625 118.828125 C-43.3986789 117.81091739 -44.62687242 116.95128657 -46 115 C-45.45408672 110.24425544 -42.16210618 106.66015169 -39.49609375 102.8515625 C-37.74183624 99.50793853 -37.55728987 97.72935167 -38 94 C-38.94558664 90.92859877 -38.94558664 90.92859877 -40.3125 87.9375 C-40.74175781 86.93589844 -41.17101562 85.93429687 -41.61328125 84.90234375 C-43.99556368 79.40783485 -43.99556368 79.40783485 -48.4375 75.8125 C-53.58789436 74.63784866 -58.77878773 73.79416497 -64 73 C-64.02689216 71.52093108 -64.04634621 70.04172517 -64.0625 68.5625 C-64.07410156 67.73878906 -64.08570313 66.91507812 -64.09765625 66.06640625 C-64 64 -64 64 -63 63 C-56.30833689 61.94899303 -56.30833689 61.94899303 -52.99023438 61.54492188 C-48.88904269 60.89578541 -47.41804985 60.49024595 -44.625 57.21484375 C-43.21062382 54.41669088 -41.91473007 51.68328166 -40.8125 48.75 C-39.02531646 44.05063291 -39.02531646 44.05063291 -38 42 C-37.49238654 37.97370236 -37.81850813 36.29600461 -39.96875 32.7890625 C-40.79797443 31.72291681 -41.64218916 30.66828345 -42.5 29.625 C-42.92925781 29.07972656 -43.35851562 28.53445313 -43.80078125 27.97265625 C-44.85431825 26.63817606 -45.92544214 25.31761261 -47 24 C-45.64062915 21.1394109 -44.35479531 19.14072301 -42 17 C-38.42897145 18.28832203 -35.70590102 19.84050636 -32.6875 22.125 C-28.03086425 25.27054203 -25.56890988 25.88395395 -20 25 C-17.88505067 24.15808748 -15.94274358 23.19043723 -13.95703125 22.078125 C-12.04946932 21.02725256 -10.15227172 20.22658299 -8.125 19.4375 C-4.77207221 18.22588053 -4.77207221 18.22588053 -3 15 C-2.5760716 12.82494253 -2.22956899 10.63415336 -1.9375 8.4375 C-1.09465649 2.18931298 -1.09465649 2.18931298 0 0 Z M-12 58.625 C-14.12617683 63.67466998 -15.10599678 68.67568969 -13.31640625 74.0546875 C-10.66238655 79.89132833 -7.26395788 83.1962338 -1.625 86.3125 C4.72093812 87.97453141 9.50718069 87.41076718 15.171875 84.27734375 C18.99042377 81.60925518 21.51418162 78.45745513 23 74 C23.69766205 66.817512 23.39536204 61.82088486 19 56 C13.56753589 50.9749707 9.22625223 49.42318771 1.89453125 49.55078125 C-4.05592251 50.47426598 -8.41506521 53.91977308 -12 58.625 Z " fill="#7672DF" transform="translate(335,360)"/>
<path d="M0 0 C4.62 0 9.24 0 14 0 C14.34933594 1.40894531 14.69867188 2.81789063 15.05859375 4.26953125 C15.51816692 6.11720298 15.97780575 7.96485839 16.4375 9.8125 C16.66759766 10.74126953 16.89769531 11.67003906 17.13476562 12.62695312 C17.46831055 13.9659668 17.46831055 13.9659668 17.80859375 15.33203125 C18.11494751 16.56530151 18.11494751 16.56530151 18.42749023 17.82348633 C18.88624158 19.56752397 19.42972637 21.28917912 20 23 C22.4904136 23.89191665 22.4904136 23.89191665 25.5 24.4375 C30.35665375 25.514836 34.41929374 26.93158697 38.76953125 29.328125 C42.2281879 30.36996203 44.51248731 29.90882216 48 29 C50.60843623 27.36123612 52.87950587 25.40865241 55.1875 23.375 C57.40939443 21.42638671 59.57705981 19.71760194 62 18 C65.67602159 18.45554006 67.5529321 20.09018776 70.25 22.5625 C71.30960938 23.52349609 71.30960938 23.52349609 72.390625 24.50390625 C72.92171875 24.99761719 73.4528125 25.49132812 74 26 C72.91909567 27.87640133 71.83515594 29.75105424 70.75 31.625 C69.79867187 33.27435547 69.79867187 33.27435547 68.828125 34.95703125 C67.47080837 37.21632538 66.1098992 39.2434394 64.5 41.3125 C62.43992072 45.00347537 63.12693198 46.90166613 64 51 C65.05435828 53.47098325 66.12061008 55.76653962 67.375 58.125 C67.67921875 58.71925781 67.9834375 59.31351563 68.296875 59.92578125 C69.17640972 61.62847026 70.08761837 63.31468372 71 65 C71.49113281 65.94230469 71.98226562 66.88460937 72.48828125 67.85546875 C74.54833239 70.77786688 76.76091764 71.00469181 80.171875 71.59765625 C81.10515625 71.73042969 82.0384375 71.86320312 83 72 C84.22203125 72.18433594 85.4440625 72.36867188 86.703125 72.55859375 C90.13215082 73.06184147 93.56582017 73.53321828 97 74 C97 78.29 97 82.58 97 87 C91.03126023 89.45771637 85.20315779 90.87537856 78.85546875 92.05859375 C75.4516133 93.18079507 74.6798969 93.87138466 73 97 C72.04634825 99.54123387 71.17769965 102.03852335 70.375 104.625 C68.078125 111.84375 68.078125 111.84375 67 114 C66.44784296 119.16557444 67.59475138 121.51479967 70.75 125.5625 C71.44609375 126.47128906 72.1421875 127.38007813 72.859375 128.31640625 C75.92561246 132.16146333 75.92561246 132.16146333 79 136 C77.52670958 141.00918744 74.72484762 143.51807722 71 147 C65.56466101 145.08045649 61.11227776 141.87243449 56.3515625 138.6796875 C52.46917066 136.73396665 50.28920522 136.46506511 46 137 C42.98519095 138.24685528 42.98519095 138.24685528 40.25 140 C35.27777778 143 35.27777778 143 32 143 C30.96748938 140.56686628 29.94880479 138.12943108 28.9375 135.6875 C28.49567383 134.65206055 28.49567383 134.65206055 28.04492188 133.59570312 C25.88671875 128.33984375 25.88671875 128.33984375 27 125 C28.8693711 124.1162973 30.73891817 123.23296482 32.609375 122.3515625 C43.81808692 116.01461099 49.85574722 106.496369 53.26953125 94.4296875 C55.80232898 82.53772809 53.66349901 71.58143014 47.3125 61.25 C42.07769373 53.98456358 35.36584855 48.2686681 27 45 C26.12988281 44.64550781 25.25976562 44.29101562 24.36328125 43.92578125 C13.91917053 41.05092151 1.14909688 41.66573452 -8.5234375 46.515625 C-20.82483562 53.88870274 -26.72262735 62.80656837 -32 76 C-40.415 72.535 -40.415 72.535 -49 69 C-48 62 -48 62 -46.4375 59 C-44.61926367 55.20541984 -44.48836012 53.19200739 -45 49 C-46.6792909 46.07075969 -48.78666624 43.60235034 -51 41.0625 C-51.57234375 40.37865234 -52.1446875 39.69480469 -52.734375 38.99023438 C-54.14155317 37.31334706 -55.5630071 35.65133161 -57 34 C-55.57046772 31.03304621 -54.06179607 28.72203034 -51.875 26.25 C-51.33617187 25.63640625 -50.79734375 25.0228125 -50.2421875 24.390625 C-49.83226562 23.93171875 -49.42234375 23.4728125 -49 23 C-43.56466101 24.91954351 -39.11227776 28.12756551 -34.3515625 31.3203125 C-30.44842411 33.27643081 -28.31296625 33.55962426 -24 33 C-20.66309874 31.59116663 -20.66309874 31.59116663 -17.5 29.625 C-12.98302027 26.96085904 -9.04493468 25.26123367 -4 24 C-3.91435791 23.37955811 -3.82871582 22.75911621 -3.74047852 22.11987305 C-3.3507567 19.30866566 -2.9566787 16.49808577 -2.5625 13.6875 C-2.42779297 12.71103516 -2.29308594 11.73457031 -2.15429688 10.72851562 C-2.02216797 9.79072266 -1.89003906 8.85292969 -1.75390625 7.88671875 C-1.57323608 6.59060669 -1.57323608 6.59060669 -1.38891602 5.26831055 C-1 3 -1 3 0 0 Z " fill="#7772E0" transform="translate(382,16)"/>
<path d="M0 0 C7.98393732 6.65873461 13.83691199 13.82894366 15.12890625 24.41796875 C15.51182393 34.75674618 13.39619143 43.61798627 6.75 51.6875 C-0.84034658 59.31475264 -8.54041087 62.86289396 -19.25 63.0625 C-29.06318854 62.91000051 -36.73484088 59.71200057 -44.125 53.1875 C-51.63562677 44.71728455 -54.27929844 36.09300949 -53.63671875 25.01953125 C-52.67573321 15.80765977 -49.30700474 8.77396925 -42.29296875 2.5859375 C-29.94601978 -6.99888331 -13.42893879 -9.51432536 0 0 Z M-36.25 18.9375 C-38.37617683 23.98716998 -39.35599678 28.98818969 -37.56640625 34.3671875 C-34.91238655 40.20382833 -31.51395788 43.5087338 -25.875 46.625 C-19.52906188 48.28703141 -14.74281931 47.72326718 -9.078125 44.58984375 C-5.25957623 41.92175518 -2.73581838 38.76995513 -1.25 34.3125 C-0.55233795 27.130012 -0.85463796 22.13338486 -5.25 16.3125 C-10.68246411 11.2874707 -15.02374777 9.73568771 -22.35546875 9.86328125 C-28.30592251 10.78676598 -32.66506521 14.23227308 -36.25 18.9375 Z " fill="#070608" transform="translate(359.25,399.6875)"/>
<path d="M0 0 C12.87 0 25.74 0 39 0 C39 20.13 39 40.26 39 61 C15.66917293 61 15.66917293 61 8.57421875 54.921875 C7.95160156 54.20515625 7.32898438 53.4884375 6.6875 52.75 C6.05199219 52.04359375 5.41648438 51.3371875 4.76171875 50.609375 C0.36309488 44.09434009 -0.43488928 38.10984349 -0.29296875 30.46875 C-0.28872391 29.59222778 -0.28447906 28.71570557 -0.28010559 27.81262207 C-0.2634513 25.04142177 -0.22582509 22.27097664 -0.1875 19.5 C-0.17243599 17.60938558 -0.1587506 15.71875964 -0.14648438 13.828125 C-0.11615613 9.21823232 -0.05741175 4.60995107 0 0 Z " fill="#CDCDFD" transform="translate(189,401)"/>
<path d="M0 0 C2.40562876 0.0205408 4.81130383 0.03618733 7.21699524 0.04716492 C13.51957391 0.0889739 19.81932131 0.19685581 26.12078857 0.31890869 C32.56255803 0.43185442 39.00478938 0.48176354 45.44726562 0.53710938 C58.06630545 0.65474279 70.68339211 0.8401009 83.30078125 1.07421875 C82.35534409 2.35325988 81.40733331 3.6303989 80.45825195 4.90673828 C79.93060745 5.61814972 79.40296295 6.32956116 78.85932922 7.06253052 C76.91809484 9.56816938 74.77622582 11.75871646 72.48828125 13.94921875 C69.49634629 16.72011531 69.49634629 16.72011531 67.30078125 20.07421875 C31.33078125 20.07421875 -4.63921875 20.07421875 -41.69921875 20.07421875 C-39.71921875 17.43421875 -37.73921875 14.79421875 -35.69921875 12.07421875 C-34.99834641 11.03480637 -34.29747406 9.99539398 -33.57536316 8.92448425 C-24.79058282 -2.15129675 -13.10417022 -0.32922109 0 0 Z " fill="#F369BB" transform="translate(398.69921875,243.92578125)"/>
<path d="M0 0 C0.16232659 13.68233877 0.28663948 27.36444774 0.3626852 41.04755402 C0.39918718 47.40151528 0.4486845 53.75481684 0.52807617 60.10839844 C0.60424059 66.24222784 0.64601312 72.37542348 0.6641407 78.50968933 C0.67705579 80.8476916 0.70227666 83.18565991 0.7401104 85.52339172 C0.79107448 88.80346088 0.79791738 92.08092553 0.79467773 95.36132812 C0.81984467 96.3237442 0.8450116 97.28616028 0.87094116 98.27774048 C0.80279675 104.67176198 -0.74643872 107.84283367 -5.26246548 112.37682343 C-5.83585187 112.91247169 -6.40923826 113.44811996 -7 114 C-7.79148437 114.8353125 -8.58296875 115.670625 -9.3984375 116.53125 C-10.37683594 117.50578125 -10.37683594 117.50578125 -11.375 118.5 C-12.04273438 119.1703125 -12.71046875 119.840625 -13.3984375 120.53125 C-15 122 -15 122 -16 122 C-16.01401855 120.80455566 -16.01401855 120.80455566 -16.02832031 119.58496094 C-16.08201498 115.97267825 -16.16566608 112.36169179 -16.25 108.75 C-16.26417969 107.49574219 -16.27835937 106.24148438 -16.29296875 104.94921875 C-16.32519531 103.74394531 -16.35742188 102.53867187 -16.390625 101.296875 C-16.4220459 99.63156738 -16.4220459 99.63156738 -16.45410156 97.93261719 C-17.11752706 94.36863368 -18.168771 93.19835092 -21 91 C-21.99 90.67 -22.98 90.34 -24 90 C-24 81.75 -24 73.5 -24 65 C-22.02 64.01 -20.04 63.02 -18 62 C-16.8458935 59.69178699 -16.90829516 58.48528491 -16.96923828 55.92431641 C-16.98479767 55.08228668 -17.00035706 54.24025696 -17.01638794 53.37271118 C-17.03418304 52.45823212 -17.05197815 51.54375305 -17.0703125 50.6015625 C-17.08122649 48.65756702 -17.08893169 46.71355139 -17.09375 44.76953125 C-17.10156323 41.709185 -17.12427048 38.6536592 -17.20214844 35.59423828 C-17.64922391 16.80175762 -17.64922391 16.80175762 -12.18161011 10.35946655 C-9.92026017 8.06558516 -7.50739076 6.01896685 -5 4 C-4.24348145 3.24025879 -3.48696289 2.48051758 -2.70751953 1.69775391 C-1 0 -1 0 0 0 Z " fill="#FBF285" transform="translate(492,258)"/>
<path d="M0 0 C2.88119536 1.33612686 4.22117015 3.40627271 6.046875 5.94921875 C5.38558594 6.80644531 4.72429687 7.66367187 4.04296875 8.546875 C3.18906393 9.70105404 2.33625669 10.85604567 1.484375 12.01171875 C1.04673828 12.57310547 0.60910156 13.13449219 0.15820312 13.71289062 C-2.11527205 16.84563201 -2.959784 18.62783449 -2.87890625 22.53125 C-2.00976078 25.7401204 -1.00409523 28.57536015 0.421875 31.57421875 C1.05222656 32.92386719 1.05222656 32.92386719 1.6953125 34.30078125 C4.14108865 39.65435562 4.14108865 39.65435562 8.546875 43.13671875 C13.35110137 44.25198559 18.18321416 45.13572388 23.046875 45.94921875 C23.046875 48.91921875 23.046875 51.88921875 23.046875 54.94921875 C22.02207031 55.10777344 20.99726563 55.26632812 19.94140625 55.4296875 C18.58054834 55.66431817 17.21988065 55.90005405 15.859375 56.13671875 C15.18583984 56.23791016 14.51230469 56.33910156 13.81835938 56.44335938 C8.75399308 57.35741573 6.20862257 58.92100315 3.046875 62.94921875 C1.66481472 65.73199128 1.66481472 65.73199128 0.796875 68.63671875 C0.48234375 69.58933594 0.1678125 70.54195313 -0.15625 71.5234375 C-0.41921875 72.32394531 -0.6821875 73.12445313 -0.953125 73.94921875 C-1.448125 74.93921875 -1.448125 74.93921875 -1.953125 75.94921875 C-2.519911 81.79419938 -1.35005395 84.66286442 2.046875 89.38671875 C3.160625 90.96259766 3.160625 90.96259766 4.296875 92.5703125 C4.874375 93.35535156 5.451875 94.14039063 6.046875 94.94921875 C4.50814323 98.66782054 3.57176112 99.30555416 0.046875 101.94921875 C-4.903125 98.64921875 -9.853125 95.34921875 -14.953125 91.94921875 C-13.695 89.32984375 -12.436875 86.71046875 -11.140625 84.01171875 C-3.13865646 66.53698489 -1.28169009 47.07326072 -7.73388672 28.72949219 C-10.20681866 22.41485701 -12.80929893 16.35640642 -16.953125 10.94921875 C-16.953125 10.28921875 -16.953125 9.62921875 -16.953125 8.94921875 C-15.7775 8.39234375 -14.601875 7.83546875 -13.390625 7.26171875 C-10.40312673 5.79176385 -7.83070131 4.1772227 -5.203125 2.13671875 C-1.953125 -0.05078125 -1.953125 -0.05078125 0 0 Z " fill="#6962E3" transform="translate(384.953125,378.05078125)"/>
<path d="M0 0 C3.15600256 2.07631747 3.89160405 3.70333739 5.1875 7.25 C4.98380824 11.32383515 4.76814449 11.70240764 2.17578125 14.51953125 C1.53680908 15.21675293 0.89783691 15.91397461 0.23950195 16.63232422 C-0.49953369 17.41365723 -1.23856934 18.19499023 -2 19 C-2.83378174 19.8883252 -3.66756348 20.77665039 -4.52661133 21.69189453 C-6.8449901 24.13227136 -9.18273756 26.54840317 -11.54296875 28.94799805 C-12.52060688 29.94742335 -13.49191798 30.95307422 -14.45703125 31.96459961 C-15.87362338 33.44825076 -17.30909012 34.91109471 -18.75 36.37109375 C-19.59046875 37.23661865 -20.4309375 38.10214355 -21.296875 38.99389648 C-24.61177757 41.45402604 -26.90333676 41.88093177 -31 42 C-33.80189446 40.23358828 -35.51524911 38.96950178 -37 36 C-37.51435762 32.98745161 -37.60606124 30.91583541 -35.87960815 28.3069458 C-34.21790311 26.40557977 -32.48193168 24.62435857 -30.68359375 22.8515625 C-30.03431412 22.19417084 -29.38503448 21.53677917 -28.71607971 20.85946655 C-27.34057139 19.4755045 -25.95737343 18.09914863 -24.56713867 16.72998047 C-22.44625356 14.6336522 -20.36227182 12.50501703 -18.27929688 10.37109375 C-16.9369873 9.02915469 -15.59265023 7.68924 -14.24609375 6.3515625 C-13.62600937 5.71417145 -13.00592499 5.0767804 -12.36705017 4.42007446 C-8.32342922 0.50338606 -5.87645485 -0.90959565 0 0 Z " fill="#050505" transform="translate(108,339)"/>
<path d="M0 0 C2.77549256 1.63198963 4.88787212 3.76428494 7.125 6.0625 C8.07354858 6.99956787 8.07354858 6.99956787 9.04125977 7.95556641 C10.36857459 9.27745422 11.68590776 10.60943188 12.99365234 11.95068359 C14.99444397 13.99432498 17.034347 15.99175222 19.08203125 17.98828125 C20.36976025 19.28129702 21.65500522 20.57679243 22.9375 21.875 C23.54674316 22.46804932 24.15598633 23.06109863 24.78369141 23.67211914 C27.76513461 26.78908249 29.37368779 28.88046726 29.47265625 33.2890625 C29 37 29 37 27.5 39.5 C24.02641013 41.58415392 20.89967834 41.77476463 17 41 C14.22450744 39.36801037 12.11212788 37.23571506 9.875 34.9375 C8.92645142 34.00043213 8.92645142 34.00043213 7.95874023 33.04443359 C6.63142541 31.72254578 5.31409224 30.39056812 4.00634766 29.04931641 C2.00555603 27.00567502 -0.034347 25.00824778 -2.08203125 23.01171875 C-3.36976025 21.71870298 -4.65500522 20.42320757 -5.9375 19.125 C-6.54674316 18.53195068 -7.15598633 17.93890137 -7.78369141 17.32788086 C-10.76513461 14.21091751 -12.37368779 12.11953274 -12.47265625 7.7109375 C-12 4 -12 4 -10.5 1.5 C-7.02641013 -0.58415392 -3.89967834 -0.77476463 0 0 Z " fill="#050505" transform="translate(81,46)"/>
<path d="M0 0 C0.96147949 -0.0038269 1.92295898 -0.00765381 2.91357422 -0.01159668 C4.9443466 -0.01431602 6.97515399 -0.00695329 9.00585938 0.00976562 C12.1140757 0.03117475 15.21998056 0.00996454 18.328125 -0.015625 C20.30208843 -0.01298173 22.27605043 -0.00785676 24.25 0 C25.17925293 -0.00809692 26.10850586 -0.01619385 27.06591797 -0.02453613 C33.46441375 0.06844108 33.46441375 0.06844108 36.71484375 2.34570312 C38.77897911 5.54482704 38.59049916 7.8072567 38.125 11.53125 C36.36484869 14.7162857 35.62609084 15.36421972 32.125 16.53125 C29.16144067 16.65266211 26.22217429 16.7194444 23.2578125 16.734375 C22.38607391 16.74007507 21.51433533 16.74577515 20.61618042 16.75164795 C18.77196464 16.76109183 16.92773203 16.7676295 15.08349609 16.77148438 C12.26760314 16.78118933 9.45244041 16.81221786 6.63671875 16.84375 C4.84375433 16.85028043 3.05078469 16.85553075 1.2578125 16.859375 C0.41807892 16.8717218 -0.42165466 16.8840686 -1.28683472 16.89678955 C-5.96968914 16.87901735 -9.07822445 16.58989292 -12.875 13.53125 C-14.42086876 10.43951248 -14.16859521 7.93695448 -13.875 4.53125 C-10.48556418 -0.77005421 -5.68185417 -0.04950809 0 0 Z " fill="#050505" transform="translate(17.875,205.46875)"/>
<path d="M0 0 C3.49781038 1.74890519 4.15134843 6.04880283 5.4765625 9.55859375 C5.80667328 10.41808121 6.13678406 11.27756866 6.47689819 12.1631012 C7.17444766 13.98352132 7.86857737 15.8052549 8.55957031 17.62817383 C9.62031337 20.4251423 10.69203958 23.21770482 11.765625 26.00976562 C12.44075708 27.7757922 13.11525758 29.54206039 13.7890625 31.30859375 C14.11089508 32.14821152 14.43272766 32.98782928 14.76431274 33.85289001 C15.05816864 34.63032059 15.35202454 35.40775116 15.65478516 36.20874023 C15.91522614 36.89411362 16.17566711 37.579487 16.44400024 38.28562927 C17 40 17 40 17 42 C10.23703646 39.91932667 3.86121387 37.26750264 -2.5625 34.3125 C-3.47580078 33.89677734 -4.38910156 33.48105469 -5.33007812 33.05273438 C-7.55525752 32.03917098 -9.77847781 31.02154784 -12 30 C-11.35990983 26.03526237 -10.1301723 22.7055586 -8.49609375 19.04296875 C-8.00302734 17.93115234 -7.50996094 16.81933594 -7.00195312 15.67382812 C-6.48568359 14.52333984 -5.96941406 13.37285156 -5.4375 12.1875 C-4.91736328 11.01767578 -4.39722656 9.84785156 -3.86132812 8.64257812 C-2.57872888 5.75967157 -1.29147717 2.87893769 0 0 Z " fill="#C8C8F7" transform="translate(389,138)"/>
</svg>
